<svg xmlns="http://www.w3.org/2000/svg" xml:space="preserve" width="512px" height="512px" version="1.1" style="shape-rendering:geometricPrecision; text-rendering:geometricPrecision; image-rendering:optimizeQuality; fill-rule:evenodd; clip-rule:evenodd" viewBox="0 0 512 512" xmlns:xlink="http://www.w3.org/1999/xlink">
 <defs>
  <style type="text/css">
   
    .fil0 {fill:#FC4549}
    .fil1 {fill:#FFAB00}
   
  </style>
 </defs>
 <g id="Layer_x0020_1">
  <metadata id="CorelCorpID_0Corel-Layer"></metadata>
  <g id="_316298288">
   <path class="fil0" d="M41 333c-11,0 -19,-9 -19,-21l0 -158c0,-12 8,-22 19,-22l133 -1c0,0 0,0 0,0 10,0 19,10 19,22l0 157c0,12 -9,22 -19,22l-5 0c-57,1 -57,1 -128,1z" id="id_115" style="fill: rgb(3, 192, 230);"></path>
   <path class="fil1" d="M152 294c-3,0 -5,-2 -6,-4l-45 -111c-2,-4 0,-8 3,-10 4,-1 8,1 10,4l45 111c1,4 -1,8 -4,9 -1,1 -2,1 -3,1z" id="id_116" style="fill: rgb(4, 107, 133);"></path>
   <path class="fil1" d="M63 295c-1,0 -2,0 -3,-1 -3,-1 -5,-5 -4,-9l44 -112c2,-3 6,-5 10,-4 3,2 5,6 4,9l-44 112c-2,3 -4,5 -7,5z" id="id_117" style="fill: rgb(4, 107, 133);"></path>
   <path class="fil1" d="M136 254l-57 0c-4,0 -7,-3 -7,-7 0,-4 3,-7 7,-7l57 0c4,0 7,3 7,7 0,4 -3,7 -7,7z" id="id_118" style="fill: rgb(4, 107, 133);"></path>
   <path class="fil1" d="M338 333c-10,0 -19,-10 -19,-21l0 -158c0,-12 9,-22 19,-22l133 -1c0,0 0,0 0,0 11,0 19,10 19,22l0 157c0,12 -8,22 -19,22l-2 0c-59,1 -59,1 -131,1z" id="id_119" style="fill: rgb(4, 107, 133);"></path>
   <path class="fil0" d="M462 205l-114 0c-4,0 -7,-3 -7,-7 0,-4 3,-7 7,-7l114 0c4,0 7,3 7,7 0,4 -3,7 -7,7z" id="id_120" style="fill: rgb(3, 192, 230);"></path>
   <path class="fil0" d="M364 301c-2,0 -5,-1 -6,-4 -2,-3 -1,-7 2,-9 57,-32 69,-91 69,-91 1,-4 4,-7 8,-6 4,1 7,5 6,8 -1,3 -14,66 -76,101 -1,1 -2,1 -3,1z" id="id_121" style="fill: rgb(3, 192, 230);"></path>
   <path class="fil0" d="M446 301c-1,0 -2,0 -3,-1 -62,-35 -76,-98 -77,-101 -1,-3 2,-7 6,-8 3,-1 7,2 8,5l0 0c0,1 13,60 69,92 4,2 5,6 3,9 -1,3 -4,4 -6,4z" id="id_122" style="fill: rgb(3, 192, 230);"></path>
   <path class="fil0" d="M405 205c-4,0 -7,-3 -7,-7l0 -28c0,-4 3,-7 7,-7 4,0 7,3 7,7l0 28c0,4 -3,7 -7,7z" id="id_123" style="fill: rgb(3, 192, 230);"></path>
   <path class="fil1" d="M323 57l-134 0c-4,0 -7,-3 -7,-7 0,-4 3,-7 7,-7l117 0 -30 -31c-3,-3 -3,-7 0,-10 3,-3 7,-3 10,0l42 43c2,2 2,5 1,8 -1,2 -3,4 -6,4z" id="id_124" style="fill: rgb(4, 107, 133);"></path>
   <path class="fil1" d="M231 99c-2,0 -4,-1 -5,-2l-42 -42c-2,-2 -3,-5 -1,-8 1,-2 3,-4 6,-4l134 0c4,0 7,3 7,7 0,4 -3,7 -7,7l-117 0 30 30c3,3 3,7 0,10 -1,1 -3,2 -5,2z" id="id_125" style="fill: rgb(3, 192, 230);"></path>
   <path class="fil0" d="M256 390l-227 0c-4,0 -7,-3 -7,-7 0,-4 3,-7 7,-7l227 0c4,0 7,3 7,7 0,4 -3,7 -7,7z" id="id_126" style="fill: rgb(255, 200, 0);"></path>
   <path class="fil0" d="M483 451l-454 0c-4,0 -7,-3 -7,-7 0,-4 3,-7 7,-7l454 0c4,0 7,3 7,7 0,4 -3,7 -7,7z" id="id_127" style="fill: rgb(255, 200, 0);"></path>
   <path class="fil0" d="M483 512l-454 0c-4,0 -7,-3 -7,-7 0,-4 3,-7 7,-7l454 0c4,0 7,3 7,7 0,4 -3,7 -7,7z" id="id_128" style="fill: rgb(255, 200, 0);"></path>
  </g>
 </g>
</svg>