<?xml version="1.0" encoding="UTF-8" standalone="no"?> <svg id="Layer_1" enable-background="new 0 0 512.011 512.011" height="512" viewBox="0 0 512.011 512.011" width="512" xmlns="http://www.w3.org/2000/svg"><g><path d="m401.791 38.093h86.732v101.459h-86.732z" fill="#ff3838"/><path d="m401.791 38.093h86.732v101.459h-86.732z" fill="#c30047"/><path d="m344.056 18.091h87.734v101.46h-87.734z" fill="#ff6326"/><g><path d="m329.056 0h30v222.054h-30z" fill="#ececef"/></g><path d="m54.961 377.501h144.03v119.521h-144.03z" fill="#98f9ff"/><path d="m126.976 377.501h72.015v119.521h-72.015z" fill="#5ecbf1"/><path d="m178.991 292.278h154.029v204.745h-154.029z" fill="#bee75e"/><path d="m256.006 292.278h77.015v204.745h-77.015z" fill="#5bc980"/><path d="m313.021 207.054h144.03v289.968h-144.03z" fill="#ffd321"/><path d="m385.036 207.054h72.015v289.968h-72.015z" fill="#ffaf00"/><g><path d="m22.242 482.011h467.527v30h-467.527z" fill="#595959"/></g><path d="m256.006 482.011h233.764v30h-233.764z" fill="#454040"/><path d="m385.036 18.091h46.755v101.46h-46.755z" fill="#ff3838"/></g></svg>