<?xml version="1.0" encoding="UTF-8"?>
<!DOCTYPE svg PUBLIC "-//W3C//DTD SVG 1.1//EN" "http://www.w3.org/Graphics/SVG/1.1/DTD/svg11.dtd">
<!-- Creator: CorelDRAW -->
<svg xmlns="http://www.w3.org/2000/svg" xml:space="preserve" width="512px" height="512px" version="1.1" style="shape-rendering:geometricPrecision; text-rendering:geometricPrecision; image-rendering:optimizeQuality; fill-rule:evenodd; clip-rule:evenodd"
viewBox="0 0 512 512"
 xmlns:xlink="http://www.w3.org/1999/xlink">
 <defs>
  <style type="text/css">
   <![CDATA[
    .fil1 {fill:#FFAF50}
    .fil0 {fill:#FFDE55}
   ]]>
  </style>
 </defs>
 <g id="Layer_x0020_1">
  <metadata id="CorelCorpID_0Corel-Layer"/>
  <path class="fil0" d="M147 512c-3,0 -6,-2 -7,-4l-30 -68c-1,-2 -1,-5 1,-7 2,-3 5,-3 8,-3l43 15 -13 -62c0,-3 1,-5 4,-7 2,-2 5,-1 8,0l70 54 49 -41c2,-2 5,-2 7,-2 2,1 4,2 5,4l15 32 36 -34c2,-2 5,-3 7,-2 3,1 4,3 5,5l13 46 43 16c2,1 4,3 4,5 1,3 0,5 -2,7l-51 44c-3,3 -7,3 -10,0 0,-1 -1,-2 -1,-2l-198 0c-1,1 -2,3 -4,4 0,0 -1,0 -2,0z"/>
  <path class="fil1" d="M262 390c-1,2 -3,3 -5,3l-1 0 0 0 0 0 0 0 0 0 0 0c-1,0 -2,0 -2,0 -1,-1 -2,-1 -3,-2 0,0 -1,-1 -1,-1 -1,-2 -2,-5 0,-7 5,-13 1,-16 -10,-24 -10,-7 -24,-16 -27,-37 -1,-6 -1,-9 0,-14 4,-42 -18,-47 -48,-53 -27,-5 -62,-12 -62,-64 0,-20 9,-37 22,-49 -5,-9 -7,-19 -7,-29 0,-31 25,-57 55,-57 3,0 7,1 10,1 9,-33 39,-57 75,-57 34,0 64,22 74,54 4,-1 7,-1 12,-1 43,0 78,35 78,78 0,26 -14,50 -36,64 2,6 3,12 3,18 0,45 -38,52 -65,58 -14,2 -29,5 -32,11 -2,4 -2,9 1,16 17,43 -5,66 -29,91l-2 1z"/>
  <path class="fil1" d="M475 512l-438 0c-4,0 -7,-3 -7,-7 0,-5 3,-8 7,-8l438 0c4,0 7,3 7,8 0,4 -3,7 -7,7z"/>
 </g>
</svg>
