<?xml version="1.0" encoding="UTF-8" standalone="no"?> <svg width="64" height="64" viewBox="0 0 64 64" fill="none" xmlns="http://www.w3.org/2000/svg">
<path d="M58.7 13.5502C57.2863 12.4064 55.5048 11.816 53.6878 11.889C51.8709 11.9621 50.1426 12.6937 48.8253 13.9473C47.508 15.2009 46.6918 16.8909 46.5289 18.702C46.366 20.5131 46.8676 22.3216 47.94 23.7902L40 32.3402L35.49 16.6202C36.6946 15.9809 37.703 15.0264 38.4075 13.8587C39.1119 12.691 39.4861 11.3539 39.49 9.99018C39.4901 8.99811 39.2931 8.0159 38.9104 7.10059C38.5278 6.18528 37.9671 5.35511 37.261 4.65828C36.5548 3.96144 35.7173 3.41183 34.797 3.04136C33.8767 2.67089 32.8919 2.48693 31.9 2.50018C30.2349 2.5256 28.6257 3.10442 27.326 4.14541C26.0262 5.18639 25.1099 6.63032 24.7214 8.24959C24.3329 9.86887 24.4944 11.5714 25.1803 13.0888C25.8663 14.6061 27.0377 15.8521 28.51 16.6302L24 32.3402L16.1 23.7802C17.2267 22.2305 17.7159 20.3076 17.4666 18.4079C17.2173 16.5082 16.2485 14.7766 14.76 13.5702C13.3243 12.3653 11.4896 11.7416 9.61703 11.8219C7.74449 11.9023 5.9699 12.6808 4.64272 14.0042C3.31554 15.3276 2.53197 17.1 2.44632 18.9723C2.36067 20.8446 2.97915 22.6811 4.17996 24.1202C5.271 25.4631 6.79438 26.3856 8.48996 26.7302V56.0002C8.48996 56.7233 8.63255 57.4393 8.90958 58.1073C9.1866 58.7752 9.59263 59.382 10.1044 59.8928C10.6162 60.4037 11.2237 60.8086 11.8921 61.0844C12.5606 61.3602 13.2768 61.5015 14 61.5002H50C51.4587 61.5002 52.8576 60.9207 53.889 59.8893C54.9205 58.8578 55.5 57.4589 55.5 56.0002V26.7302C56.8945 26.4471 58.1796 25.7725 59.2047 24.7855C60.2299 23.7985 60.9526 22.5399 61.2883 21.1571C61.6241 19.7742 61.559 18.3243 61.1006 16.9772C60.6422 15.63 59.8095 14.4413 58.7 13.5502V13.5502Z" fill="#F8B64C"/>
<path d="M14 57.5003C13.6022 57.5003 13.2206 57.3422 12.9393 57.0609C12.658 56.7796 12.5 56.3981 12.5 56.0003V25.8203L25.83 40.2603L32 19.0003L38.17 40.2903L51.51 25.8203V56.0003C51.51 56.1981 51.4709 56.394 51.3949 56.5766C51.3189 56.7592 51.2075 56.925 51.0671 57.0645C50.9268 57.2039 50.7602 57.3142 50.5771 57.389C50.3939 57.4637 50.1978 57.5016 50 57.5003H14ZM51.17 21.4303C50.8865 21.032 50.6879 20.5797 50.5864 20.1015C50.485 19.6233 50.4828 19.1293 50.58 18.6503C50.7179 18.0077 51.0355 17.4174 51.4958 16.9483C51.9561 16.4792 52.5401 16.1504 53.18 16.0003C53.449 15.9378 53.7239 15.9043 54 15.9003C54.7958 15.8934 55.5695 16.1619 56.19 16.6603C56.7087 17.0755 57.0985 17.6299 57.3138 18.2585C57.5291 18.8871 57.5609 19.5641 57.4057 20.2101C57.2505 20.8562 56.9146 21.4448 56.4372 21.907C55.9598 22.3692 55.3607 22.6859 54.71 22.8203L52.5 23.2603L51.17 21.4303ZM9.28999 22.8103C8.50049 22.6517 7.79224 22.2197 7.28999 21.5903C6.95546 21.1749 6.71881 20.6895 6.59762 20.1701C6.47644 19.6508 6.47383 19.1108 6.58999 18.5903C6.74059 17.9566 7.06598 17.378 7.52915 16.9201C7.99232 16.4623 8.57467 16.1435 9.20999 16.0003C9.72251 15.8831 10.2548 15.8829 10.7674 15.9997C11.2801 16.1165 11.7598 16.3472 12.171 16.6748C12.5822 17.0024 12.9143 17.4185 13.1426 17.892C13.371 18.3656 13.4897 18.8845 13.49 19.4103C13.4853 20.1466 13.2511 20.8632 12.82 21.4603L11.5 23.2603L9.28999 22.8103ZM30.38 13.0803C29.6887 12.718 29.1388 12.1344 28.8181 11.4228C28.4975 10.7112 28.4246 9.91271 28.6111 9.15484C28.7977 8.39698 29.2329 7.72352 29.8472 7.24208C30.4615 6.76065 31.2195 6.49902 32 6.49902C32.7805 6.49902 33.5384 6.76065 34.1528 7.24208C34.7671 7.72352 35.2023 8.39698 35.3888 9.15484C35.5754 9.91271 35.5025 10.7112 35.1819 11.4228C34.8612 12.1344 34.3113 12.718 33.62 13.0803L32 13.9403L30.38 13.0803Z" fill="#FFD164"/>
</svg>
