<svg width="216" height="24" viewBox="0 0 216 24" fill="none" xmlns="http://www.w3.org/2000/svg">
<path d="M27.392 0.664H32.224L25.76 23H20.64L16.32 7.416L11.872 23H6.752L0.416 0.664H5.216L9.504 17.912L14.016 0.664H19.104L23.36 17.752L27.392 0.664ZM50.129 17.112C51.3877 15.768 52.017 13.9867 52.017 11.768C52.017 9.54933 51.3877 7.77867 50.129 6.456C48.8703 5.13333 47.2277 4.472 45.201 4.472C43.1743 4.472 41.521 5.144 40.241 6.488C38.9823 7.81067 38.353 9.58133 38.353 11.8C38.353 13.9973 38.9823 15.768 40.241 17.112C41.521 18.4347 43.1743 19.096 45.201 19.096C47.2277 19.096 48.8703 18.4347 50.129 17.112ZM45.201 23.224C41.9797 23.224 39.2703 22.1467 37.073 19.992C34.8757 17.8373 33.777 15.1067 33.777 11.8C33.777 8.472 34.8757 5.73067 37.073 3.576C39.2917 1.42133 42.001 0.344 45.201 0.344C48.4223 0.344 51.1317 1.42133 53.329 3.576C55.5263 5.73067 56.625 8.472 56.625 11.8C56.625 15.1067 55.5263 17.8373 53.329 19.992C51.1317 22.1467 48.4223 23.224 45.201 23.224ZM74.8053 0.599998H79.3173V23H74.8053L64.6933 7.512V23H60.1813V0.599998H64.6933L74.8053 16.088V0.599998ZM88.6308 19.576H91.7028C94.0494 19.576 95.8734 18.8827 97.1748 17.496C98.4761 16.1093 99.1268 14.232 99.1268 11.864C99.1268 9.496 98.4761 7.61867 97.1748 6.232C95.8734 4.84533 94.0494 4.152 91.7028 4.152H88.6308V19.576ZM91.7028 0.664C95.2868 0.664 98.1774 1.688 100.375 3.736C102.593 5.784 103.703 8.49333 103.703 11.864C103.703 15.2347 102.593 17.9333 100.375 19.96C98.1774 21.9867 95.2868 23 91.7028 23H84.1188V0.664H91.7028ZM120.14 0.599998V4.056H111.756V9.912H119.18V13.368H111.756V19.544H120.14V23H107.244V0.599998H120.14ZM129.256 14.104V23H124.744V0.664H132.968C135.549 0.664 137.533 1.31467 138.92 2.616C140.328 3.896 141.032 5.48533 141.032 7.384C141.032 8.792 140.605 10.104 139.752 11.32C138.898 12.536 137.554 13.368 135.72 13.816L141.416 23H136.072L130.728 14.104H129.256ZM129.256 4.12V10.648H132.968C134.098 10.648 134.962 10.36 135.56 9.784C136.157 9.18667 136.456 8.38667 136.456 7.384C136.456 6.38133 136.157 5.592 135.56 5.016C134.962 4.41867 134.098 4.12 132.968 4.12H129.256Z" fill="#34d1bf"/>
<path d="M150.037 23H145.525V0.664H150.037V10.648L158.101 0.664H163.989L154.293 11.864L163.989 23H158.133L150.037 13.08V23ZM167.088 23V0.664H171.6V23H167.088ZM180.912 19.576H183.984C186.331 19.576 188.155 18.8827 189.456 17.496C190.757 16.1093 191.408 14.232 191.408 11.864C191.408 9.496 190.757 7.61867 189.456 6.232C188.155 4.84533 186.331 4.152 183.984 4.152H180.912V19.576ZM183.984 0.664C187.568 0.664 190.459 1.688 192.656 3.736C194.875 5.784 195.984 8.49333 195.984 11.864C195.984 15.2347 194.875 17.9333 192.656 19.96C190.459 21.9867 187.568 23 183.984 23H176.4V0.664H183.984ZM206.757 3.96C205.861 3.96 205.125 4.19467 204.549 4.664C203.994 5.112 203.717 5.74133 203.717 6.552C203.717 7.36267 203.92 8.00267 204.325 8.472C204.752 8.92 205.306 9.272 205.989 9.528C206.672 9.76267 207.418 9.976 208.229 10.168C209.04 10.36 209.85 10.5947 210.661 10.872C211.472 11.1493 212.218 11.4907 212.901 11.896C213.584 12.3013 214.128 12.8987 214.533 13.688C214.96 14.456 215.173 15.3947 215.173 16.504C215.173 18.3387 214.437 19.9173 212.965 21.24C211.514 22.5627 209.573 23.224 207.141 23.224C204.73 23.224 202.778 22.6587 201.285 21.528C199.792 20.376 199.045 18.7653 199.045 16.696H203.845C204.016 18.6587 205.136 19.64 207.205 19.64C208.229 19.64 209.04 19.3733 209.637 18.84C210.234 18.3067 210.533 17.6027 210.533 16.728C210.533 15.832 210.138 15.128 209.349 14.616C208.56 14.104 207.6 13.72 206.469 13.464C205.36 13.208 204.24 12.8987 203.109 12.536C201.978 12.1733 201.018 11.544 200.229 10.648C199.44 9.73067 199.045 8.52533 199.045 7.032C199.045 5.00533 199.781 3.384 201.253 2.168C202.725 0.952 204.613 0.344 206.917 0.344C209.242 0.344 211.109 0.877333 212.517 1.944C213.925 2.98933 214.693 4.58933 214.821 6.744H209.893C209.808 5.89067 209.488 5.21867 208.933 4.728C208.378 4.216 207.653 3.96 206.757 3.96Z" fill="#71A9F7"/>
</svg>
