<svg version="1.1" id="Icons" xmlns="http://www.w3.org/2000/svg" xmlns:xlink="http://www.w3.org/1999/xlink" x="0px" y="0px" viewBox="0 0 32 32" style="enable-background:new 0 0 32 32;" xml:space="preserve">
<style type="text/css">
	.st0{fill:#FFFFFF;}
</style>
<g>
	<g>
		<path d="M26,7H9C8.4,7,8,6.6,8,6s0.4-1,1-1h17c0.6,0,1,0.4,1,1S26.6,7,26,7z" id="id_103" style="fill: rgb(255, 3, 3);"></path>
	</g>
	<path d="M26,8h-9v13l-3-1l-3,1V8H9C7.9,8,7,7.1,7,6s0.9-2,2-2h17c0.6,0,1-0.4,1-1s-0.4-1-1-1H9C6.8,2,5,3.8,5,6v20c0,2.2,1.8,4,4,4
		h17c0.6,0,1-0.4,1-1V9C27,8.4,26.6,8,26,8z" id="id_104" style="fill: rgb(255, 142, 3);"></path>
</g>
</svg>