<?xml version="1.0" encoding="UTF-8" standalone="no"?> <svg xmlns="http://www.w3.org/2000/svg" viewBox="0 0 64 64"><g id="filled_outline" data-name="filled outline"><rect x="34.752" y="40.776" width="4" height="18" transform="translate(52.24 -10.128) rotate(50.937)" style="fill:#62666a"/><rect x="25" y="39" width="6" height="18" style="fill:#787d82"/><rect x="25" y="45" width="6" height="6" style="fill:#a8a8a8"/><path d="M60,49H41L32,39H4V35A28,28,0,0,1,32,7h0A28,28,0,0,1,60,35Z" style="fill:#94d1a5"/><path d="M52.071,42.371l-3.5-8.743A1,1,0,0,0,47.646,33H38V31h9.646a2.986,2.986,0,0,1,2.785,1.885l3.5,8.744Z" style="fill:#7aac88"/><path d="M25.5,23h-8a1.5,1.5,0,0,1,0-3h1a1.5,1.5,0,0,0,0-3H10.558A27.876,27.876,0,0,0,4.289,31H13.5A1.5,1.5,0,0,0,15,29.5,1.5,1.5,0,0,1,16.5,28h9a2.5,2.5,0,0,0,0-5Z" style="fill:#5e8569"/><path d="M50.51,14H44.5a1.5,1.5,0,0,0,0,3h1a1.5,1.5,0,0,1,0,3h-8a2.5,2.5,0,0,0,0,5h9A1.5,1.5,0,0,1,48,26.5,1.5,1.5,0,0,0,49.5,28h9.618A27.986,27.986,0,0,0,50.51,14Z" style="fill:#55785f"/><path d="M29,13a2,2,0,0,0,0-4H21.609a27.936,27.936,0,0,0-6.918,4Z" style="fill:#9c775c"/><rect x="24" y="16" width="3" height="2" style="fill:#3b5442"/><rect x="41" y="36" width="2" height="2" style="fill:#744630"/><path d="M59.711,31H54v2h5.921C59.874,32.327,59.805,31.659,59.711,31Z" style="fill:#55785f"/><rect x="38" y="40" width="8" height="2" style="fill:#3b5442"/><rect x="56.208" y="35" width="3.792" height="2" style="fill:#9c775c"/><rect x="30" y="30" width="4" height="2" style="fill:#3b5442"/><path d="M42.391,9H36v2H46.426A27.942,27.942,0,0,0,42.391,9Z" style="fill:#55785f"/><rect x="35" y="15" width="4" height="2" style="fill:#9c775c"/><rect x="30" y="19" width="2" height="2" style="fill:#744630"/><polygon points="4 35 34 35 43 45 60 45 60 49 41 49 32 39 4 39 4 35" style="fill:#6b9777"/><path d="M24,51v6a1,1,0,0,0,1,1h6l.01,0,.01,0a.994.994,0,0,0,.63-.224L41.232,50H60a1,1,0,0,0,1-1V35A29,29,0,0,0,3,35v4a1,1,0,0,0,1,1H24V51Zm6,5H26V52h4Zm0-6H26V46h4Zm0-6H26V40h4Zm2,10.917v-2.58l6.164-4.994L39.5,48.829Zm0-5.154V40.495l4.824,5.359ZM57.79,27H49.5a.5.5,0,0,1-.5-.5A2.5,2.5,0,0,0,46.5,24h-9a1.5,1.5,0,0,1,0-3h8a2.5,2.5,0,0,0,0-5h-1a.5.5,0,0,1,0-1h5.619A27.072,27.072,0,0,1,57.79,27ZM21.817,10H29a1,1,0,0,1,0,2H17.877A26.933,26.933,0,0,1,21.817,10ZM11.044,18H18.5a.5.5,0,0,1,0,1h-1a2.5,2.5,0,0,0,0,5h8a1.5,1.5,0,0,1,0,3h-9A2.5,2.5,0,0,0,14,29.5a.5.5,0,0,1-.5.5H5.472A26.889,26.889,0,0,1,11.044,18ZM5.171,32H13.5A2.5,2.5,0,0,0,16,29.5a.5.5,0,0,1,.5-.5h9a3.5,3.5,0,0,0,0-7h-8a.5.5,0,0,1,0-1h1a2.5,2.5,0,0,0,0-5H12.838a27.305,27.305,0,0,1,2.218-2H29a2.994,2.994,0,0,0,.736-5.9C30.483,8.04,31.237,8,32,8a26.9,26.9,0,0,1,7.261,1H36v2h8.345a27.036,27.036,0,0,1,3.278,2H44.5a2.5,2.5,0,0,0,0,5h1a.5.5,0,0,1,0,1h-8a3.5,3.5,0,0,0,0,7h9a.5.5,0,0,1,.5.5A2.5,2.5,0,0,0,49.5,29h8.82c.15.659.281,1.324.382,2H54v2h4.918c.049.661.082,1.327.082,2H56.208v2H59v7H43.445l-1.8-2H46V40H40v.172l-5.257-5.841A1,1,0,0,0,34,34H5.025C5.05,33.327,5.1,32.66,5.171,32ZM5,38V36H33.555l8.7,9.669A1,1,0,0,0,43,46H59v2H41.445l-8.7-9.669A1,1,0,0,0,32,38H5Z"/><path d="M48.574,33.628l3.5,8.743,1.858-.742-3.5-8.744A2.986,2.986,0,0,0,47.646,31H38v2h9.646A1,1,0,0,1,48.574,33.628Z"/><rect x="24" y="16" width="3" height="2"/><rect x="41" y="36" width="2" height="2"/><rect x="30" y="30" width="4" height="2"/><rect x="35" y="15" width="4" height="2"/><rect x="30" y="19" width="2" height="2"/></g></svg>