<?xml version="1.0" encoding="UTF-8" standalone="no"?> <svg width="512" height="512" viewBox="0 0 512 512" fill="none" xmlns="http://www.w3.org/2000/svg">
<g clip-path="url(#clip0_28:261)">
<path d="M330.667 437.333C230.677 437.333 149.333 355.99 149.333 256C149.333 156.01 230.677 74.667 330.667 74.667C430.657 74.667 512 156.01 512 256C512 355.99 430.656 437.333 330.667 437.333ZM330.667 117.333C254.208 117.333 192 179.536 192 256C192 332.464 254.208 394.667 330.667 394.667C407.126 394.667 469.333 332.464 469.333 256C469.333 179.536 407.125 117.333 330.667 117.333V117.333Z" fill="black"/>
<path d="M394.667 277.333H330.667C325.009 277.333 319.583 275.085 315.582 271.085C311.581 267.084 309.333 261.658 309.333 256V160C309.372 154.367 311.636 148.978 315.633 145.009C319.629 141.04 325.034 138.812 330.667 138.812C336.299 138.812 341.704 141.04 345.7 145.009C349.697 148.978 351.961 154.367 352 160V234.667H394.667C397.468 234.667 400.243 235.219 402.831 236.291C405.419 237.363 407.771 238.934 409.752 240.915C411.733 242.896 413.304 245.248 414.376 247.836C415.448 250.424 416 253.198 416 256C416 258.801 415.448 261.576 414.376 264.164C413.304 266.752 411.733 269.104 409.752 271.085C407.771 273.066 405.419 274.637 402.831 275.709C400.243 276.781 397.468 277.333 394.667 277.333Z" fill="black"/>
<path d="M117.333 192H42.6671C39.8532 192.019 37.0634 191.482 34.4582 190.418C31.8529 189.355 29.4839 187.786 27.4873 185.803C25.4908 183.821 23.9063 181.462 22.825 178.864C21.7437 176.267 21.187 173.48 21.187 170.667C21.187 167.853 21.7437 165.067 22.825 162.469C23.9063 159.871 25.4908 157.512 27.4873 155.53C29.4839 153.547 31.8529 151.978 34.4582 150.915C37.0634 149.851 39.8532 149.314 42.6671 149.333H117.333C120.147 149.314 122.937 149.851 125.542 150.915C128.147 151.978 130.516 153.547 132.513 155.53C134.509 157.512 136.094 159.871 137.175 162.469C138.256 165.067 138.813 167.853 138.813 170.667C138.813 173.48 138.256 176.267 137.175 178.864C136.094 181.462 134.509 183.821 132.513 185.803C130.516 187.786 128.147 189.355 125.542 190.418C122.937 191.482 120.147 192.019 117.333 192V192Z" fill="black"/>
<path d="M106.667 277.333H21.333C15.6751 277.333 10.249 275.085 6.24829 271.085C2.24758 267.084 0 261.658 0 256C0 250.342 2.24758 244.916 6.24829 240.915C10.249 236.915 15.6751 234.667 21.333 234.667H106.667C112.325 234.667 117.751 236.915 121.752 240.915C125.752 244.916 128 250.342 128 256C128 261.658 125.752 267.084 121.752 271.085C117.751 275.085 112.325 277.333 106.667 277.333V277.333Z" fill="black"/>
<path d="M117.333 362.667H74.6671C71.8532 362.686 69.0634 362.149 66.4582 361.085C63.8529 360.022 61.4839 358.453 59.4873 356.47C57.4908 354.488 55.9063 352.129 54.825 349.531C53.7437 346.934 53.187 344.147 53.187 341.334C53.187 338.52 53.7437 335.733 54.825 333.136C55.9063 330.538 57.4908 328.179 59.4873 326.197C61.4839 324.214 63.8529 322.645 66.4582 321.582C69.0634 320.518 71.8532 319.981 74.6671 320H117.333C120.147 319.981 122.937 320.518 125.542 321.582C128.147 322.645 130.516 324.214 132.513 326.197C134.509 328.179 136.094 330.538 137.175 333.136C138.256 335.733 138.813 338.52 138.813 341.334C138.813 344.147 138.256 346.934 137.175 349.531C136.094 352.129 134.509 354.488 132.513 356.47C130.516 358.453 128.147 360.022 125.542 361.085C122.937 362.149 120.147 362.686 117.333 362.667V362.667Z" fill="black"/>
</g>
<defs>
<clipPath id="clip0_28:261">
<rect width="512" height="512" fill="white"/>
</clipPath>
</defs>
</svg>
