<?xml version="1.0" encoding="utf-8"?>
<!-- Generator: Adobe Illustrator 26.5.0, SVG Export Plug-In . SVG Version: 6.00 Build 0)  -->
<svg version="1.1" id="Layer_1" xmlns="http://www.w3.org/2000/svg" xmlns:xlink="http://www.w3.org/1999/xlink" x="0px" y="0px"
	 viewBox="0 0 284.7128 296.5478" enable-background="new 0 0 284.7128 296.5478" xml:space="preserve">
<g>
	<path d="M169.6747,72.5082c9.6774,8.1309,19.1824,0.8328,14.9474,0.9326c-3.4102,0.0803-7.416-1.469-8.8854-9.3397l-4.1899,1.5372
		C170.937,67.8007,170.3024,70.1141,169.6747,72.5082z"/>
	<path d="M166.1432,32.3855c-0.4586,3.8481-1.833,7.4191-3.9075,10.4816c0.4034,2.1132,0.5284,4.5868,0.6075,7.2175l11.9182-4.3726
		C173.5117,38.6677,170.0981,34.6872,166.1432,32.3855z"/>
	<polygon points="151.8834,66.2807 152.7366,54.7789 132.3019,57.7904 133.1525,69.2561 142.5179,99.0727 	"/>
	<path d="M129.2853,196.5264l5.2391-50.3257l0.2428-2.3324c3.6646-0.3647,6.7088-1.0633,7.7488-1.0633
		c1.0391,0,4.0786,0.6973,7.7385,1.0623l0.2428,2.3324l5.2016,49.9664c4.4554-5.8434,11.2795-9.7818,19.0278-10.3788
		l-4.9385-47.4391l-1.2896-12.3866c-0.0748-0.7194-0.2281-1.4109-0.4437-2.0718c-1.4122-8.5997-4.5786-12.8427-5.4904-22.6201
		c-0.7404-7.9467,3.6906-25.4648,7.0849-37.3853l34.4512-12.6393c1.418-0.5205,2.6113-1.519,3.374-2.8237L230.043,9.7794
		c1.8096-3.1001,0.7646-7.0806-2.335-8.8911c-3.1025-1.8105-7.0811-0.7651-8.8916,2.3345l-21.3887,36.6235L160.55,53.3757
		l0.89,13.0961h-5.5428l3.6315,9.4739l-17.0107,28.0964l-17.0108-28.0964l3.6315-6.4985h-5.5428l0.8713-10.5022l-4.9547,0.7302
		l-3.2399,1.7264c-1.5768,0.7402-3.6813,1.8663-6.5392,3.5707c-4.7492,2.8323-11.5768,7.2606-21.5724,14.212L63.7018,57.676
		c-1.6717-1.4709-3.8865-1.926-5.8933-1.4178L43.1512,6.2087c-0.178-0.608-0.8154-0.9566-1.4234-0.7786
		c-0.608,0.1781-0.9566,0.8154-0.7786,1.4234l14.7519,50.3722c-0.4214,0.2937-0.8179,0.6356-1.1721,1.0386
		c-2.3711,2.6958-2.1074,6.8027,0.5888,9.1733l4.8136,4.2331l4.0192,13.7239c0.178,0.608,0.8153,0.9566,1.4234,0.7786
		c0.608-0.1781,0.9566-0.8154,0.7785-1.4234l-3.001-10.2473l20.2593,17.816c1.2207,1.0742,2.7539,1.6191,4.293,1.6191
		c1.3037,0,2.6123-0.3911,3.7393-1.1841c7.9033-5.5602,16.9876-11.6617,23.3859-15.6548c0.6967-0.4348,1.3651-0.8474,1.9931-1.2288
		c3.0734,8.1146,6.2844,18.5433,5.6456,25.3997c-0.9102,9.7606-4.0679,14.0045-5.4837,22.5746
		c-0.2239,0.6748-0.3842,1.3811-0.4608,2.1172l-1.2875,12.368l-4.9429,47.4811
		C118.0728,186.5004,124.8956,190.5628,129.2853,196.5264z"/>
	<circle cx="142.5179" cy="29.5533" r="21.5"/>
	<circle cx="39.0908" cy="212.2001" r="22.5"/>
	<path d="M225.4872,240.4423c-1.7021,0.0518-3.4014,0.6357-4.8213,1.7979c-1.499,1.2275-5.9414,5.7383-9.4658,18.1172
		c-3.5244-12.3789-7.9658-16.8897-9.4648-18.1172c-1.4199-1.1621-3.1191-1.7461-4.8213-1.7979
		c-0.2695-0.0283-0.542-0.0439-0.8184-0.0439h-38.6347c-0.2754,0-0.5488,0.0156-0.8174,0.0439
		c-1.7021,0.0518-3.4014,0.6357-4.8213,1.7979c-1.5,1.2275-5.9414,5.7383-9.4658,18.1172
		c-3.5244-12.3789-7.9658-16.8897-9.4658-18.1172c-1.4199-1.1621-3.1191-1.7461-4.8213-1.7979
		c-0.2695-0.0283-0.542-0.0439-0.8184-0.0439H88.6162c-0.2754,0-0.5488,0.0156-0.8174,0.0439
		c-1.7021,0.0518-3.4014,0.6357-4.8213,1.7979c-1.499,1.2275-5.9414,5.7383-9.4648,18.1172
		c-3.5244-12.3789-7.9668-16.8897-9.4658-18.1172c-1.4199-1.1621-3.1191-1.7461-4.8213-1.7979
		c-0.2695-0.0283-0.542-0.0439-0.8184-0.0439H19.7725c-0.2754,0-0.5488,0.0156-0.8174,0.0439
		c-1.7021,0.0518-3.4014,0.6357-4.8213,1.7979C11.6436,244.2792,1.0371,255.3759,0,296.5478h284.7128
		c-1.0371-41.1719-11.6436-52.2686-14.1338-54.3076c-1.4199-1.1621-3.1191-1.7461-4.8213-1.7979
		c-0.2695-0.0283-0.542-0.0439-0.8184-0.0439h-38.6348C226.0292,240.3983,225.7558,240.414,225.4872,240.4423z"/>
	<circle cx="107.9346" cy="212.2001" r="22.5"/>
	<ellipse transform="matrix(0.3827 -0.9239 0.9239 0.3827 -86.9185 294.3174)" cx="176.7793" cy="212.2001" rx="22.5" ry="22.5"/>
	<circle cx="245.623" cy="212.2001" r="22.5"/>
</g>
</svg>
