<?xml version="1.0" encoding="UTF-8" standalone="no"?> <svg id="Layer_1" data-name="Layer 1" xmlns="http://www.w3.org/2000/svg" viewBox="0 0 100 100"><polygon points="38.42 27.385 38.42 32.875 50 32.875 61.58 32.875 61.58 27.385 50 27.385 38.42 27.385"/><path d="M23.448,47.076l.018,0,2.813-.866a.241.241,0,0,0,.156-.3l-.418-1.354a.226.226,0,0,0-.114-.136.213.213,0,0,0-.1-.026.247.247,0,0,0-.07.01l-2.837.872h0L11.8,48.684l-.017,0-2.825.868a.224.224,0,0,0-.133.113.215.215,0,0,0-.015.172l.415,1.378a.244.244,0,0,0,.293.149L20.14,48.1Z"/><path d="M50,6.5A17.9,17.9,0,0,0,32.122,24.378V42.489l10.1,10.1H57.776l10.1-10.1V24.378A17.9,17.9,0,0,0,50,6.5ZM64.58,25.885v8.49a1.5,1.5,0,0,1-1.5,1.5H36.92a1.5,1.5,0,0,1-1.5-1.5v-8.49a1.5,1.5,0,0,1,1.5-1.5H63.08A1.5,1.5,0,0,1,64.58,25.885Z"/><polygon points="24.98 57.17 22.897 50.386 22.057 50.645 14.674 52.922 15.979 57.17 24.98 57.17"/><path d="M47.971,93.5,26.854,61.129a4.628,4.628,0,0,1-.463-.959H14.771L6.85,68.091V93.5H18.787V79.175a1.5,1.5,0,0,1,3,0V93.5Z"/><polygon points="55.13 93.5 52.328 89.205 52.324 89.199 48.975 84.065 33.388 60.17 29.809 60.17 51.553 93.5 55.13 93.5"/><path d="M59.458,55.151a1.5,1.5,0,0,1-1.061.44H41.6a1.5,1.5,0,0,1-1.061-.44L39.25,53.859V58.67a1.5,1.5,0,0,1-1.5,1.5h-.78L50,80.145,63.03,60.17h-.78a1.5,1.5,0,0,1-1.5-1.5V53.859Z"/><rect x="9.599" y="27.063" width="8.602" height="17.433" transform="translate(-9.908 5.67) rotate(-17.104)"/><path d="M73.609,60.17a4.6,4.6,0,0,1-.459.954L55.372,88.379l2.714,4.161a4.562,4.562,0,0,1,.463.96H78.213V79.175a1.5,1.5,0,1,1,3,0V93.5H93.15V68.091L85.229,60.17Z"/><polygon points="51.791 82.89 53.581 85.633 70.19 60.17 66.612 60.17 51.791 82.89"/></svg>