<?xml version="1.0" encoding="UTF-8" standalone="no"?> <svg width="100" height="100" viewBox="0 0 100 100" fill="none" xmlns="http://www.w3.org/2000/svg">
<path d="M81.384 86.7478H75.629C75.152 82.9388 73.509 72.0528 69.695 65.5438C65.86 58.9928 59.7 53.0189 57.055 50.6049C59.682 48.1139 65.855 41.9259 69.695 35.3659C73.546 28.7929 75.185 17.7519 75.644 14.0479H81.385C82.213 14.0479 82.885 13.3759 82.885 12.5479C82.885 11.7189 82.213 11.0479 81.385 11.0479H17.579C16.751 11.0479 16.079 11.7189 16.079 12.5479C16.079 13.3759 16.751 14.0479 17.579 14.0479H23.324C23.783 17.7529 25.418 28.7939 29.268 35.3659C33.115 41.9359 39.04 48.1349 41.527 50.6059C39.023 53.0009 33.11 58.9848 29.269 65.5438C25.455 72.0528 23.816 82.9399 23.339 86.7489H17.58C16.752 86.7489 16.08 87.4209 16.08 88.2489C16.08 89.0779 16.752 89.7489 17.58 89.7489H24.676C24.677 89.7489 24.678 89.7489 24.678 89.7489C24.678 89.7489 24.678 89.7489 24.679 89.7489H81.385C82.213 89.7489 82.885 89.0779 82.885 88.2489C82.884 87.4199 82.212 86.7478 81.384 86.7478ZM31.856 67.0598C36.49 59.1488 44.621 51.8179 44.703 51.7449C45.016 51.4639 45.197 51.0649 45.202 50.6439C45.207 50.2229 45.034 49.8199 44.727 49.5329C44.645 49.4559 36.505 41.7899 31.856 33.8489C28.445 28.0259 26.854 17.8849 26.352 14.0469H72.616C72.114 17.8829 70.522 28.0199 67.106 33.8489C62.475 41.7619 53.911 49.4299 53.825 49.5059C53.501 49.7949 53.317 50.2099 53.322 50.6429C53.327 51.0769 53.519 51.4879 53.85 51.7689C53.935 51.8419 62.484 59.1648 67.107 67.0588C70.485 72.8258 72.081 82.8259 72.6 86.7469H26.366C26.883 82.8289 28.474 72.8328 31.856 67.0598Z" fill="#231F20" stroke="black" stroke-width="2.2"/>
<path d="M50.982 68.5309V45.4989L64.709 30.1059C65.103 29.6649 65.2 29.0339 64.959 28.4939C64.717 27.9539 64.181 27.6069 63.59 27.6069H35.375C34.784 27.6069 34.248 27.9539 34.006 28.4939C33.765 29.0339 33.862 29.6639 34.256 30.1059L47.983 45.4989V68.5309L34.173 79.2979C33.667 79.6919 33.468 80.3619 33.676 80.9679C33.885 81.5729 34.454 81.9799 35.095 81.9799H63.87C64.511 81.9799 65.08 81.5729 65.289 80.9679C65.497 80.3619 65.298 79.6909 64.792 79.2979L50.982 68.5309ZM60.241 30.6079L49.481 42.6739L38.721 30.6079H60.241V30.6079ZM39.457 78.9809L49.481 71.1659L59.505 78.9809H39.457Z" fill="#231F20" stroke="black" stroke-width="2.2"/>
</svg>
