<svg width="163" height="159" viewBox="0 0 163 159" fill="none" xmlns="http://www.w3.org/2000/svg">
<path d="M71.3333 75V158.333H54.6667V91.6667H38V75H71.3333ZM138 91.6667V141.667C138 150.917 130.583 158.333 121.333 158.333H104.667C100.246 158.333 96.0072 156.577 92.8816 153.452C89.756 150.326 88 146.087 88 141.667V91.6667C88 87.2464 89.756 83.0072 92.8816 79.8816C96.0072 76.7559 100.246 75 104.667 75H121.333C130.583 75 138 82.5 138 91.6667ZM104.667 91.6667V141.667H121.333V91.6667H104.667ZM83.8333 0C105.917 0 125.917 8.33333 141.333 21.6667L163 0V58.3333H104.667L126.5 36.5C114.917 26.8333 100.167 20.8333 83.8333 20.8333C54.3333 20.8333 29.25 40.0833 20.5 66.6667L0.75 60.1667C12.3333 25.25 45.0833 0 83.8333 0Z" fill="#FF1264"/>
</svg>
