<?xml version="1.0" encoding="utf-8"?>
<!-- Generator: Adobe Illustrator 23.0.1, SVG Export Plug-In . SVG Version: 6.00 Build 0)  -->
<svg version="1.1" xmlns="http://www.w3.org/2000/svg" xmlns:xlink="http://www.w3.org/1999/xlink" x="0px" y="0px"
	 viewBox="0 0 512 512" style="enable-background:new 0 0 512 512;" xml:space="preserve">
<style type="text/css">
	.st0{fill:none;}
	.st1{fill:#064554;}
	.st2{display:none;}
	.st3{display:inline;}
	.st4{display:inline;fill:none;stroke:#010101;stroke-width:16;stroke-linejoin:round;stroke-miterlimit:10;}
	.st5{fill:none;stroke:#010101;stroke-width:16;stroke-linejoin:round;stroke-miterlimit:10;}
	.st6{display:inline;fill:none;stroke:#010101;stroke-width:16;stroke-miterlimit:10;}
	.st7{display:inline;fill:none;stroke:#010101;stroke-width:16;stroke-linecap:round;stroke-linejoin:round;stroke-miterlimit:10;}
	.st8{display:inline;fill:url(#New_Pattern_Swatch_1);}
	.st9{display:inline;fill:#00807C;}
	.st10{fill:url(#New_Pattern_Swatch_1);}
	.st11{display:inline;fill:#043C54;}
	.st12{display:inline;fill:#82D1DF;}
	.st13{display:inline;fill:#064249;}
	.st14{display:inline;fill:#ECC19C;}
	.st15{fill:#00807C;}
	.st16{display:inline;fill:#03AAA5;}
	.st17{display:inline;fill:#03AFA6;}
	.st18{display:inline;fill:#9B8579;}
	.st19{display:inline;fill:#594A42;}
	.st20{display:inline;fill:#DFB28B;}
	.st21{display:inline;fill:#09B9AD;}
	.st22{fill:#03827C;}
	.st23{display:inline;fill:#F5E0CD;}
	.st24{display:inline;fill:#F8B0B9;}
	.st25{fill:#F26D86;}
	.st26{display:inline;fill:#003B49;}
	.st27{display:inline;fill:#01303D;}
	.st28{display:inline;fill:#F0D0B4;}
	.st29{fill:#D1D3D4;}
	.st30{display:inline;fill:#F7941D;}
	.st31{fill:#2273A9;}
	.st32{display:inline;fill:#033242;}
	.st33{display:inline;fill:#D8B491;}
	.st34{display:inline;fill:#CF9E76;}
	.st35{display:inline;fill:#0E758F;}
	.st36{display:inline;fill:#9BD9E6;}
	.st37{display:inline;fill:#CDA349;}
	.st38{display:inline;fill:#0F6A7A;}
	.st39{fill:#939598;}
	.st40{display:inline;fill:#FBCC34;}
	.st41{display:inline;fill:#D1D3D4;}
	.st42{display:inline;fill:#F1F2F2;}
	.st43{fill:#BCBEC0;}
	.st44{display:inline;fill:#0D555C;}
	.st45{display:inline;fill:#039791;}
	.st46{display:inline;fill:#9DDBED;}
	.st47{display:inline;fill:#EF4136;}
	.st48{display:inline;fill:#0C5F6D;}
	.st49{display:inline;fill:#072830;}
	.st50{display:inline;fill:#BE1E2D;}
	.st51{display:inline;fill:#991C32;}
	.st52{fill:#033242;}
	.st53{display:inline;fill:#2273A9;}
	.st54{display:inline;fill:#009444;}
	.st55{display:inline;fill:#B4E2EC;}
	.st56{display:inline;fill:#58C6D4;}
	.st57{fill:#0E758F;}
	.st58{display:inline;fill:#FBB040;}
	.st59{display:inline;fill:#064554;}
	.st60{display:inline;fill:#064156;}
	.st61{display:inline;fill:#07222A;}
	.st62{fill:#82D1DF;}
	.st63{display:inline;fill:#CEA28B;}
	.st64{fill:#B08874;}
	.st65{fill:#03AAA5;}
	.st66{fill:#043C54;}
	.st67{fill:#58C6D4;}
	.st68{fill:url(#);}
	.st69{display:inline;fill:#0B84A5;}
	.st70{fill:#F15A29;}
	.st71{fill:#FFF200;}
	.st72{display:inline;fill:#066A7F;}
	.st73{display:inline;fill:#7D266C;}
	.st74{fill:#EF4136;}
	.st75{display:inline;fill:#414042;}
	.st76{display:inline;fill:#FFFFFF;}
	.st77{fill:#039791;}
	.st78{display:inline;fill:#043844;}
	.st79{display:inline;fill:#11626B;}
	.st80{display:inline;fill:#0B4A5B;}
	.st81{fill:#ED1C24;}
	.st82{fill:#0D3E49;}
	.st83{fill:#1293A8;}
	.st84{display:inline;fill:#FFF200;}
	.st85{display:inline;fill:#39B54A;}
	.st86{display:inline;fill:#E6E7E8;}
	.st87{display:inline;fill:#D764A6;}
	.st88{display:inline;fill:url(#);}
	.st89{display:inline;fill:#A6DDE4;}
	.st90{fill:#07222A;}
	.st91{fill:#754C29;}
	.st92{display:inline;fill:#BCBEC0;}
	.st93{fill:#ECC19C;}
	.st94{display:inline;fill:#055C60;}
	.st95{fill:#008780;}
	.st96{display:inline;fill:#E2C675;}
	.st97{display:inline;fill:#0D3E49;}
	.st98{fill:#AF2035;}
	.st99{fill:#0F6A7A;}
	.st100{display:inline;fill:#3C2415;}
	.st101{fill:#6D6E71;}
	.st102{display:inline;fill:#F15A29;}
	.st103{fill:#F4E09C;}
	.st104{display:inline;fill:#603913;}
	.st105{display:inline;fill:none;}
	.st106{display:inline;fill:#A8DEE9;}
	.st107{fill:#9BD9E6;}
	.st108{display:inline;fill:#34BDBC;}
	.st109{display:inline;fill:#4CC4CD;}
	.st110{display:inline;fill:#F4E09C;}
	.st111{display:inline;fill:#754C29;}
	.st112{display:inline;fill:#8B5E3C;}
	.st113{display:inline;fill:#7EA34E;}
	.st114{display:inline;fill:none;stroke:#BE1E2D;stroke-width:16;stroke-miterlimit:10;}
	.st115{fill:#BE1E2D;}
	.st116{fill:#CF9E76;}
	.st117{display:inline;fill:#F9ED32;}
	.st118{display:inline;fill:#034C5E;}
	.st119{display:inline;fill:#B2E1ED;}
	.st120{display:inline;fill:#58595B;}
	.st121{fill:#F1F2F2;}
	.st122{display:inline;fill:#046762;}
	.st123{fill:#F7941D;}
	.st124{display:inline;fill:#6D6E71;}
</style>
<pattern  x="-768" y="-768" width="48" height="48" patternUnits="userSpaceOnUse" id="New_Pattern_Swatch_1" viewBox="0 -48 48 48" style="overflow:visible;">
	<g>
		<rect y="-48" class="st0" width="48" height="48"/>
		<rect y="-48" class="st1" width="48" height="48"/>
	</g>
</pattern>
<g id="Layer_1">
</g>
<g id="Layer_2">
</g>
<g id="Orijinal" class="st2">
	<rect x="152" y="64" class="st4" width="336" height="240"/>
	<circle class="st4" cx="240" cy="152" r="56"/>
	<path class="st4" d="M240,96.1V152h55.9v0C295.9,121.13,270.87,96.1,240,96.1L240,96.1z"/>
	<line class="st4" x1="240.46" y1="151.78" x2="288.37" y2="191.71"/>
	<line class="st4" x1="456" y1="280" x2="456" y2="160"/>
	<line class="st4" x1="424" y1="280" x2="424" y2="200"/>
	<line class="st4" x1="392" y1="280" x2="392" y2="192"/>
	<line class="st4" x1="360" y1="280" x2="360" y2="232"/>
	<polyline class="st4" points="320.31,223.65 360.24,199.69 392.18,143.79 424.12,167.75 456.06,103.87 	"/>
	<line class="st4" x1="176" y1="272" x2="264" y2="272"/>
	<line class="st4" x1="176" y1="240" x2="224" y2="240"/>
	<rect x="152" y="32" class="st4" width="336" height="32"/>
	<path class="st4" d="M205.01,163.98L184.98,184h-112l-20-20c-6.63-6.63-17.37-6.63-24,0l0,0c-6.63,6.63-6.63,17.37,0,24
		l18.64,18.64c5.99,5.99,14.11,9.36,22.59,9.36H96v80h64v-80h27.75c8.47,0,16.6-3.37,22.59-9.36l18.67-18.67
		c6.62-6.62,6.62-17.34,0-23.96l-0.04-0.04C222.35,157.36,211.62,157.36,205.01,163.98z"/>
	<path class="st4" d="M112,440L112,440c-8.84,0-16-7.16-16-16V296h32v128C128,432.84,120.84,440,112,440z"/>
	<path class="st4" d="M144,440L144,440c-8.84,0-16-7.16-16-16V296h32v128C160,432.84,152.84,440,144,440z"/>
	<line class="st4" x1="129" y1="184" x2="129" y2="264"/>
	<path class="st4" d="M264,480H153v-32c0-8.84,7.16-16,16-16h79c8.84,0,16,7.16,16,16V480z"/>
	<path class="st4" d="M376,480H264v-32c0-8.84,7.16-16,16-16h80c8.84,0,16,7.16,16,16V480z"/>
	<path class="st4" d="M249,432h-80v0c0-17.67,14.33-32,32-32h16C234.67,400,249,414.33,249,432L249,432z"/>
	<path class="st4" d="M360,432h-80v0c0-17.67,14.33-32,32-32h16C345.67,400,360,414.33,360,432L360,432z"/>
	<path class="st4" d="M488,480H376v-32c0-8.84,7.16-16,16-16h80c8.84,0,16,7.16,16,16V480z"/>
	<path class="st4" d="M472,432h-80v0c0-17.67,14.33-32,32-32h16C457.67,400,472,414.33,472,432L472,432z"/>
	<path class="st4" d="M176,96h-64c-8.84,0-16,7.16-16,16v16h64c8.84,0,16-7.16,16-16V96z"/>
	<path class="st4" d="M128,184L128,184c-17.67,0-32-14.33-32-32v-24h64v24C160,169.67,145.67,184,128,184z"/>
	<path class="st4" d="M192,312c-8.84,0-16,7.16-16,16v16v24c0,17.67,14.33,32,32,32h0c17.67,0,32-14.33,32-32v-24
		c8.84,0,16-7.16,16-16v-16H192z"/>
	<path class="st4" d="M320,312L320,312c-17.67,0-32,14.33-32,32v24c0,17.67,14.33,32,32,32h0c17.67,0,32-14.33,32-32v-24
		C352,326.33,337.67,312,320,312z"/>
	<path class="st4" d="M448,312h-32c-8.84,0-16,7.16-16,16v40c0,17.67,14.33,32,32,32h0c17.67,0,32-14.33,32-32v-40
		C464,319.16,456.84,312,448,312z"/>
</g>
<g id="Flat" class="st2">
	<rect x="240" y="448" class="st51" width="160" height="32"/>
	<rect x="152" y="64" class="st12" width="336" height="240"/>
	<path class="st53" d="M295.99,151.78C295.87,120.95,270.85,96,240,96c-30.93,0-56,25.07-56,56c0,30.93,25.07,56,56,56
		c17.46,0,33.04-7.99,43.31-20.51l-42.86-35.71H295.99z"/>
	<path class="st54" d="M240,96.1V152h55.9v0C295.9,121.13,270.87,96.1,240,96.1L240,96.1z"/>
	<g class="st3">
		<rect x="176" y="264" class="st31" width="88" height="16"/>
	</g>
	<g class="st3">
		<rect x="176" y="232" class="st31" width="48" height="16"/>
	</g>
	<path class="st28" d="M204,164l-20,20H72l-20-20c-6.63-6.63-17.37-6.63-24,0l0,0c-6.63,6.63-6.63,17.37,0,24l18.92,18.92
		c5.81,5.81,13.7,9.08,21.92,9.08H96v80h64v-80h27.16c8.22,0,16.11-3.27,21.92-9.08L228,188c6.63-6.63,6.63-17.37,0-24l0,0
		C221.37,157.37,210.63,157.37,204,164z"/>
	<path class="st55" d="M72,184l-12-12l-24,24l10.92,10.92c5.81,5.81,13.7,9.08,21.92,9.08H96v80h64v-80h27.16
		c8.22,0,16.11-3.27,21.92-9.08L216,200l-24-24l-8,8H72z"/>
	<path class="st73" d="M295.99,151.78h-55.54l42.86,35.71C291.24,177.83,296,165.47,296,152C296,151.93,295.99,151.85,295.99,151.78
		z"/>
	<g class="st3">
		<rect x="448" y="160" class="st15" width="16" height="120"/>
	</g>
	<g class="st3">
		<rect x="416" y="200" class="st15" width="16" height="80"/>
	</g>
	<g class="st3">
		<rect x="384" y="192" class="st15" width="16" height="88"/>
	</g>
	<g class="st3">
		<rect x="352" y="232" class="st15" width="16" height="48"/>
	</g>
	<g class="st3">
		<path class="st74" d="M324.42,230.51l-8.23-13.72l38.13-22.88l30.9-54.08c1.14-1.99,3.08-3.4,5.32-3.86
			c2.25-0.46,4.59,0.06,6.42,1.43l24.27,18.2l27.65-55.31l14.31,7.16l-31.94,63.88c-1.06,2.12-3.01,3.66-5.32,4.21
			c-2.31,0.54-4.74,0.04-6.64-1.39l-24.69-18.52l-27.44,48.03c-0.68,1.19-1.65,2.19-2.83,2.89L324.42,230.51z"/>
	</g>
	<rect x="152" y="32" class="st8" width="336" height="32"/>
	<path class="st28" d="M112,440L112,440c-8.84,0-16-7.16-16-16V296h32v128C128,432.84,120.84,440,112,440z"/>
	<path class="st28" d="M144,440L144,440c-8.84,0-16-7.16-16-16V296h32v128C160,432.84,152.84,440,144,440z"/>
	<path class="st75" d="M112,440L112,440c-8.84,0-16-7.16-16-16v-16h32v16C128,432.84,120.84,440,112,440z"/>
	<path class="st75" d="M144,440L144,440c-8.84,0-16-7.16-16-16v-16h32v16C160,432.84,152.84,440,144,440z"/>
	<g class="st3">
		<rect x="120" y="184" class="st66" width="16" height="80"/>
	</g>
	<path class="st50" d="M264,480H153v-32c0-8.84,7.16-16,16-16h79c8.84,0,16,7.16,16,16V480z"/>
	<path class="st51" d="M376,480H264v-32c0-8.84,7.16-16,16-16h80c8.84,0,16,7.16,16,16V480z"/>
	<path class="st12" d="M248,432h-80v0c0-17.67,14.33-32,32-32h16C233.67,400,248,414.33,248,432L248,432z"/>
	<path class="st12" d="M360,432h-80v0c0-17.67,14.33-32,32-32h16C345.67,400,360,414.33,360,432L360,432z"/>
	<path class="st50" d="M488,480H376v-32c0-8.84,7.16-16,16-16h80c8.84,0,16,7.16,16,16V480z"/>
	<path class="st8" d="M472,432h-80v0c0-17.67,14.33-32,32-32h16C457.67,400,472,414.33,472,432L472,432z"/>
	<path class="st111" d="M192,312c-8.84,0-16,7.16-16,16v16v24c0,17.67,14.33,32,32,32h0c17.67,0,32-14.33,32-32v-24
		c8.84,0,16-7.16,16-16v-16H192z"/>
	<path class="st100" d="M448,312h-32c-8.84,0-16,7.16-16,16v16v24c0,17.67,14.33,32,32,32l0,0c17.67,0,32-14.33,32-32v-24v-16
		C464,319.16,456.84,312,448,312z"/>
	<path class="st100" d="M320,312L320,312c-17.67,0-32,14.33-32,32v0v24c0,17.67,14.33,32,32,32l0,0c17.67,0,32-14.33,32-32v-24v0
		C352,326.33,337.67,312,320,312z"/>
	<path class="st112" d="M176,96h-64c-8.84,0-16,7.16-16,16v16h64c8.84,0,16-7.16,16-16V96z"/>
	<path class="st28" d="M96,128v24c0,17.67,14.33,32,32,32h0c17.67,0,32-14.33,32-32v-24H96z"/>
	<rect x="96" y="296" class="st11" width="64" height="120"/>
	<g class="st3">
		<rect x="120" y="323.69" class="st52" width="16" height="92.31"/>
	</g>
</g>
<g id="outline">
	<g>
		<rect x="448" y="160" width="16" height="120"/>
		<rect x="416" y="200" width="16" height="80"/>
		<rect x="384" y="192" width="16" height="88"/>
		<rect x="352" y="232" width="16" height="48"/>
		<path d="M364.35,206.55c1.18-0.71,2.15-1.7,2.83-2.89l27.44-48.03l24.69,18.52c1.9,1.42,4.33,1.93,6.64,1.39
			c2.31-0.54,4.26-2.09,5.32-4.21l31.94-63.88l-14.31-7.16l-27.65,55.31l-24.27-18.2c-1.84-1.38-4.17-1.9-6.42-1.43
			c-2.25,0.46-4.19,1.87-5.32,3.86l-30.9,54.08l-38.13,22.88l8.23,13.72L364.35,206.55z"/>
		<rect x="176" y="264" width="88" height="16"/>
		<rect x="176" y="232" width="48" height="16"/>
		<path d="M41.97,212.3c7.54,7.54,17.57,11.7,28.24,11.7H88v72v128c0,13.23,10.77,24,24,24c6.14,0,11.75-2.32,16-6.13
			c4.25,3.81,9.86,6.13,16,6.13c0.34,0,0.67-0.02,1-0.04c0,0.01,0,0.03,0,0.04v32c0,4.42,3.58,8,8,8h111h112h112c4.42,0,8-3.58,8-8
			v-32c0-10.65-6.97-19.7-16.59-22.83c-2.09-12.09-9.61-22.33-19.96-28.11c7.72-7.3,12.56-17.62,12.56-29.06v-40
			c0-6.14-2.32-11.75-6.13-16H488c4.42,0,8-3.58,8-8V64V32c0-4.42-3.58-8-8-8H152c-4.42,0-8,3.58-8,8v32v24h-32
			c-13.23,0-24,10.77-24,24v16v24c0,9,2.99,17.31,8.02,24H76.3l-17.66-17.66c-4.72-4.72-10.99-7.31-17.66-7.31
			s-12.94,2.6-17.66,7.31s-7.31,10.99-7.31,17.66s2.6,12.94,7.31,17.66L41.97,212.3z M112,432c-4.41,0-8-3.59-8-8V304h16v120
			C120,428.41,116.41,432,112,432z M136,424V304h16v120c0,2.6-1.27,5.05-3.4,6.55c-1.35,0.95-2.94,1.45-4.6,1.45
			C139.59,432,136,428.41,136,424z M328,408c10.43,0,19.33,6.69,22.63,16h-61.26c3.3-9.31,12.2-16,22.63-16H328z M344,368
			c0,13.23-10.77,24-24,24s-24-10.77-24-24v-24c0-13.23,10.77-24,24-24s24,10.77,24,24V368z M280,344v24
			c0,11.44,4.83,21.76,12.56,29.06c-10.35,5.78-17.87,16.03-19.96,28.11c-3.21,1.05-6.13,2.75-8.59,4.96
			c-2.19-1.96-4.73-3.52-7.53-4.58c-2.04-12.5-9.88-23.07-20.66-28.84C243.32,389.44,248,379.26,248,368v-17.37
			c9.31-3.3,16-12.2,16-22.63v-16h32.03C286.3,319.3,280,330.93,280,344z M232,344v24c0,13.23-10.77,24-24,24s-24-10.77-24-24v-40
			c0-4.41,3.59-8,8-8h56v8c0,4.41-3.59,8-8,8C235.58,336,232,339.58,232,344z M180.93,397.42c-5.15,3-9.57,7.11-12.93,12.01V368
			C168,379.63,172.99,390.1,180.93,397.42z M201,408h16c10.43,0,19.33,6.69,22.63,16h-61.26C181.67,414.69,190.57,408,201,408z
			 M168,328v-16h6.13C170.32,316.25,168,321.86,168,328z M161,448c0-4.41,3.59-8,8-8h79c4.41,0,8,3.59,8,8v24h-95V448z M272,448
			c0-4.41,3.59-8,8-8h80c4.41,0,8,3.59,8,8v24h-96V448z M480,472h-96v-24c0-4.41,3.59-8,8-8h80c4.41,0,8,3.59,8,8V472z M440,408
			c10.43,0,19.33,6.69,22.63,16h-61.26c3.3-9.31,12.2-16,22.63-16H440z M408,368v-40c0-4.41,3.59-8,8-8h32c4.41,0,8,3.59,8,8v40
			c0,13.23-10.77,24-24,24S408,381.23,408,368z M404.56,397.06c-10.35,5.78-17.87,16.03-19.96,28.11c-3.21,1.05-6.13,2.75-8.59,4.96
			c-2.46-2.21-5.38-3.91-8.59-4.96c-2.09-12.09-9.61-22.33-19.96-28.11c7.72-7.3,12.56-17.62,12.56-29.06v-24
			c0-13.07-6.3-24.7-16.03-32h54.16c-3.81,4.25-6.13,9.86-6.13,16v40C392,379.44,396.83,389.76,404.56,397.06z M160,40h320v16H160
			V40z M160,72h320v224H168v-72h19.75c10.67,0,20.7-4.15,28.24-11.7l0.7-0.7c7.4,2.91,15.21,4.4,23.3,4.4c35.29,0,64-28.71,64-64
			s-28.71-64-64-64s-64,28.71-64,64c0,8.23,1.61,16.41,4.67,24H160v-0.03c5.02-6.69,8-14.99,8-23.97v-17.38
			c9.31-3.3,16-12.19,16-22.62V96c0-4.42-3.58-8-8-8h-16V72z M234.62,158.32c-9.72-9.72-25.55-9.72-35.27,0l-5.79,5.79
			c-1.02-3.94-1.56-8.01-1.56-12.11c0-23.74,17.33-43.5,40-47.32V152c0,2.49,1.14,4.72,2.93,6.19l0,0l36.58,29.97
			C263.08,195.52,252.05,200,240,200c-3.6,0-7.11-0.4-10.54-1.16l5.2-5.2c4.71-4.71,7.3-10.97,7.3-17.63
			S239.37,163.08,234.62,158.32z M281.66,175.79L262.39,160h24.93C286.37,165.66,284.42,170.98,281.66,175.79z M248,144v-39.32
			c20.07,3.38,35.94,19.25,39.32,39.32H248z M104,112c0-4.41,3.59-8,8-8h56v8c0,4.41-3.59,8-8,8h-56V112z M104,152v-16h48v16
			c0,13.23-10.77,24-24,24S104,165.23,104,152z M34.64,169.66c3.5-3.5,9.19-3.5,12.69,0l20,20c1.5,1.5,3.54,2.34,5.66,2.34H121v72
			h16v-72h47.98c2.12,0,4.16-0.84,5.66-2.34l20.02-20.02c3.49-3.49,9.16-3.49,12.69,0.04c3.49,3.49,3.49,9.16,0,12.64l-18.67,18.67
			c-4.52,4.52-10.53,7.01-16.93,7.01H160c-4.42,0-8,3.58-8,8v72h-24h-24v-72c0-4.42-3.58-8-8-8H70.21c-6.4,0-12.41-2.49-16.93-7.01
			l-18.64-18.64C31.14,178.85,31.14,173.15,34.64,169.66z"/>
	</g>
</g>
<g id="solid" class="st2">
	<g class="st3">
		<path d="M287.32,160h-24.93l19.27,15.79C284.42,170.98,286.37,165.66,287.32,160z"/>
		<path d="M239.63,424c-3.3-9.31-12.2-16-22.63-16h-16c-10.43,0-19.33,6.69-22.63,16H239.63z"/>
		<path d="M208,392c13.23,0,24-10.77,24-24v-24c0-4.42,3.58-8,8-8c4.41,0,8-3.59,8-8v-8h-56c-4.41,0-8,3.59-8,8v40
			C184,381.23,194.77,392,208,392z"/>
		<path d="M248,440h-79c-4.41,0-8,3.59-8,8v24h95v-24C256,443.59,252.41,440,248,440z"/>
		<path d="M204.68,200.99l18.67-18.67c3.49-3.49,3.49-9.16,0-12.64c-3.53-3.53-9.2-3.53-12.69-0.04l-20.02,20.02
			c-1.5,1.5-3.54,2.34-5.66,2.34H137v72h-16v-72H72.98c-2.12,0-4.16-0.84-5.66-2.34l-20-20c-3.5-3.5-9.19-3.5-12.69,0
			c-3.5,3.5-3.5,9.19,0,12.69l18.64,18.64c4.52,4.52,10.53,7.01,16.93,7.01H96c4.42,0,8,3.58,8,8v72h24h24v-72c0-4.42,3.58-8,8-8
			h27.75C194.15,208,200.16,205.51,204.68,200.99z"/>
		<path d="M128,176c13.23,0,24-10.77,24-24v-16h-48v16C104,165.23,114.77,176,128,176z"/>
		<path d="M168,112v-8h-56c-4.41,0-8,3.59-8,8v8h56C164.41,120,168,116.41,168,112z"/>
		<path d="M104,424c0,4.41,3.59,8,8,8s8-3.59,8-8V304h-16V424z"/>
		<path d="M192,152c0,4.1,0.54,8.17,1.56,12.11l5.79-5.79c9.72-9.72,25.55-9.72,35.27,0c4.75,4.75,7.35,11.02,7.35,17.68
			s-2.59,12.92-7.3,17.63l-5.2,5.2c3.43,0.77,6.94,1.16,10.54,1.16c12.05,0,23.08-4.48,31.51-11.84l-36.58-29.97l0,0
			c-1.79-1.47-2.93-3.69-2.93-6.19v-47.32C209.33,108.5,192,128.26,192,152z"/>
		<path d="M136,424c0,4.41,3.59,8,8,8c1.66,0,3.25-0.5,4.6-1.45c2.13-1.5,3.4-3.95,3.4-6.55V304h-16V424z"/>
		<rect x="160" y="40" width="320" height="16"/>
		<path d="M320,320c-13.23,0-24,10.77-24,24v24c0,13.23,10.77,24,24,24s24-10.77,24-24v-24C344,330.77,333.23,320,320,320z"/>
		<path d="M248,104.68V144h39.32C283.94,123.93,268.07,108.06,248,104.68z"/>
		<path d="M472,440h-80c-4.41,0-8,3.59-8,8v24h96v-24C480,443.59,476.41,440,472,440z"/>
		<path d="M456,368v-40c0-4.41-3.59-8-8-8h-32c-4.41,0-8,3.59-8,8v40c0,13.23,10.77,24,24,24S456,381.23,456,368z"/>
		<path d="M160,88h16c4.42,0,8,3.58,8,8v16c0,10.43-6.69,19.32-16,22.62V152c0,8.99-2.98,17.29-8,23.97V176h20.67
			c-3.06-7.59-4.67-15.77-4.67-24c0-35.29,28.71-64,64-64s64,28.71,64,64s-28.71,64-64,64c-8.09,0-15.9-1.49-23.3-4.4l-0.7,0.7
			c-7.54,7.54-17.57,11.7-28.24,11.7H168v72h312V72H160V88z M176,232h48v16h-48V232z M264,280h-88v-16h88V280z M368,280h-16v-48h16
			V280z M400,280h-16v-88h16V280z M432,280h-16v-80h16V280z M464,280h-16V160h16V280z M354.33,193.91l30.9-54.08
			c1.14-1.99,3.08-3.4,5.32-3.86c2.25-0.46,4.59,0.06,6.42,1.43l24.27,18.2l27.65-55.31l14.31,7.16l-31.94,63.88
			c-1.06,2.12-3.01,3.66-5.32,4.21c-2.31,0.54-4.74,0.04-6.64-1.39l-24.69-18.52l-27.44,48.03c-0.68,1.19-1.65,2.19-2.83,2.89
			l-39.93,23.96l-8.23-13.72L354.33,193.91z"/>
		<path d="M401.37,424h61.26c-3.3-9.31-12.2-16-22.63-16h-16C413.57,408,404.67,414.69,401.37,424z"/>
		<path d="M312,408c-10.43,0-19.33,6.69-22.63,16h61.26c-3.3-9.31-12.2-16-22.63-16H312z"/>
		<path d="M360,440h-80c-4.41,0-8,3.59-8,8v24h96v-24C368,443.59,364.41,440,360,440z"/>
	</g>
</g>
</svg>
