<?xml version="1.0" encoding="utf-8"?>
<!-- Generator: Adobe Illustrator 23.0.2, SVG Export Plug-In . SVG Version: 6.00 Build 0)  -->
<svg version="1.1" id="Layer_1" xmlns="http://www.w3.org/2000/svg" xmlns:xlink="http://www.w3.org/1999/xlink" x="0px" y="0px"
	 viewBox="0 0 209.1137 203.2151" enable-background="new 0 0 209.1137 203.2151" xml:space="preserve">
<g>
	<circle cx="84.197" cy="22.5" r="22.5"/>
	<path d="M50.892,136.2058c1.0385,0.335,2.1381,0.5273,3.2756,0.5781c1.9249,0.2257,3.8539,0.2775,5.7067,0.2538
		c1.6762-0.0211,3.1807-0.0723,4.5181-0.2254h29.4305l14.8813,57.0547c1.4663,5.6226,6.5352,9.3481,12.0869,9.3481
		c1.0439,0,2.1055-0.1318,3.1631-0.4077c6.6802-1.7422,10.6831-8.5698,8.9404-15.25l-17.3189-66.3999
		c-1.4355-5.5044-6.4067-9.3452-12.0952-9.3452h-31.777c0.0386-6.4716,0.774-13.09,1.7744-19.444L55.0078,71.9187
		c-1.8438-2.0415-2.7832-4.6792-2.6426-7.4272c0.1396-2.7476,1.3408-5.2764,3.3818-7.1201
		c1.8975-1.7129,4.3477-2.6563,6.9023-2.6563c2.9102,0,5.6963,1.2378,7.6455,3.396l25.5615,28.3013h29.6974l7.8793-1.9296
		c4.2915-1.0513,6.9185-5.3818,5.8677-9.6733s-5.3799-6.916-9.6733-5.8677l-32.0669,7.853L74.0123,50.2752
		c-0.3891-0.438-0.8174-0.8193-1.272-1.1512c-1.3181-1.1301-2.8424-1.9636-4.5652-2.3929
		c-8.5371-2.129-20.9121,2.5078-25.9473,17.1503c-6.8047,20.1739-8.2676,33.3047-5.6816,55.5196
		C38.6815,130.3898,44.4997,134.6464,50.892,136.2058z"/>
	<polygon points="119.1137,117.7955 172.7803,117.7955 172.7803,192.1288 137.6137,192.1288 137.6137,200.7955 209.1137,200.7955 
		209.1137,192.1288 188.2803,192.1288 188.2803,117.7955 209.1137,117.7955 209.1137,109.1288 119.1137,109.1288 	"/>
	<path d="M21.2312,146.9364c1.9556,4.2899,12.3113,7.7261,25.6608,8.606v1.77h4.2502v21.0536l-29.25,8.9995v3.6837
		c-1.8742,0.9243-3.1668,2.8486-3.1668,5.0797c0,3.1296,2.537,5.6667,5.6666,5.6667c3.1296,0,5.6667-2.5371,5.6667-5.6667
		c0-2.2262-1.2868-4.147-3.1544-5.0737l24.2379-7.4578v7.4518c-1.8742,0.9243-3.1668,2.8486-3.1668,5.0797
		c0,3.1296,2.537,5.6667,5.6666,5.6667c3.1296,0,5.6667-2.5371,5.6667-5.6667c0-2.231-1.2924-4.1552-3.1665-5.0795v-7.452
		l24.2377,7.4578c-1.8676,0.9266-3.1545,2.8475-3.1545,5.0737c0,3.1296,2.537,5.6667,5.6666,5.6667
		c3.1296,0,5.6667-2.5371,5.6667-5.6667c0-2.231-1.2924-4.1552-3.1665-5.0795v-3.6838l-29.25-8.9995v-21.0536h4.2498v-1.77
		c14.8483-0.9787,26-5.1194,26-10.0803c0-4.8072-46.77-5.5518-61.2662-2.2345l-11.2109-29.8563
		c4.7803,7.4583,9.7065,11.6874,13.0239,10.4418c5.3257-1.9998-17.6995-63.3194-23.0251-61.3196
		c-4.3408,1.6299-4.5862,12.1283-1.0861,25.1241c-0.3952-0.0529-0.8066-0.0233-1.2059,0.1267
		c-1.2925,0.4854-1.9468,1.9268-1.4614,3.2192l20.8574,55.5464C21.0749,146.6625,21.1492,146.8026,21.2312,146.9364z"/>
	<path d="M140.9215,104.7122h35.2006c1.0928,0,2.0986-0.5942,2.627-1.5508l24.917-45.1665l-5.2539-2.8984l-24.0615,43.6157h-29.8019
		C144.0732,101.1177,142.7581,103.223,140.9215,104.7122z"/>
	<path d="M68.5879,59.6526c-2.96-3.2778-8.0195-3.5356-11.2988-0.5747c-3.2783,2.9614-3.5361,8.0205-0.5742,11.2993l28.6289,31.6973
		c1.5166,1.6792,3.6738,2.6377,5.9365,2.6377h38.5088h4.6582c4.418,0,8-3.5815,8-8s-3.582-8-8-8H94.835L68.5879,59.6526z"/>
</g>
</svg>
