<?xml version="1.0" encoding="UTF-8"?>
<!DOCTYPE svg PUBLIC "-//W3C//DTD SVG 1.1//EN" "http://www.w3.org/Graphics/SVG/1.1/DTD/svg11.dtd">
<!-- Creator: CorelDRAW -->
<svg xmlns="http://www.w3.org/2000/svg" xml:space="preserve" width="512px" height="512px" version="1.1" style="shape-rendering:geometricPrecision; text-rendering:geometricPrecision; image-rendering:optimizeQuality; fill-rule:evenodd; clip-rule:evenodd"
viewBox="0 0 512 512"
 xmlns:xlink="http://www.w3.org/1999/xlink"
 xmlns:xodm="http://www.corel.com/coreldraw/odm/2003">
 <defs>
  <style type="text/css">
   <![CDATA[
    .fil0 {fill:url(#id0)}
   ]]>
  </style>
  <linearGradient id="id0" gradientUnits="userSpaceOnUse" x1="256" y1="511.99" x2="256" y2="0.01">
   <stop offset="0" style="stop-opacity:1; stop-color:#1AA8DC"/>
   <stop offset="0.490196" style="stop-opacity:1; stop-color:#AE3B89"/>
   <stop offset="1" style="stop-opacity:1; stop-color:#F26270"/>
  </linearGradient>
 </defs>
 <g id="Layer_x0020_1">
  <metadata id="CorelCorpID_0Corel-Layer"/>
  <path class="fil0" d="M41 332.99c-10.8,0 -19,-9 -19,-21l0 -158c0,-12.3 8.3,-22 19,-22l132.9 -1c0,0 0,0 0.1,0 10.1,0 19,10.3 19,22l0 157c0,11.7 -8.8,22 -18.9,22l-4.8 0.1c-57.2,0.9 -57.2,0.9 -128.3,0.9zm442 179l-454 0c-3.9,0 -7,-3.1 -7,-7 0,-3.9 3.1,-7 7,-7l454 0c3.9,0 7,3.1 7,7 0,3.9 -3.1,7 -7,7zm0 -61l-454 0c-3.9,0 -7,-3.1 -7,-7 0,-3.9 3.1,-7 7,-7l454 0c3.9,0 7,3.1 7,7 0,3.9 -3.1,7 -7,7zm-227 -61l-227 0c-3.9,0 -7,-3.1 -7,-7 0,-3.9 3.1,-7 7,-7l227 0c3.9,0 7,3.1 7,7 0,3.9 -3.1,7 -7,7zm-25 -291c-1.8,0 -3.6,-0.7 -4.9,-2.1l-41.23 -41.23c-1.74,-1.26 -2.87,-3.32 -2.87,-5.67 0,-3.89 3.08,-6.98 6.96,-7l0.04 0 0.1 0 117.3 0 -30.4 -31.1c-2.7,-2.8 -2.6,-7.2 0.1,-9.9 2.8,-2.7 7.2,-2.6 9.9,0.1l41.28 42.27c1.72,1.26 2.82,3.3 2.82,5.63 0,3.9 -3.1,7 -7,7l-117.2 0 30.1 30.1c2.7,2.7 2.7,7.2 0,9.9 -1.4,1.3 -3.2,2 -5,2zm107 234c-10.3,0 -19,-9.6 -19,-21l0 -158c0,-11.7 8.9,-22 19,-22l132.9 -1c0,0 0,0 0.1,0 10.7,0 19,9.7 19,22l0 157c0,12.3 -8.3,22 -18.9,22l-2.4 0c-58.6,1 -58.6,1 -130.7,1zm124 -128l-20.55 0c-2.75,10.06 -10.23,32.06 -27.31,54.41 9.28,10.3 20.89,20.28 35.36,28.49 3.4,1.9 4.5,6.2 2.6,9.5 -1.3,2.3 -3.7,3.6 -6.1,3.6 -1.2,0 -2.4,-0.3 -3.4,-0.9 -15.3,-8.69 -27.66,-19.05 -37.61,-29.78 -9.89,10.77 -22.23,21.17 -37.59,29.88 -1,0.5 -2.2,0.8 -3.4,0.8 -2.4,0 -4.8,-1.3 -6.1,-3.5 -1.9,-3.4 -0.7,-7.6 2.6,-9.5 14.5,-8.22 26.07,-18.22 35.26,-28.55 -17.35,-22.36 -25.17,-44.38 -28.1,-54.45l-19.66 0c-3.9,0 -7,-3.1 -7,-7 0,-3.9 3.1,-7 7,-7l24.21 0c0.58,-0.07 1.15,-0.07 1.71,0l24.08 0 0 -21c0,-3.9 3.1,-7 7,-7 3.9,0 7,3.1 7,7l0 21 50 0c3.9,0 7,3.1 7,7 0,3.9 -3.1,7 -7,7zm-57.1 43.1c12.39,-17.06 18.88,-33.58 21.92,-43.1l-21.82 0 -22.64 0c3.21,9.59 9.97,26.08 22.54,43.1zm-252.9 45.9c-2.8,0 -5.4,-1.7 -6.5,-4.4l-14.43 -35.6 -47.23 0 -14.34 36.5c-1.1,2.8 -3.7,4.5 -6.5,4.5 -0.9,0 -1.7,-0.2 -2.6,-0.5 -3.6,-1.4 -5.4,-5.5 -4,-9.1l15.92 -40.53c0.1,-0.32 0.22,-0.62 0.36,-0.92l27.72 -70.55c1.4,-3.6 5.5,-5.4 9.1,-4 0.96,0.37 1.79,0.93 2.46,1.63l0.03 0.03 0.09 0.09c0.6,0.63 1.09,1.39 1.42,2.25l28.15 69.44c0.67,0.91 1.11,1.98 1.28,3.14l15.57 38.42c1.5,3.6 -0.3,7.7 -3.9,9.1 -0.8,0.3 -1.7,0.5 -2.6,0.5zm-26.61 -54l-18.31 -45.17 -17.74 45.17 36.05 0z"/>
 </g>
</svg>
