<svg width="80" height="80" viewBox="0 0 80 80" fill="none" xmlns="http://www.w3.org/2000/svg">
<path d="M30 33.3335H23.3333V40.0002H30V33.3335ZM43.3333 33.3335H36.6667V40.0002H43.3333V33.3335ZM56.6667 33.3335H50V40.0002H56.6667V33.3335ZM63.3333 10.0002H60V3.3335H53.3333V10.0002H26.6667V3.3335H20V10.0002H16.6667C12.9667 10.0002 10 13.0002 10 16.6668V63.3335C10 65.1016 10.7024 66.7973 11.9526 68.0475C13.2029 69.2978 14.8986 70.0002 16.6667 70.0002H63.3333C65.1014 70.0002 66.7971 69.2978 68.0474 68.0475C69.2976 66.7973 70 65.1016 70 63.3335V16.6668C70 14.8987 69.2976 13.203 68.0474 11.9528C66.7971 10.7025 65.1014 10.0002 63.3333 10.0002ZM63.3333 63.3335H16.6667V26.6668H63.3333V63.3335Z" fill="#012D5D"/>
</svg>
