<svg width="24" height="24" viewBox="0 0 24 24" fill="none" xmlns="http://www.w3.org/2000/svg">
<path d="M7.65807 4.26747L7.65803 4.26747C7.37567 4.28414 7.1188 4.40986 6.89913 4.59678L6.88382 4.60981L6.86961 4.62403L4.83763 6.656C4.40843 7.05487 4.27686 7.61914 4.2697 8.10458C4.21182 9.36659 4.84345 10.7528 5.31689 11.7327L5.3208 11.7407L5.325 11.7487C6.63372 14.2261 8.70588 16.2557 10.9325 17.8755L10.9431 17.8833L10.9541 17.8904C12.3053 18.7685 14.0266 19.6774 15.8889 19.7332L15.8966 19.7334L15.9044 19.7334C16.3754 19.7328 16.9233 19.6065 17.3485 19.1726L19.3848 17.1523L19.3849 17.1524L19.3913 17.1458C19.9309 16.5904 19.8259 15.6909 19.1298 15.2546L19.1299 15.2544L19.1184 15.2477L16.158 13.5001L16.0404 13.4307H16.005C15.4707 13.2045 14.8819 13.4163 14.5281 13.6845L14.4989 13.7066L14.4733 13.7327L13.6936 14.5268L13.6848 14.5243L13.6691 14.521C13.2432 14.4312 12.84 14.1906 12.429 13.8563C12.1525 13.6314 11.9053 13.394 11.6509 13.1495C11.5138 13.0178 11.3747 12.8841 11.2277 12.7492L11.2277 12.7492C10.5197 12.0997 9.78001 11.2193 9.48769 10.3049L10.1387 9.65383L10.1387 9.65385L10.1426 9.64992C10.5303 9.25353 10.6914 8.63838 10.421 8.06128L10.416 8.05062L10.4105 8.0402L8.76992 4.92888L8.75962 4.90936L8.74765 4.89082C8.52209 4.54161 8.15064 4.23842 7.65807 4.26747ZM0.5 12C0.5 5.64872 5.64872 0.5 12 0.5C18.3513 0.5 23.5 5.64872 23.5 12C23.5 18.3513 18.3513 23.5 12 23.5C5.64872 23.5 0.5 18.3513 0.5 12Z" stroke="#302E68"/>
</svg>
