<svg width="25" height="25" viewBox="0 0 25 25" fill="none" xmlns="http://www.w3.org/2000/svg">
<path d="M12.1133 20.6985C16.5133 20.6985 20.1133 17.0985 20.1133 12.6985C20.1133 8.29849 16.5133 4.69849 12.1133 4.69849C7.71328 4.69849 4.11328 8.29849 4.11328 12.6985C4.11328 17.0985 7.71328 20.6985 12.1133 20.6985ZM12.1133 2.69849C17.6133 2.69849 22.1133 7.19849 22.1133 12.6985C22.1133 18.1985 17.6133 22.6985 12.1133 22.6985C6.61328 22.6985 2.11328 18.1985 2.11328 12.6985C2.11328 7.19849 6.61328 2.69849 12.1133 2.69849ZM12.6133 13.4985L7.81328 16.2985L7.11328 14.8985L11.1133 12.5985V7.69849H12.6133V13.4985Z" fill="#FF5994"/>
</svg>
