<svg width="25" height="25" viewBox="0 0 25 25" fill="none" xmlns="http://www.w3.org/2000/svg">
<path d="M18.8846 12.8577L20.1446 11.5977C20.5846 11.1577 21.1446 10.9177 21.7546 10.8577V9.85773L15.7546 3.85773H5.75464C4.64464 3.85773 3.75464 4.74773 3.75464 5.85773V19.8577C3.75464 20.9577 4.64464 21.8577 5.75464 21.8577H11.7546V19.9877L11.8846 19.8577H5.75464V5.85773H12.7546V12.8577H18.8846ZM14.7546 5.35773L20.2546 10.8577H14.7546V5.35773ZM19.8846 14.6877L21.9246 16.7277L15.7946 22.8577H13.7546V20.8177L19.8846 14.6877ZM23.6046 15.0477L22.6246 16.0277L20.5846 13.9877L21.5646 13.0077C21.7546 12.8077 22.0846 12.8077 22.2846 13.0077L23.6046 14.3277C23.8046 14.5277 23.8046 14.8577 23.6046 15.0477Z" fill="white"/>
</svg>
