<svg width="164" height="55" viewBox="0 0 164 55" fill="none" xmlns="http://www.w3.org/2000/svg">
<path d="M9.82386 46.9091C9.82386 47.983 9.62997 48.911 9.24219 49.6932C8.8544 50.4754 8.32244 51.0786 7.64631 51.5028C6.97017 51.9271 6.19792 52.1392 5.32955 52.1392C4.46117 52.1392 3.68892 51.9271 3.01278 51.5028C2.33665 51.0786 1.80469 50.4754 1.4169 49.6932C1.02912 48.911 0.835227 47.983 0.835227 46.9091C0.835227 45.8352 1.02912 44.9072 1.4169 44.125C1.80469 43.3428 2.33665 42.7396 3.01278 42.3153C3.68892 41.8911 4.46117 41.679 5.32955 41.679C6.19792 41.679 6.97017 41.8911 7.64631 42.3153C8.32244 42.7396 8.8544 43.3428 9.24219 44.125C9.62997 44.9072 9.82386 45.8352 9.82386 46.9091ZM8.63068 46.9091C8.63068 46.0275 8.48319 45.2834 8.18821 44.6768C7.89654 44.0703 7.50047 43.6113 7 43.2997C6.50284 42.9882 5.94602 42.8324 5.32955 42.8324C4.71307 42.8324 4.15459 42.9882 3.65412 43.2997C3.15696 43.6113 2.76089 44.0703 2.46591 44.6768C2.17424 45.2834 2.02841 46.0275 2.02841 46.9091C2.02841 47.7907 2.17424 48.5348 2.46591 49.1413C2.76089 49.7479 3.15696 50.2069 3.65412 50.5185C4.15459 50.83 4.71307 50.9858 5.32955 50.9858C5.94602 50.9858 6.50284 50.83 7 50.5185C7.50047 50.2069 7.89654 49.7479 8.18821 49.1413C8.48319 48.5348 8.63068 47.7907 8.63068 46.9091ZM12.9112 47.4062V52H11.7379V44.3636H12.8714V45.5568H12.9709C13.1499 45.169 13.4216 44.8575 13.7862 44.6222C14.1508 44.3835 14.6214 44.2642 15.1982 44.2642C15.7152 44.2642 16.1676 44.3703 16.5554 44.5824C16.9432 44.7912 17.2448 45.1094 17.4602 45.5369C17.6757 45.9612 17.7834 46.4981 17.7834 47.1477V52H16.6101V47.2273C16.6101 46.6274 16.4543 46.16 16.1428 45.8253C15.8312 45.4872 15.4036 45.3182 14.8601 45.3182C14.4856 45.3182 14.1508 45.3994 13.8558 45.5618C13.5642 45.7242 13.3338 45.9612 13.1648 46.2727C12.9957 46.5843 12.9112 46.9621 12.9112 47.4062ZM21.1007 41.8182V52H19.9274V41.8182H21.1007ZM23.2496 52V44.3636H24.4229V52H23.2496ZM23.8462 43.0909C23.6175 43.0909 23.4203 43.013 23.2546 42.8572C23.0922 42.7015 23.011 42.5142 23.011 42.2955C23.011 42.0767 23.0922 41.8894 23.2546 41.7337C23.4203 41.5779 23.6175 41.5 23.8462 41.5C24.0749 41.5 24.2705 41.5779 24.4329 41.7337C24.5986 41.8894 24.6815 42.0767 24.6815 42.2955C24.6815 42.5142 24.5986 42.7015 24.4329 42.8572C24.2705 43.013 24.0749 43.0909 23.8462 43.0909ZM27.7452 47.4062V52H26.5719V44.3636H27.7054V45.5568H27.8049C27.9838 45.169 28.2556 44.8575 28.6202 44.6222C28.9848 44.3835 29.4554 44.2642 30.0321 44.2642C30.5492 44.2642 31.0016 44.3703 31.3894 44.5824C31.7772 44.7912 32.0788 45.1094 32.2942 45.5369C32.5096 45.9612 32.6174 46.4981 32.6174 47.1477V52H31.4441V47.2273C31.4441 46.6274 31.2883 46.16 30.9767 45.8253C30.6652 45.4872 30.2376 45.3182 29.6941 45.3182C29.3195 45.3182 28.9848 45.3994 28.6898 45.5618C28.3981 45.7242 28.1678 45.9612 27.9988 46.2727C27.8297 46.5843 27.7452 46.9621 27.7452 47.4062ZM37.9631 52.1591C37.2273 52.1591 36.5926 51.9967 36.0589 51.6719C35.5286 51.3438 35.1193 50.8864 34.831 50.2997C34.5459 49.7098 34.4034 49.0237 34.4034 48.2415C34.4034 47.4593 34.5459 46.7699 34.831 46.1733C35.1193 45.5734 35.5204 45.1061 36.0341 44.7713C36.5511 44.4332 37.1544 44.2642 37.8438 44.2642C38.2415 44.2642 38.6342 44.3305 39.022 44.4631C39.4098 44.5956 39.7628 44.8111 40.081 45.1094C40.3991 45.4044 40.6527 45.7955 40.8416 46.2827C41.0305 46.7699 41.125 47.3698 41.125 48.0824V48.5795H35.2386V47.5653H39.9318C39.9318 47.1345 39.8456 46.75 39.6733 46.4119C39.5043 46.0739 39.2623 45.8071 38.9474 45.6115C38.6359 45.416 38.268 45.3182 37.8438 45.3182C37.3764 45.3182 36.9721 45.4342 36.6307 45.6662C36.2926 45.8949 36.0324 46.1932 35.8501 46.5611C35.6679 46.929 35.5767 47.3234 35.5767 47.7443V48.4205C35.5767 48.9972 35.6761 49.486 35.875 49.8871C36.0772 50.2848 36.3572 50.5881 36.7152 50.7969C37.0732 51.0024 37.4891 51.1051 37.9631 51.1051C38.2713 51.1051 38.5497 51.062 38.7983 50.9759C39.0502 50.8864 39.2673 50.7538 39.4496 50.5781C39.6319 50.3991 39.7727 50.1771 39.8722 49.9119L41.0057 50.2301C40.8864 50.6146 40.6858 50.9527 40.4041 51.2443C40.1224 51.5327 39.7744 51.758 39.3601 51.9205C38.9458 52.0795 38.4801 52.1591 37.9631 52.1591ZM52.5746 44.3636C52.5149 43.8598 52.273 43.4688 51.8487 43.1903C51.4245 42.9119 50.9041 42.7727 50.2876 42.7727C49.8369 42.7727 49.4425 42.8456 49.1044 42.9915C48.7696 43.1373 48.5078 43.3378 48.3189 43.593C48.1333 43.8482 48.0405 44.1383 48.0405 44.4631C48.0405 44.7348 48.1051 44.9685 48.2344 45.1641C48.367 45.3563 48.536 45.517 48.7415 45.6463C48.947 45.7723 49.1624 45.8767 49.3878 45.9595C49.6132 46.0391 49.8203 46.1037 50.0092 46.1534L51.0433 46.4318C51.3085 46.5014 51.6035 46.5975 51.9283 46.7202C52.2564 46.8428 52.5696 47.0102 52.8679 47.2223C53.1695 47.4311 53.4181 47.6996 53.6136 48.0277C53.8092 48.3558 53.907 48.7585 53.907 49.2358C53.907 49.786 53.7628 50.2831 53.4744 50.7273C53.1894 51.1714 52.7718 51.5244 52.2216 51.7862C51.6747 52.0481 51.0102 52.179 50.228 52.179C49.4988 52.179 48.8674 52.0613 48.3338 51.826C47.8035 51.5907 47.3859 51.2625 47.081 50.8416C46.7794 50.4207 46.6087 49.9318 46.5689 49.375H47.8416C47.8748 49.7595 48.004 50.0777 48.2294 50.3295C48.4581 50.5781 48.7464 50.7637 49.0945 50.8864C49.4458 51.0057 49.8236 51.0653 50.228 51.0653C50.6986 51.0653 51.1212 50.9891 51.4957 50.8366C51.8703 50.6809 52.1669 50.4654 52.3857 50.1903C52.6044 49.9119 52.7138 49.5871 52.7138 49.2159C52.7138 48.8778 52.6193 48.6027 52.4304 48.3906C52.2415 48.1785 51.9929 48.0062 51.6847 47.8736C51.3764 47.741 51.0433 47.625 50.6854 47.5256L49.4325 47.1676C48.6371 46.9389 48.0073 46.6125 47.5433 46.1882C47.0793 45.764 46.8473 45.2088 46.8473 44.5227C46.8473 43.9527 47.0014 43.4555 47.3097 43.0312C47.6212 42.6037 48.0388 42.2723 48.5625 42.0369C49.0895 41.7983 49.6778 41.679 50.3274 41.679C50.9837 41.679 51.567 41.7966 52.0774 42.032C52.5878 42.264 52.9922 42.5821 53.2905 42.9865C53.5921 43.3909 53.7512 43.8499 53.7678 44.3636H52.5746ZM59.0961 44.3636V45.358H55.1387V44.3636H59.0961ZM56.2921 42.5341H57.4654V49.8125C57.4654 50.1439 57.5134 50.3925 57.6096 50.5582C57.709 50.7206 57.8349 50.83 57.9874 50.8864C58.1432 50.9394 58.3072 50.9659 58.4796 50.9659C58.6088 50.9659 58.7149 50.9593 58.7978 50.946C58.8806 50.9295 58.9469 50.9162 58.9966 50.9062L59.2353 51.9602C59.1557 51.9901 59.0447 52.0199 58.9022 52.0497C58.7596 52.0829 58.579 52.0994 58.3603 52.0994C58.0288 52.0994 57.704 52.0282 57.3858 51.8857C57.071 51.7431 56.8091 51.526 56.6003 51.2344C56.3948 50.9427 56.2921 50.5748 56.2921 50.1307V42.5341ZM65.6735 48.8778V44.3636H66.8468V52H65.6735V50.7074H65.5939C65.415 51.0952 65.1365 51.425 64.7587 51.6967C64.3809 51.9652 63.9036 52.0994 63.3269 52.0994C62.8496 52.0994 62.4254 51.995 62.0542 51.7862C61.6829 51.5741 61.3913 51.2559 61.1792 50.8317C60.967 50.4041 60.861 49.8655 60.861 49.2159V44.3636H62.0343V49.1364C62.0343 49.6932 62.19 50.1373 62.5016 50.4688C62.8165 50.8002 63.2175 50.9659 63.7047 50.9659C63.9964 50.9659 64.293 50.8913 64.5946 50.7422C64.8996 50.593 65.1548 50.3643 65.3603 50.0561C65.5691 49.7479 65.6735 49.3551 65.6735 48.8778ZM71.8793 52.1591C71.2429 52.1591 70.6811 51.9983 70.1939 51.6768C69.7067 51.352 69.3255 50.8946 69.0504 50.3047C68.7753 49.7114 68.6378 49.0104 68.6378 48.2017C68.6378 47.3996 68.7753 46.7036 69.0504 46.1136C69.3255 45.5237 69.7083 45.0679 70.1989 44.7464C70.6894 44.425 71.2562 44.2642 71.8991 44.2642C72.3963 44.2642 72.7891 44.3471 73.0774 44.5128C73.3691 44.6752 73.5911 44.8608 73.7436 45.0696C73.8994 45.2751 74.0204 45.4441 74.1065 45.5767H74.206V41.8182H75.3793V52H74.2457V50.8267H74.1065C74.0204 50.9659 73.8977 51.1416 73.7386 51.3537C73.5795 51.5625 73.3525 51.7498 73.0575 51.9155C72.7625 52.0779 72.3698 52.1591 71.8793 52.1591ZM72.0384 51.1051C72.509 51.1051 72.9067 50.9825 73.2315 50.7372C73.5563 50.4886 73.8033 50.1456 73.9723 49.7081C74.1413 49.2673 74.2259 48.7585 74.2259 48.1818C74.2259 47.6117 74.143 47.1129 73.9773 46.6854C73.8116 46.2545 73.5663 45.9197 73.2415 45.6811C72.9167 45.4392 72.5156 45.3182 72.0384 45.3182C71.5412 45.3182 71.1269 45.4458 70.7955 45.701C70.4673 45.9529 70.2204 46.2959 70.0547 46.7301C69.8923 47.161 69.8111 47.6449 69.8111 48.1818C69.8111 48.7254 69.8939 49.2192 70.0597 49.6634C70.2287 50.1042 70.4773 50.4555 70.8054 50.7173C71.1368 50.9759 71.5478 51.1051 72.0384 51.1051ZM80.8928 52.1591C80.157 52.1591 79.5223 51.9967 78.9886 51.6719C78.4583 51.3438 78.049 50.8864 77.7607 50.2997C77.4756 49.7098 77.3331 49.0237 77.3331 48.2415C77.3331 47.4593 77.4756 46.7699 77.7607 46.1733C78.049 45.5734 78.45 45.1061 78.9638 44.7713C79.4808 44.4332 80.084 44.2642 80.7734 44.2642C81.1712 44.2642 81.5639 44.3305 81.9517 44.4631C82.3395 44.5956 82.6925 44.8111 83.0107 45.1094C83.3288 45.4044 83.5824 45.7955 83.7713 46.2827C83.9602 46.7699 84.0547 47.3698 84.0547 48.0824V48.5795H78.1683V47.5653H82.8615C82.8615 47.1345 82.7753 46.75 82.603 46.4119C82.4339 46.0739 82.192 45.8071 81.8771 45.6115C81.5656 45.416 81.1977 45.3182 80.7734 45.3182C80.3061 45.3182 79.9018 45.4342 79.5604 45.6662C79.2223 45.8949 78.9621 46.1932 78.7798 46.5611C78.5975 46.929 78.5064 47.3234 78.5064 47.7443V48.4205C78.5064 48.9972 78.6058 49.486 78.8047 49.8871C79.0069 50.2848 79.2869 50.5881 79.6449 50.7969C80.0028 51.0024 80.4188 51.1051 80.8928 51.1051C81.201 51.1051 81.4794 51.062 81.728 50.9759C81.9799 50.8864 82.197 50.7538 82.3793 50.5781C82.5616 50.3991 82.7024 50.1771 82.8018 49.9119L83.9354 50.2301C83.8161 50.6146 83.6155 50.9527 83.3338 51.2443C83.0521 51.5327 82.7041 51.758 82.2898 51.9205C81.8755 52.0795 81.4098 52.1591 80.8928 52.1591ZM87.0128 47.4062V52H85.8395V44.3636H86.973V45.5568H87.0724C87.2514 45.169 87.5232 44.8575 87.8878 44.6222C88.2524 44.3835 88.723 44.2642 89.2997 44.2642C89.8168 44.2642 90.2692 44.3703 90.657 44.5824C91.0447 44.7912 91.3464 45.1094 91.5618 45.5369C91.7772 45.9612 91.8849 46.4981 91.8849 47.1477V52H90.7116V47.2273C90.7116 46.6274 90.5559 46.16 90.2443 45.8253C89.9328 45.4872 89.5052 45.3182 88.9616 45.3182C88.5871 45.3182 88.2524 45.3994 87.9574 45.5618C87.6657 45.7242 87.4354 45.9612 87.2663 46.2727C87.0973 46.5843 87.0128 46.9621 87.0128 47.4062ZM97.35 44.3636V45.358H93.3926V44.3636H97.35ZM94.546 42.5341H95.7193V49.8125C95.7193 50.1439 95.7673 50.3925 95.8635 50.5582C95.9629 50.7206 96.0888 50.83 96.2413 50.8864C96.3971 50.9394 96.5611 50.9659 96.7335 50.9659C96.8627 50.9659 96.9688 50.9593 97.0517 50.946C97.1345 50.9295 97.2008 50.9162 97.2505 50.9062L97.4892 51.9602C97.4096 51.9901 97.2986 52.0199 97.1561 52.0497C97.0136 52.0829 96.8329 52.0994 96.6142 52.0994C96.2827 52.0994 95.9579 52.0282 95.6397 51.8857C95.3249 51.7431 95.063 51.526 94.8542 51.2344C94.6487 50.9427 94.546 50.5748 94.546 50.1307V42.5341ZM104.387 46.0739L103.333 46.3722C103.267 46.1965 103.169 46.0258 103.04 45.8601C102.914 45.6911 102.742 45.5518 102.523 45.4425C102.304 45.3331 102.024 45.2784 101.683 45.2784C101.215 45.2784 100.826 45.3861 100.514 45.6016C100.206 45.8137 100.052 46.0838 100.052 46.4119C100.052 46.7036 100.158 46.9339 100.37 47.103C100.582 47.272 100.914 47.4129 101.365 47.5256L102.498 47.804C103.181 47.9697 103.69 48.2232 104.024 48.5646C104.359 48.9027 104.526 49.3385 104.526 49.8722C104.526 50.3097 104.401 50.7008 104.149 51.0455C103.9 51.3902 103.552 51.6619 103.105 51.8608C102.657 52.0597 102.137 52.1591 101.544 52.1591C100.765 52.1591 100.12 51.9901 99.6096 51.652C99.0991 51.3139 98.776 50.8201 98.6401 50.1705L99.7537 49.892C99.8598 50.303 100.06 50.6113 100.355 50.8168C100.654 51.0223 101.043 51.125 101.524 51.125C102.07 51.125 102.505 51.009 102.826 50.777C103.151 50.5417 103.313 50.2599 103.313 49.9318C103.313 49.6667 103.221 49.4446 103.035 49.2656C102.849 49.0833 102.564 48.9474 102.18 48.858L100.907 48.5597C100.208 48.3939 99.6941 48.1371 99.3659 47.7891C99.0411 47.4377 98.8787 46.9986 98.8787 46.4716C98.8787 46.0407 98.9997 45.6596 99.2417 45.3281C99.4869 44.9967 99.82 44.7365 100.241 44.5476C100.665 44.3587 101.146 44.2642 101.683 44.2642C102.438 44.2642 103.032 44.4299 103.463 44.7614C103.897 45.0928 104.205 45.5303 104.387 46.0739ZM110.389 52V41.8182H113.83C114.628 41.8182 115.281 41.9624 115.788 42.2507C116.299 42.5357 116.677 42.9219 116.922 43.4091C117.167 43.8963 117.29 44.4399 117.29 45.0398C117.29 45.6397 117.167 46.1849 116.922 46.6754C116.68 47.166 116.305 47.5571 115.798 47.8487C115.291 48.1371 114.642 48.2812 113.849 48.2812H111.384V47.1875H113.81C114.357 47.1875 114.796 47.093 115.127 46.9041C115.459 46.7152 115.699 46.46 115.848 46.1385C116 45.8137 116.077 45.4474 116.077 45.0398C116.077 44.6321 116 44.2675 115.848 43.946C115.699 43.6245 115.457 43.3726 115.122 43.1903C114.787 43.0047 114.343 42.9119 113.79 42.9119H111.622V52H110.389ZM119.117 52V44.3636H120.25V45.517H120.33C120.469 45.1392 120.721 44.8326 121.086 44.5973C121.45 44.362 121.861 44.2443 122.319 44.2443C122.405 44.2443 122.512 44.246 122.642 44.2493C122.771 44.2526 122.869 44.2576 122.935 44.2642V45.4574C122.895 45.4474 122.804 45.4325 122.662 45.4126C122.522 45.3894 122.375 45.3778 122.219 45.3778C121.848 45.3778 121.516 45.4557 121.225 45.6115C120.936 45.764 120.708 45.9761 120.539 46.2479C120.373 46.5163 120.29 46.8229 120.29 47.1676V52H119.117ZM126.573 52.179C126.089 52.179 125.65 52.0878 125.256 51.9055C124.861 51.7199 124.548 51.4531 124.316 51.1051C124.084 50.7538 123.968 50.3295 123.968 49.8324C123.968 49.3949 124.054 49.0402 124.226 48.7685C124.399 48.4934 124.629 48.2779 124.917 48.1222C125.206 47.9664 125.524 47.8504 125.872 47.7741C126.223 47.6946 126.576 47.6316 126.931 47.5852C127.395 47.5256 127.771 47.4808 128.059 47.451C128.351 47.4179 128.563 47.3632 128.696 47.2869C128.832 47.2107 128.9 47.0781 128.9 46.8892V46.8494C128.9 46.3589 128.765 45.9777 128.497 45.706C128.232 45.4342 127.829 45.2983 127.289 45.2983C126.729 45.2983 126.29 45.4209 125.971 45.6662C125.653 45.9115 125.43 46.1733 125.3 46.4517L124.187 46.054C124.385 45.59 124.651 45.2287 124.982 44.9702C125.317 44.7083 125.681 44.526 126.076 44.4233C126.474 44.3172 126.865 44.2642 127.249 44.2642C127.494 44.2642 127.776 44.294 128.094 44.3537C128.416 44.41 128.726 44.5277 129.024 44.7067C129.326 44.8857 129.576 45.1558 129.775 45.517C129.974 45.8783 130.073 46.3622 130.073 46.9688V52H128.9V50.9659H128.84C128.76 51.1316 128.628 51.3089 128.442 51.4979C128.257 51.6868 128.01 51.8475 127.702 51.9801C127.393 52.1127 127.017 52.179 126.573 52.179ZM126.752 51.125C127.216 51.125 127.607 51.0339 127.925 50.8516C128.247 50.6693 128.489 50.4339 128.651 50.1456C128.817 49.8572 128.9 49.554 128.9 49.2358V48.1619C128.85 48.2216 128.741 48.2763 128.572 48.326C128.406 48.3724 128.214 48.4138 127.995 48.4503C127.779 48.4834 127.569 48.5133 127.363 48.5398C127.161 48.563 126.997 48.5829 126.871 48.5994C126.566 48.6392 126.281 48.7038 126.016 48.7933C125.754 48.8795 125.542 49.0104 125.38 49.1861C125.221 49.3584 125.141 49.5937 125.141 49.892C125.141 50.2997 125.292 50.608 125.594 50.8168C125.898 51.0223 126.285 51.125 126.752 51.125ZM135.317 52.1591C134.601 52.1591 133.984 51.9901 133.467 51.652C132.95 51.3139 132.553 50.8482 132.274 50.255C131.996 49.6617 131.857 48.9839 131.857 48.2216C131.857 47.446 131.999 46.7616 132.284 46.1683C132.572 45.5717 132.973 45.1061 133.487 44.7713C134.004 44.4332 134.607 44.2642 135.297 44.2642C135.834 44.2642 136.318 44.3636 136.749 44.5625C137.179 44.7614 137.532 45.0398 137.808 45.3977C138.083 45.7557 138.253 46.1733 138.32 46.6506H137.146C137.057 46.3026 136.858 45.9943 136.55 45.7259C136.245 45.4541 135.834 45.3182 135.317 45.3182C134.859 45.3182 134.458 45.4375 134.114 45.6761C133.772 45.9115 133.505 46.2446 133.313 46.6754C133.124 47.103 133.03 47.6051 133.03 48.1818C133.03 48.7718 133.123 49.2855 133.308 49.723C133.497 50.1605 133.762 50.5002 134.104 50.7422C134.448 50.9841 134.853 51.1051 135.317 51.1051C135.622 51.1051 135.898 51.0521 136.147 50.946C136.396 50.84 136.606 50.6875 136.778 50.4886C136.951 50.2898 137.073 50.0511 137.146 49.7727H138.32C138.253 50.2235 138.089 50.6295 137.827 50.9908C137.569 51.3487 137.226 51.6338 136.798 51.8459C136.374 52.0547 135.88 52.1591 135.317 52.1591ZM143.356 44.3636V45.358H139.398V44.3636H143.356ZM140.552 42.5341H141.725V49.8125C141.725 50.1439 141.773 50.3925 141.869 50.5582C141.969 50.7206 142.095 50.83 142.247 50.8864C142.403 50.9394 142.567 50.9659 142.739 50.9659C142.869 50.9659 142.975 50.9593 143.058 50.946C143.14 50.9295 143.207 50.9162 143.256 50.9062L143.495 51.9602C143.415 51.9901 143.304 52.0199 143.162 52.0497C143.019 52.0829 142.839 52.0994 142.62 52.0994C142.289 52.0994 141.964 52.0282 141.646 51.8857C141.331 51.7431 141.069 51.526 140.86 51.2344C140.655 50.9427 140.552 50.5748 140.552 50.1307V42.5341ZM145.121 52V44.3636H146.294V52H145.121ZM145.717 43.0909C145.489 43.0909 145.291 43.013 145.126 42.8572C144.963 42.7015 144.882 42.5142 144.882 42.2955C144.882 42.0767 144.963 41.8894 145.126 41.7337C145.291 41.5779 145.489 41.5 145.717 41.5C145.946 41.5 146.142 41.5779 146.304 41.7337C146.47 41.8894 146.553 42.0767 146.553 42.2955C146.553 42.5142 146.47 42.7015 146.304 42.8572C146.142 43.013 145.946 43.0909 145.717 43.0909ZM151.545 52.1591C150.829 52.1591 150.213 51.9901 149.696 51.652C149.179 51.3139 148.781 50.8482 148.503 50.255C148.224 49.6617 148.085 48.9839 148.085 48.2216C148.085 47.446 148.228 46.7616 148.513 46.1683C148.801 45.5717 149.202 45.1061 149.716 44.7713C150.233 44.4332 150.836 44.2642 151.525 44.2642C152.062 44.2642 152.546 44.3636 152.977 44.5625C153.408 44.7614 153.761 45.0398 154.036 45.3977C154.311 45.7557 154.482 46.1733 154.548 46.6506H153.375C153.285 46.3026 153.086 45.9943 152.778 45.7259C152.473 45.4541 152.062 45.3182 151.545 45.3182C151.088 45.3182 150.687 45.4375 150.342 45.6761C150.001 45.9115 149.734 46.2446 149.542 46.6754C149.353 47.103 149.258 47.6051 149.258 48.1818C149.258 48.7718 149.351 49.2855 149.537 49.723C149.726 50.1605 149.991 50.5002 150.332 50.7422C150.677 50.9841 151.081 51.1051 151.545 51.1051C151.85 51.1051 152.127 51.0521 152.376 50.946C152.624 50.84 152.835 50.6875 153.007 50.4886C153.179 50.2898 153.302 50.0511 153.375 49.7727H154.548C154.482 50.2235 154.318 50.6295 154.056 50.9908C153.797 51.3487 153.454 51.6338 153.027 51.8459C152.603 52.0547 152.109 52.1591 151.545 52.1591ZM159.465 52.1591C158.729 52.1591 158.095 51.9967 157.561 51.6719C157.031 51.3438 156.621 50.8864 156.333 50.2997C156.048 49.7098 155.905 49.0237 155.905 48.2415C155.905 47.4593 156.048 46.7699 156.333 46.1733C156.621 45.5734 157.022 45.1061 157.536 44.7713C158.053 44.4332 158.656 44.2642 159.346 44.2642C159.743 44.2642 160.136 44.3305 160.524 44.4631C160.912 44.5956 161.265 44.8111 161.583 45.1094C161.901 45.4044 162.155 45.7955 162.344 46.2827C162.532 46.7699 162.627 47.3698 162.627 48.0824V48.5795H156.741V47.5653H161.434C161.434 47.1345 161.348 46.75 161.175 46.4119C161.006 46.0739 160.764 45.8071 160.449 45.6115C160.138 45.416 159.77 45.3182 159.346 45.3182C158.878 45.3182 158.474 45.4342 158.133 45.6662C157.795 45.8949 157.534 46.1932 157.352 46.5611C157.17 46.929 157.079 47.3234 157.079 47.7443V48.4205C157.079 48.9972 157.178 49.486 157.377 49.8871C157.579 50.2848 157.859 50.5881 158.217 50.7969C158.575 51.0024 158.991 51.1051 159.465 51.1051C159.773 51.1051 160.052 51.062 160.3 50.9759C160.552 50.8864 160.769 50.7538 160.952 50.5781C161.134 50.3991 161.275 50.1771 161.374 49.9119L162.508 50.2301C162.388 50.6146 162.188 50.9527 161.906 51.2443C161.624 51.5327 161.276 51.758 160.862 51.9205C160.448 52.0795 159.982 52.1591 159.465 52.1591Z" fill="black"/>
<path d="M2.58239 35V8.81818H19.6108V12.794H7.32528V19.902H18.7287V23.8778H7.32528V31.0241H19.7131V35H2.58239ZM33.3217 35H24.4496V8.81818H33.5007C36.1001 8.81818 38.3331 9.34233 40.1996 10.3906C42.0746 11.4304 43.5149 12.9261 44.5206 14.8778C45.5263 16.8295 46.0291 19.1648 46.0291 21.8835C46.0291 24.6108 45.522 26.9545 44.5078 28.9148C43.5021 30.875 42.049 32.3793 40.1484 33.4276C38.2564 34.4759 35.9808 35 33.3217 35ZM29.1925 30.8963H33.0916C34.9155 30.8963 36.4368 30.5639 37.6555 29.8991C38.8743 29.2259 39.7905 28.2244 40.4041 26.8949C41.0178 25.5568 41.3246 23.8864 41.3246 21.8835C41.3246 19.8807 41.0178 18.2187 40.4041 16.8977C39.7905 15.5682 38.8828 14.5753 37.6811 13.919C36.4879 13.2543 35.005 12.9219 33.2322 12.9219H29.1925V30.8963ZM48.2248 12.794V8.81818H69.114V12.794H61.0217V35H56.3171V12.794H48.2248ZM78.782 35.3835C76.8132 35.3835 75.1129 34.9744 73.6811 34.1562C72.2578 33.3295 71.1626 32.1619 70.3956 30.6534C69.6286 29.1364 69.245 27.3509 69.245 25.2969C69.245 23.277 69.6286 21.5043 70.3956 19.9787C71.1712 18.4446 72.2536 17.2514 73.6428 16.3991C75.032 15.5384 76.6641 15.108 78.5391 15.108C79.7493 15.108 80.8913 15.304 81.9652 15.696C83.0476 16.0795 84.0021 16.6761 84.8288 17.4858C85.6641 18.2955 86.3203 19.3267 86.7976 20.5795C87.2749 21.8239 87.5135 23.3068 87.5135 25.0284V26.4474H71.4183V23.3281H83.0774C83.0689 22.4418 82.8771 21.6534 82.5021 20.9631C82.1271 20.2642 81.603 19.7145 80.9297 19.3139C80.2649 18.9134 79.4893 18.7131 78.603 18.7131C77.657 18.7131 76.826 18.9432 76.1101 19.4034C75.3942 19.8551 74.8359 20.4517 74.4354 21.1932C74.0433 21.9261 73.843 22.7315 73.8345 23.6094V26.3324C73.8345 27.4744 74.0433 28.4545 74.4609 29.2727C74.8786 30.0824 75.4624 30.7045 76.2124 31.1392C76.9624 31.5653 77.8402 31.7784 78.8459 31.7784C79.5192 31.7784 80.1286 31.6847 80.674 31.4972C81.2195 31.3011 81.6925 31.0156 82.093 30.6406C82.4936 30.2656 82.7962 29.8011 83.0007 29.2472L87.3217 29.733C87.049 30.875 86.5291 31.8722 85.7621 32.7244C85.0036 33.5682 84.032 34.2244 82.8473 34.6932C81.6626 35.1534 80.3075 35.3835 78.782 35.3835ZM99.994 35.3835C98.0337 35.3835 96.3505 34.9531 94.9442 34.0923C93.5465 33.2315 92.4684 32.0426 91.7099 30.5256C90.9599 29 90.5849 27.2443 90.5849 25.2585C90.5849 23.2642 90.9684 21.5043 91.7354 19.9787C92.5025 18.4446 93.5849 17.2514 94.9826 16.3991C96.3888 15.5384 98.0508 15.108 99.9684 15.108C101.562 15.108 102.973 15.402 104.2 15.9901C105.436 16.5696 106.42 17.392 107.153 18.4574C107.886 19.5142 108.304 20.75 108.406 22.1648H103.983C103.804 21.2187 103.377 20.4304 102.704 19.7997C102.039 19.1605 101.149 18.8409 100.032 18.8409C99.0863 18.8409 98.2553 19.0966 97.5394 19.608C96.8235 20.1108 96.2653 20.8352 95.8647 21.7812C95.4727 22.7273 95.2766 23.8608 95.2766 25.1818C95.2766 26.5199 95.4727 27.6705 95.8647 28.6335C96.2567 29.5881 96.8065 30.3253 97.5138 30.8452C98.2298 31.3565 99.0692 31.6122 100.032 31.6122C100.714 31.6122 101.324 31.4844 101.86 31.2287C102.406 30.9645 102.862 30.5852 103.228 30.0909C103.595 29.5966 103.846 28.9957 103.983 28.2884H108.406C108.295 29.6776 107.886 30.9091 107.179 31.983C106.471 33.0483 105.508 33.8835 104.289 34.4886C103.071 35.0852 101.639 35.3835 99.994 35.3835ZM116.834 23.4943V35H112.206V8.81818H116.732V18.7003H116.962C117.422 17.5923 118.134 16.7187 119.097 16.0795C120.068 15.4318 121.304 15.108 122.804 15.108C124.168 15.108 125.357 15.3935 126.371 15.9645C127.385 16.5355 128.169 17.3707 128.723 18.4702C129.286 19.5696 129.567 20.9119 129.567 22.4972V35H124.939V23.2131C124.939 21.892 124.598 20.8651 123.916 20.1321C123.243 19.3906 122.297 19.0199 121.078 19.0199C120.26 19.0199 119.527 19.1989 118.879 19.5568C118.24 19.9062 117.737 20.4134 117.371 21.0781C117.013 21.7429 116.834 22.5483 116.834 23.4943Z" fill="black"/>
</svg>
