<svg width="19" height="19" viewBox="0 0 19 19" fill="none" xmlns="http://www.w3.org/2000/svg">
<g clip-path="url(#clip0_459_12)">
<path d="M1.55078 4.23521L2.51078 3.28271L15.0508 15.8227L14.0983 16.7827L11.7883 14.4727C10.9258 14.7577 10.0108 14.9077 9.05078 14.9077C5.30078 14.9077 2.09828 12.5752 0.800781 9.28271C1.31828 7.96271 2.14328 6.80021 3.19328 5.87771L1.55078 4.23521ZM9.05078 7.03271C9.64752 7.03271 10.2198 7.26977 10.6418 7.69172C11.0637 8.11368 11.3008 8.68598 11.3008 9.28271C11.3008 9.54521 11.2558 9.80021 11.1733 10.0327L8.30078 7.16021C8.53328 7.07771 8.78828 7.03271 9.05078 7.03271ZM9.05078 3.65771C12.8008 3.65771 16.0033 5.99021 17.3008 9.28271C16.6858 10.8427 15.6433 12.1927 14.3008 13.1752L13.2358 12.1027C14.2558 11.3977 15.0958 10.4377 15.6658 9.28271C14.4283 6.76271 11.8708 5.15771 9.05078 5.15771C8.23328 5.15771 7.43078 5.29271 6.68078 5.53271L5.52578 4.38521C6.60578 3.92021 7.79828 3.65771 9.05078 3.65771ZM2.43578 9.28271C3.67328 11.8027 6.23078 13.4077 9.05078 13.4077C9.56828 13.4077 10.0783 13.3552 10.5508 13.2502L8.84078 11.5327C7.76828 11.4202 6.91328 10.5652 6.80078 9.49271L4.25078 6.93521C3.50828 7.57271 2.88578 8.36771 2.43578 9.28271Z" fill="#666666"/>
</g>
<defs>
<clipPath id="clip0_459_12">
<rect width="18" height="18" fill="white" transform="translate(0.0507812 0.282715)"/>
</clipPath>
</defs>
</svg>
