<svg width="25" height="25" viewBox="0 0 25 25" fill="none" xmlns="http://www.w3.org/2000/svg">
<path d="M12.6787 7.36239C12.8787 7.18239 13.1187 7.07239 13.3787 7.07239C13.6487 7.07239 13.8787 7.18239 14.0887 7.36239C14.2787 7.57239 14.3787 7.81239 14.3787 8.07239C14.3787 8.34239 14.2787 8.57239 14.0887 8.78239C13.8787 8.97239 13.6487 9.07239 13.3787 9.07239C13.1187 9.07239 12.8787 8.97239 12.6787 8.78239C12.4887 8.57239 12.3787 8.34239 12.3787 8.07239C12.3787 7.81239 12.4887 7.57239 12.6787 7.36239ZM10.1787 12.0424C10.1787 12.0424 12.3487 10.3224 13.1387 10.2524C13.8787 10.1924 13.7287 11.0424 13.6587 11.4824L13.6487 11.5424C13.5087 12.0724 13.3387 12.7124 13.1687 13.3224C12.7887 14.7124 12.4187 16.0724 12.5087 16.3224C12.6087 16.6624 13.2287 16.2324 13.6787 15.9324C13.7387 15.8924 13.7887 15.8524 13.8387 15.8224C13.8387 15.8224 13.9187 15.7424 13.9987 15.8524C14.0187 15.8824 14.0387 15.9124 14.0587 15.9324C14.1487 16.0724 14.1987 16.1224 14.0787 16.2024L14.0387 16.2224C13.8187 16.3724 12.8787 17.0324 12.4987 17.2724C12.0887 17.5424 10.5187 18.4424 10.7587 16.6924C10.9687 15.4624 11.2487 14.4024 11.4687 13.5724C11.8787 12.0724 12.0587 11.3924 11.1387 11.9824C10.7687 12.2024 10.5487 12.3424 10.4187 12.4324C10.3087 12.5124 10.2987 12.5124 10.2287 12.3824L10.1987 12.3224L10.1487 12.2424C10.0787 12.1424 10.0787 12.1324 10.1787 12.0424ZM22.3787 12.0724C22.3787 17.5724 17.8787 22.0724 12.3787 22.0724C6.87866 22.0724 2.37866 17.5724 2.37866 12.0724C2.37866 6.57239 6.87866 2.07239 12.3787 2.07239C17.8787 2.07239 22.3787 6.57239 22.3787 12.0724ZM20.3787 12.0724C20.3787 7.65239 16.7987 4.07239 12.3787 4.07239C7.95866 4.07239 4.37866 7.65239 4.37866 12.0724C4.37866 16.4924 7.95866 20.0724 12.3787 20.0724C16.7987 20.0724 20.3787 16.4924 20.3787 12.0724Z" fill="#212529"/>
</svg>
