<?xml version="1.0" encoding="UTF-8" standalone="no"?> <svg width="64" height="64" viewBox="0 0 64 64" fill="none" xmlns="http://www.w3.org/2000/svg">
<path d="M22.67 35.29H4C3.44772 35.29 3 35.7377 3 36.29V60C3 60.5523 3.44772 61 4 61H22.67C23.2223 61 23.67 60.5523 23.67 60V36.29C23.67 35.7377 23.2223 35.29 22.67 35.29Z" fill="#EF5261"/>
<path d="M60 43.14H41.33C40.7777 43.14 40.33 43.5877 40.33 44.14V60C40.33 60.5523 40.7777 61 41.33 61H60C60.5522 61 61 60.5523 61 60V44.14C61 43.5877 60.5522 43.14 60 43.14Z" fill="#64B5F6"/>
<path d="M35.85 18.39H33V4C32.9999 3.79448 32.9365 3.59399 32.8184 3.42579C32.7004 3.2576 32.5333 3.12987 32.34 3.06C32.1489 2.99083 31.9413 2.98154 31.7448 3.03334C31.5483 3.08515 31.3722 3.19561 31.24 3.35L27.38 7.91C27.209 8.11289 27.1255 8.37542 27.148 8.63985C27.1705 8.90428 27.2971 9.14893 27.5 9.32C27.7029 9.49106 27.9655 9.57452 28.2299 9.55202C28.4943 9.52952 28.739 9.40289 28.91 9.2L31 6.73V18.39H28.15C27.8848 18.39 27.6305 18.4954 27.4429 18.6829C27.2554 18.8704 27.15 19.1248 27.15 19.39C27.15 19.6552 27.2554 19.9096 27.4429 20.0971C27.6305 20.2846 27.8848 20.39 28.15 20.39H35.85C36.1153 20.39 36.3696 20.2846 36.5571 20.0971C36.7447 19.9096 36.85 19.6552 36.85 19.39C36.85 19.1248 36.7447 18.8704 36.5571 18.6829C36.3696 18.4954 36.1153 18.39 35.85 18.39Z" fill="#575B6D"/>
<path d="M17.1901 21.05C17.1901 17.71 15.3601 15.05 13.0201 15.05H11.6501C9.31006 15.05 7.48006 17.68 7.48006 21.05C7.48006 21.3152 7.58542 21.5696 7.77295 21.7571C7.96049 21.9446 8.21484 22.05 8.48006 22.05C8.74527 22.05 8.99963 21.9446 9.18717 21.7571C9.3747 21.5696 9.48006 21.3152 9.48006 21.05C9.48006 18.72 10.6201 17.05 11.6501 17.05H13.0001C14.0001 17.05 15.1701 18.69 15.1701 21.05C15.232 22.3189 14.8144 23.5648 14.0001 24.54L7.77006 30.77C7.62903 30.9099 7.53285 31.0886 7.49378 31.2833C7.45471 31.4781 7.47452 31.68 7.55069 31.8635C7.62685 32.0469 7.75593 32.2035 7.92145 32.3133C8.08697 32.4231 8.28143 32.4811 8.48006 32.48H16.1901C16.4553 32.48 16.7096 32.3746 16.8972 32.1871C17.0847 31.9996 17.1901 31.7452 17.1901 31.48C17.1901 31.2148 17.0847 30.9604 16.8972 30.7729C16.7096 30.5853 16.4553 30.48 16.1901 30.48H10.9001L15.4301 26C16.6371 24.6411 17.2683 22.8659 17.1901 21.05V21.05Z" fill="#575B6D"/>
<path d="M56.07 28.08C56.07 25.36 54.55 23.23 52.62 23.23H47.36C47.0948 23.23 46.8404 23.3354 46.6529 23.5229C46.4653 23.7104 46.36 23.9648 46.36 24.23C46.36 24.4952 46.4653 24.7496 46.6529 24.9371C46.8404 25.1247 47.0948 25.23 47.36 25.23H52.62C53.3 25.23 54.07 26.45 54.07 28.08C54.07 29.71 53.3 30.93 52.62 30.93H49.47C49.2048 30.93 48.9504 31.0354 48.7629 31.2229C48.5753 31.4104 48.47 31.6648 48.47 31.93C48.47 32.1952 48.5753 32.4496 48.7629 32.6371C48.9504 32.8247 49.2048 32.93 49.47 32.93H52.62C53.3 32.93 54.07 34.15 54.07 35.78C54.07 37.41 53.3 38.63 52.62 38.63H47.36C47.0948 38.63 46.8404 38.7354 46.6529 38.9229C46.4653 39.1104 46.36 39.3648 46.36 39.63C46.36 39.8952 46.4653 40.1496 46.6529 40.3371C46.8404 40.5247 47.0948 40.63 47.36 40.63H52.62C54.55 40.63 56.07 38.5 56.07 35.78C56.1162 34.3732 55.6346 32.9999 54.72 31.93C55.6329 30.8591 56.1142 29.4865 56.07 28.08V28.08Z" fill="#575B6D"/>
<path d="M41.34 23.71H22.67C22.1178 23.71 21.67 24.1577 21.67 24.71V60C21.67 60.5523 22.1178 61 22.67 61H41.34C41.8923 61 42.34 60.5523 42.34 60V24.71C42.34 24.1577 41.8923 23.71 41.34 23.71Z" fill="#F6C863"/>
</svg>
