<svg width="40" height="40" viewBox="0 0 40 40" fill="none" xmlns="http://www.w3.org/2000/svg">
<path fill-rule="evenodd" clip-rule="evenodd" d="M28.385 4.11501C28.5014 4.23112 28.5938 4.36906 28.6568 4.52092C28.7198 4.67279 28.7522 4.83559 28.7522 5.00001C28.7522 5.16443 28.7198 5.32723 28.6568 5.47909C28.5938 5.63095 28.5014 5.76889 28.385 5.88501L14.2675 20L28.385 34.115C28.6197 34.3497 28.7516 34.6681 28.7516 35C28.7516 35.3319 28.6197 35.6503 28.385 35.885C28.1503 36.1197 27.8319 36.2516 27.5 36.2516C27.1681 36.2516 26.8497 36.1197 26.615 35.885L11.615 20.885C11.4986 20.7689 11.4062 20.631 11.3432 20.4791C11.2802 20.3272 11.2478 20.1644 11.2478 20C11.2478 19.8356 11.2802 19.6728 11.3432 19.5209C11.4062 19.3691 11.4986 19.2311 11.615 19.115L26.615 4.11501C26.7311 3.9986 26.8691 3.90624 27.0209 3.84323C27.1728 3.78021 27.3356 3.74777 27.5 3.74777C27.6644 3.74777 27.8272 3.78021 27.9791 3.84323C28.131 3.90624 28.2689 3.9986 28.385 4.11501V4.11501Z" fill="black"/>
</svg>
