<svg width="40" height="40" viewBox="0 0 40 40" fill="none" xmlns="http://www.w3.org/2000/svg">
<path d="M31.25 16.25C31.25 13.2663 30.0647 10.4048 27.955 8.29505C25.8452 6.18526 22.9837 5 20 5C17.0163 5 14.1548 6.18526 12.045 8.29505C9.93526 10.4048 8.75 13.2663 8.75 16.25C8.75 20.865 12.4425 26.88 20 34.085C27.5575 26.88 31.25 20.865 31.25 16.25ZM20 37.5C10.8325 29.1675 6.25 22.0825 6.25 16.25C6.25 12.6033 7.69866 9.10591 10.2773 6.52728C12.8559 3.94866 16.3533 2.5 20 2.5C23.6467 2.5 27.1441 3.94866 29.7227 6.52728C32.3013 9.10591 33.75 12.6033 33.75 16.25C33.75 22.0825 29.1675 29.1675 20 37.5Z" fill="#666666"/>
<path d="M20 20C20.9946 20 21.9484 19.6049 22.6517 18.9017C23.3549 18.1984 23.75 17.2446 23.75 16.25C23.75 15.2554 23.3549 14.3016 22.6517 13.5983C21.9484 12.8951 20.9946 12.5 20 12.5C19.0054 12.5 18.0516 12.8951 17.3483 13.5983C16.6451 14.3016 16.25 15.2554 16.25 16.25C16.25 17.2446 16.6451 18.1984 17.3483 18.9017C18.0516 19.6049 19.0054 20 20 20V20ZM20 22.5C18.3424 22.5 16.7527 21.8415 15.5806 20.6694C14.4085 19.4973 13.75 17.9076 13.75 16.25C13.75 14.5924 14.4085 13.0027 15.5806 11.8306C16.7527 10.6585 18.3424 10 20 10C21.6576 10 23.2473 10.6585 24.4194 11.8306C25.5915 13.0027 26.25 14.5924 26.25 16.25C26.25 17.9076 25.5915 19.4973 24.4194 20.6694C23.2473 21.8415 21.6576 22.5 20 22.5Z" fill="#666666"/>
</svg>
