<svg width="142" height="39" viewBox="0 0 142 39" fill="none" xmlns="http://www.w3.org/2000/svg">
<path d="M1.72159 23V5.54545H13.0739V8.19602H4.88352V12.9347H12.4858V15.5852H4.88352V20.3494H13.142V23H1.72159ZM22.2145 23H16.2997V5.54545H22.3338C24.0668 5.54545 25.5554 5.89489 26.7997 6.59375C28.0497 7.28693 29.0099 8.28409 29.6804 9.58523C30.3509 10.8864 30.6861 12.4432 30.6861 14.2557C30.6861 16.0739 30.348 17.6364 29.6719 18.9432C29.0014 20.25 28.0327 21.2528 26.7656 21.9517C25.5043 22.6506 23.9872 23 22.2145 23ZM19.4616 20.2642H22.0611C23.277 20.2642 24.2912 20.0426 25.1037 19.5994C25.9162 19.1506 26.527 18.483 26.9361 17.5966C27.3452 16.7045 27.5497 15.5909 27.5497 14.2557C27.5497 12.9205 27.3452 11.8125 26.9361 10.9318C26.527 10.0455 25.9219 9.38352 25.1207 8.94602C24.3253 8.50284 23.3366 8.28125 22.1548 8.28125H19.4616V20.2642ZM32.1499 8.19602V5.54545H46.076V8.19602H40.6811V23H37.5447V8.19602H32.1499ZM52.5213 23.2557C51.2088 23.2557 50.0753 22.983 49.1207 22.4375C48.1719 21.8864 47.4418 21.108 46.9304 20.1023C46.419 19.0909 46.1634 17.9006 46.1634 16.5312C46.1634 15.1847 46.419 14.0028 46.9304 12.9858C47.4474 11.9631 48.169 11.1676 49.0952 10.5994C50.0213 10.0256 51.1094 9.73864 52.3594 9.73864C53.1662 9.73864 53.9276 9.86932 54.6435 10.1307C55.3651 10.3864 56.0014 10.7841 56.5526 11.3239C57.1094 11.8636 57.5469 12.5511 57.8651 13.3864C58.1832 14.2159 58.3423 15.2045 58.3423 16.3523V17.2983H47.6122V15.2188H55.3849C55.3793 14.6278 55.2514 14.1023 55.0014 13.642C54.7514 13.1761 54.402 12.8097 53.9531 12.5426C53.5099 12.2756 52.9929 12.142 52.402 12.142C51.7713 12.142 51.2173 12.2955 50.7401 12.6023C50.2628 12.9034 49.8906 13.3011 49.6236 13.7955C49.3622 14.2841 49.2287 14.821 49.223 15.4062V17.2216C49.223 17.983 49.3622 18.6364 49.6406 19.1818C49.919 19.7216 50.3082 20.1364 50.8082 20.4261C51.3082 20.7102 51.8935 20.8523 52.5639 20.8523C53.0128 20.8523 53.419 20.7898 53.7827 20.6648C54.1463 20.5341 54.4616 20.3438 54.7287 20.0938C54.9957 19.8438 55.1974 19.5341 55.3338 19.1648L58.2145 19.4886C58.0327 20.25 57.6861 20.9148 57.1747 21.483C56.669 22.0455 56.0213 22.483 55.2315 22.7955C54.4418 23.1023 53.5384 23.2557 52.5213 23.2557ZM66.6626 23.2557C65.3558 23.2557 64.2337 22.9688 63.2962 22.3949C62.3643 21.821 61.6456 21.0284 61.1399 20.017C60.6399 19 60.3899 17.8295 60.3899 16.5057C60.3899 15.1761 60.6456 14.0028 61.157 12.9858C61.6683 11.9631 62.3899 11.1676 63.3217 10.5994C64.2592 10.0256 65.3672 9.73864 66.6456 9.73864C67.7081 9.73864 68.6484 9.93466 69.4666 10.3267C70.2905 10.7131 70.9467 11.2614 71.4354 11.9716C71.924 12.6761 72.2024 13.5 72.2706 14.4432H69.3217C69.2024 13.8125 68.9183 13.2869 68.4695 12.8665C68.0263 12.4403 67.4325 12.2273 66.6882 12.2273C66.0575 12.2273 65.5036 12.3977 65.0263 12.7386C64.549 13.0739 64.1768 13.5568 63.9098 14.1875C63.6484 14.8182 63.5178 15.5739 63.5178 16.4545C63.5178 17.3466 63.6484 18.1136 63.9098 18.7557C64.1712 19.392 64.5376 19.8835 65.0092 20.2301C65.4865 20.571 66.0462 20.7415 66.6882 20.7415C67.1428 20.7415 67.549 20.6562 67.907 20.4858C68.2706 20.3097 68.5746 20.0568 68.8189 19.7273C69.0632 19.3977 69.2308 18.9972 69.3217 18.5256H72.2706C72.1967 19.4517 71.924 20.2727 71.4524 20.9886C70.9808 21.6989 70.3388 22.2557 69.5263 22.6591C68.7138 23.0568 67.7592 23.2557 66.6626 23.2557ZM77.8892 15.3295V23H74.804V5.54545H77.821V12.1335H77.9744C78.2813 11.3949 78.7557 10.8125 79.3977 10.3864C80.0455 9.95455 80.8693 9.73864 81.8693 9.73864C82.7784 9.73864 83.571 9.92898 84.2472 10.3097C84.9233 10.6903 85.446 11.2472 85.8153 11.9801C86.1903 12.7131 86.3778 13.608 86.3778 14.6648V23H83.2926V15.142C83.2926 14.2614 83.0653 13.5767 82.6108 13.0881C82.1619 12.5937 81.5312 12.3466 80.7188 12.3466C80.1733 12.3466 79.6847 12.4659 79.2528 12.7045C78.8267 12.9375 78.4915 13.2756 78.2472 13.7188C78.0085 14.1619 77.8892 14.6989 77.8892 15.3295Z" fill="#302E68"/>
<path d="M8.53977 31.6364C8.53977 32.5682 8.36932 33.3693 8.02841 34.0398C7.6875 34.7074 7.22017 35.2216 6.62642 35.5824C6.03551 35.9403 5.36364 36.1193 4.6108 36.1193C3.85511 36.1193 3.1804 35.9403 2.58665 35.5824C1.99574 35.2216 1.52983 34.706 1.18892 34.0355C0.848011 33.3651 0.677557 32.5653 0.677557 31.6364C0.677557 30.7045 0.848011 29.9048 1.18892 29.2372C1.52983 28.5668 1.99574 28.0526 2.58665 27.6946C3.1804 27.3338 3.85511 27.1534 4.6108 27.1534C5.36364 27.1534 6.03551 27.3338 6.62642 27.6946C7.22017 28.0526 7.6875 28.5668 8.02841 29.2372C8.36932 29.9048 8.53977 30.7045 8.53977 31.6364ZM7.2358 31.6364C7.2358 30.9261 7.12074 30.3281 6.89062 29.8423C6.66335 29.3537 6.35085 28.9844 5.95312 28.7344C5.55824 28.4815 5.1108 28.3551 4.6108 28.3551C4.10795 28.3551 3.65909 28.4815 3.2642 28.7344C2.86932 28.9844 2.55682 29.3537 2.3267 29.8423C2.09943 30.3281 1.9858 30.9261 1.9858 31.6364C1.9858 32.3466 2.09943 32.946 2.3267 33.4347C2.55682 33.9205 2.86932 34.2898 3.2642 34.5426C3.65909 34.7926 4.10795 34.9176 4.6108 34.9176C5.1108 34.9176 5.55824 34.7926 5.95312 34.5426C6.35085 34.2898 6.66335 33.9205 6.89062 33.4347C7.12074 32.946 7.2358 32.3466 7.2358 31.6364ZM11.3533 32.1136V36H10.0792V29.4545H11.3022V30.5199H11.3832C11.5337 30.1733 11.7695 29.8949 12.0906 29.6847C12.4144 29.4744 12.8221 29.3693 13.3136 29.3693C13.7596 29.3693 14.1502 29.4631 14.4854 29.6506C14.8207 29.8352 15.0806 30.1108 15.2653 30.4773C15.4499 30.8437 15.5423 31.2969 15.5423 31.8366V36H14.2681V31.9901C14.2681 31.5156 14.1445 31.1449 13.8974 30.8778C13.6502 30.608 13.3107 30.473 12.8789 30.473C12.5835 30.473 12.3207 30.5369 12.0906 30.6648C11.8633 30.7926 11.6829 30.9801 11.5494 31.2273C11.4187 31.4716 11.3533 31.767 11.3533 32.1136ZM18.5252 27.2727V36H17.2511V27.2727H18.5252ZM20.2393 36V29.4545H21.5135V36H20.2393ZM20.8828 28.4446C20.6612 28.4446 20.4709 28.3707 20.3118 28.223C20.1555 28.0724 20.0774 27.8935 20.0774 27.6861C20.0774 27.4759 20.1555 27.2969 20.3118 27.1491C20.4709 26.9986 20.6612 26.9233 20.8828 26.9233C21.1044 26.9233 21.2933 26.9986 21.4496 27.1491C21.6087 27.2969 21.6882 27.4759 21.6882 27.6861C21.6882 27.8935 21.6087 28.0724 21.4496 28.223C21.2933 28.3707 21.1044 28.4446 20.8828 28.4446ZM24.5018 32.1136V36H23.2276V29.4545H24.4506V30.5199H24.5316C24.6822 30.1733 24.918 29.8949 25.239 29.6847C25.5629 29.4744 25.9705 29.3693 26.462 29.3693C26.908 29.3693 27.2987 29.4631 27.6339 29.6506C27.9691 29.8352 28.229 30.1108 28.4137 30.4773C28.5984 30.8437 28.6907 31.2969 28.6907 31.8366V36H27.4165V31.9901C27.4165 31.5156 27.293 31.1449 27.0458 30.8778C26.7987 30.608 26.4592 30.473 26.0273 30.473C25.7319 30.473 25.4691 30.5369 25.239 30.6648C25.0117 30.7926 24.8313 30.9801 24.6978 31.2273C24.5671 31.4716 24.5018 31.767 24.5018 32.1136ZM33.2205 36.1321C32.5756 36.1321 32.0202 35.9943 31.5543 35.7188C31.0913 35.4403 30.7333 35.0497 30.4805 34.5469C30.2305 34.0412 30.1055 33.4489 30.1055 32.7699C30.1055 32.0994 30.2305 31.5085 30.4805 30.9972C30.7333 30.4858 31.0856 30.0866 31.5373 29.7997C31.9918 29.5128 32.5231 29.3693 33.131 29.3693C33.5004 29.3693 33.8583 29.4304 34.2049 29.5526C34.5515 29.6747 34.8626 29.8665 35.1381 30.1278C35.4137 30.3892 35.631 30.7287 35.7901 31.1463C35.9492 31.5611 36.0288 32.0653 36.0288 32.6591V33.1108H30.8256V32.1562H34.7802C34.7802 31.821 34.712 31.5241 34.5756 31.2656C34.4393 31.0043 34.2475 30.7983 34.0004 30.6477C33.756 30.4972 33.4691 30.4219 33.1396 30.4219C32.7816 30.4219 32.4691 30.5099 32.2021 30.6861C31.9379 30.8594 31.7333 31.0866 31.5884 31.3679C31.4464 31.6463 31.3754 31.9489 31.3754 32.2756V33.0213C31.3754 33.4588 31.4521 33.831 31.6055 34.1378C31.7617 34.4446 31.979 34.679 32.2575 34.8409C32.5359 35 32.8612 35.0795 33.2333 35.0795C33.4748 35.0795 33.695 35.0455 33.8938 34.9773C34.0927 34.9062 34.2646 34.8011 34.4094 34.6619C34.5543 34.5227 34.6651 34.3509 34.7418 34.1463L35.9478 34.3636C35.8512 34.7187 35.6779 35.0298 35.4279 35.2969C35.1808 35.5611 34.8697 35.767 34.4947 35.9148C34.1225 36.0597 33.6978 36.1321 33.2205 36.1321ZM45.4805 29.5653C45.435 29.1619 45.2475 28.8494 44.918 28.6278C44.5884 28.4034 44.1737 28.2912 43.6737 28.2912C43.3157 28.2912 43.006 28.348 42.7447 28.4616C42.4833 28.5724 42.2802 28.7259 42.1353 28.9219C41.9933 29.1151 41.9222 29.3352 41.9222 29.5824C41.9222 29.7898 41.9705 29.9687 42.0671 30.1193C42.1665 30.2699 42.2958 30.3963 42.4549 30.4986C42.6168 30.598 42.7901 30.6818 42.9748 30.75C43.1594 30.8153 43.337 30.8693 43.5075 30.9119L44.3597 31.1335C44.6381 31.2017 44.9237 31.294 45.2163 31.4105C45.5089 31.527 45.7802 31.6804 46.0302 31.8707C46.2802 32.0611 46.4819 32.2969 46.6353 32.5781C46.7915 32.8594 46.8697 33.196 46.8697 33.5881C46.8697 34.0824 46.7418 34.5213 46.4862 34.9048C46.2333 35.2884 45.8654 35.5909 45.3825 35.8125C44.9023 36.0341 44.3214 36.1449 43.6396 36.1449C42.9862 36.1449 42.4208 36.0412 41.9435 35.8338C41.4663 35.6264 41.0927 35.3324 40.8228 34.9517C40.5529 34.5682 40.4038 34.1136 40.3754 33.5881H41.6964C41.7219 33.9034 41.8242 34.1662 42.0032 34.3764C42.185 34.5838 42.4165 34.7386 42.6978 34.8409C42.9819 34.9403 43.293 34.9901 43.631 34.9901C44.0032 34.9901 44.3342 34.9318 44.6239 34.8153C44.9165 34.696 45.1467 34.5312 45.3143 34.321C45.4819 34.108 45.5657 33.8594 45.5657 33.5753C45.5657 33.3168 45.4918 33.1051 45.3441 32.9403C45.1992 32.7756 45.0018 32.6392 44.7518 32.5312C44.5046 32.4233 44.2248 32.3281 43.9123 32.2457L42.881 31.9645C42.1822 31.7741 41.6282 31.4943 41.2191 31.125C40.8129 30.7557 40.6097 30.267 40.6097 29.6591C40.6097 29.1562 40.7461 28.7173 41.0188 28.3423C41.2915 27.9673 41.6609 27.6761 42.1268 27.4688C42.5927 27.2585 43.1183 27.1534 43.7035 27.1534C44.2944 27.1534 44.8157 27.2571 45.2674 27.4645C45.7219 27.6719 46.0799 27.9574 46.3413 28.321C46.6026 28.6818 46.739 29.0966 46.7504 29.5653H45.4805ZM51.3963 29.4545V30.4773H47.821V29.4545H51.3963ZM48.7798 27.8864H50.054V34.0781C50.054 34.3253 50.0909 34.5114 50.1648 34.6364C50.2386 34.7585 50.3338 34.8423 50.4503 34.8878C50.5696 34.9304 50.6989 34.9517 50.8381 34.9517C50.9403 34.9517 51.0298 34.9446 51.1065 34.9304C51.1832 34.9162 51.2429 34.9048 51.2855 34.8963L51.5156 35.9489C51.4418 35.9773 51.3366 36.0057 51.2003 36.0341C51.0639 36.0653 50.8935 36.0824 50.6889 36.0852C50.3537 36.0909 50.0412 36.0312 49.7514 35.9062C49.4616 35.7812 49.2273 35.5881 49.0483 35.3267C48.8693 35.0653 48.7798 34.7372 48.7798 34.3423V27.8864ZM56.9521 33.2855V29.4545H58.2305V36H56.9776V34.8665H56.9094C56.7589 35.2159 56.5174 35.5071 56.185 35.7401C55.8555 35.9702 55.445 36.0852 54.9535 36.0852C54.533 36.0852 54.1609 35.9929 53.837 35.8082C53.516 35.6207 53.2631 35.3438 53.0785 34.9773C52.8967 34.6108 52.8058 34.1577 52.8058 33.6179V29.4545H54.0799V33.4645C54.0799 33.9105 54.2035 34.2656 54.4506 34.5298C54.6978 34.794 55.0188 34.9261 55.4137 34.9261C55.6523 34.9261 55.8896 34.8665 56.1254 34.7472C56.364 34.6278 56.5614 34.4474 56.7177 34.206C56.8768 33.9645 56.9549 33.6577 56.9521 33.2855ZM62.3928 36.1278C61.8643 36.1278 61.3928 35.9929 60.978 35.723C60.5661 35.4503 60.2422 35.0625 60.0064 34.5597C59.7734 34.054 59.657 33.4474 59.657 32.7401C59.657 32.0327 59.7749 31.4276 60.0107 30.9247C60.2493 30.4219 60.576 30.0369 60.9908 29.7699C61.4055 29.5028 61.8757 29.3693 62.4013 29.3693C62.8075 29.3693 63.1342 29.4375 63.3814 29.5739C63.6314 29.7074 63.8246 29.8636 63.9609 30.0426C64.1001 30.2216 64.2081 30.3793 64.2848 30.5156H64.3615V27.2727H65.6357V36H64.3913V34.9815H64.2848C64.2081 35.1207 64.0973 35.2798 63.9524 35.4588C63.8104 35.6378 63.6143 35.794 63.3643 35.9276C63.1143 36.0611 62.7905 36.1278 62.3928 36.1278ZM62.674 35.0412C63.0405 35.0412 63.3501 34.9446 63.603 34.7514C63.8587 34.5554 64.0518 34.2841 64.1825 33.9375C64.3161 33.5909 64.3828 33.1875 64.3828 32.7273C64.3828 32.2727 64.3175 31.875 64.1868 31.5341C64.0561 31.1932 63.8643 30.9276 63.6115 30.7372C63.3587 30.5469 63.0462 30.4517 62.674 30.4517C62.2905 30.4517 61.9709 30.5511 61.7152 30.75C61.4595 30.9489 61.2663 31.2202 61.1357 31.5639C61.0078 31.9077 60.9439 32.2955 60.9439 32.7273C60.9439 33.1648 61.0092 33.5582 61.1399 33.9077C61.2706 34.2571 61.4638 34.5341 61.7195 34.7386C61.978 34.9403 62.2962 35.0412 62.674 35.0412ZM70.2752 36.1321C69.6303 36.1321 69.0749 35.9943 68.609 35.7188C68.146 35.4403 67.788 35.0497 67.5352 34.5469C67.2852 34.0412 67.1602 33.4489 67.1602 32.7699C67.1602 32.0994 67.2852 31.5085 67.5352 30.9972C67.788 30.4858 68.1403 30.0866 68.592 29.7997C69.0465 29.5128 69.5778 29.3693 70.1857 29.3693C70.555 29.3693 70.913 29.4304 71.2596 29.5526C71.6062 29.6747 71.9173 29.8665 72.1928 30.1278C72.4684 30.3892 72.6857 30.7287 72.8448 31.1463C73.0039 31.5611 73.0835 32.0653 73.0835 32.6591V33.1108H67.8803V32.1562H71.8349C71.8349 31.821 71.7667 31.5241 71.6303 31.2656C71.494 31.0043 71.3022 30.7983 71.055 30.6477C70.8107 30.4972 70.5238 30.4219 70.1942 30.4219C69.8363 30.4219 69.5238 30.5099 69.2567 30.6861C68.9925 30.8594 68.788 31.0866 68.6431 31.3679C68.5011 31.6463 68.43 31.9489 68.43 32.2756V33.0213C68.43 33.4588 68.5067 33.831 68.6602 34.1378C68.8164 34.4446 69.0337 34.679 69.3121 34.8409C69.5906 35 69.9158 35.0795 70.288 35.0795C70.5295 35.0795 70.7496 35.0455 70.9485 34.9773C71.1474 34.9062 71.3192 34.8011 71.4641 34.6619C71.609 34.5227 71.7198 34.3509 71.7965 34.1463L73.0025 34.3636C72.9059 34.7187 72.7326 35.0298 72.4826 35.2969C72.2354 35.5611 71.9244 35.767 71.5494 35.9148C71.1772 36.0597 70.7525 36.1321 70.2752 36.1321ZM75.7713 32.1136V36H74.4972V29.4545H75.7202V30.5199H75.8011C75.9517 30.1733 76.1875 29.8949 76.5085 29.6847C76.8324 29.4744 77.2401 29.3693 77.7315 29.3693C78.1776 29.3693 78.5682 29.4631 78.9034 29.6506C79.2386 29.8352 79.4986 30.1108 79.6832 30.4773C79.8679 30.8437 79.9602 31.2969 79.9602 31.8366V36H78.6861V31.9901C78.6861 31.5156 78.5625 31.1449 78.3153 30.8778C78.0682 30.608 77.7287 30.473 77.2969 30.473C77.0014 30.473 76.7386 30.5369 76.5085 30.6648C76.2813 30.7926 76.1009 30.9801 75.9673 31.2273C75.8366 31.4716 75.7713 31.767 75.7713 32.1136ZM84.7244 29.4545V30.4773H81.1491V29.4545H84.7244ZM82.108 27.8864H83.3821V34.0781C83.3821 34.3253 83.419 34.5114 83.4929 34.6364C83.5668 34.7585 83.6619 34.8423 83.7784 34.8878C83.8977 34.9304 84.027 34.9517 84.1662 34.9517C84.2685 34.9517 84.358 34.9446 84.4347 34.9304C84.5114 34.9162 84.571 34.9048 84.6136 34.8963L84.8438 35.9489C84.7699 35.9773 84.6648 36.0057 84.5284 36.0341C84.392 36.0653 84.2216 36.0824 84.017 36.0852C83.6818 36.0909 83.3693 36.0312 83.0795 35.9062C82.7898 35.7812 82.5554 35.5881 82.3764 35.3267C82.1974 35.0653 82.108 34.7372 82.108 34.3423V27.8864ZM90.9332 31.0526L89.7784 31.2571C89.7301 31.1094 89.6534 30.9687 89.5483 30.8352C89.446 30.7017 89.3068 30.5923 89.1307 30.5071C88.9545 30.4219 88.7344 30.3793 88.4702 30.3793C88.1094 30.3793 87.8082 30.4602 87.5668 30.6222C87.3253 30.7812 87.2045 30.9872 87.2045 31.2401C87.2045 31.4588 87.2855 31.6349 87.4474 31.7685C87.6094 31.902 87.8707 32.0114 88.2315 32.0966L89.2713 32.3352C89.8736 32.4744 90.3224 32.6889 90.6179 32.9787C90.9134 33.2685 91.0611 33.6449 91.0611 34.108C91.0611 34.5 90.9474 34.8494 90.7202 35.1562C90.4957 35.4602 90.1818 35.6989 89.7784 35.8722C89.3778 36.0455 88.9134 36.1321 88.3849 36.1321C87.652 36.1321 87.054 35.9759 86.5909 35.6634C86.1278 35.348 85.8438 34.9006 85.7386 34.321L86.9702 34.1335C87.0469 34.4545 87.2045 34.6974 87.4432 34.8622C87.6818 35.0241 87.9929 35.1051 88.3764 35.1051C88.794 35.1051 89.1278 35.0185 89.3778 34.8452C89.6278 34.669 89.7528 34.4545 89.7528 34.2017C89.7528 33.9972 89.6761 33.8253 89.5227 33.6861C89.3722 33.5469 89.1406 33.4418 88.8281 33.3707L87.7202 33.1278C87.1094 32.9886 86.6577 32.767 86.3651 32.4631C86.0753 32.1591 85.9304 31.7741 85.9304 31.3082C85.9304 30.9219 86.0384 30.5838 86.2543 30.294C86.4702 30.0043 86.7685 29.7784 87.1491 29.6165C87.5298 29.4517 87.9659 29.3693 88.4574 29.3693C89.1648 29.3693 89.7216 29.5227 90.1278 29.8295C90.5341 30.1335 90.8026 30.5412 90.9332 31.0526ZM95.7401 36V27.2727H98.8509C99.5298 27.2727 100.092 27.3963 100.538 27.6435C100.984 27.8906 101.318 28.2287 101.54 28.6577C101.761 29.0838 101.872 29.5639 101.872 30.098C101.872 30.6349 101.76 31.1179 101.536 31.5469C101.314 31.973 100.979 32.3111 100.53 32.5611C100.084 32.8082 99.5227 32.9318 98.8466 32.9318H96.7074V31.8153H98.7273C99.1563 31.8153 99.5043 31.7415 99.7713 31.5938C100.038 31.4432 100.234 31.2386 100.359 30.9801C100.484 30.7216 100.547 30.4276 100.547 30.098C100.547 29.7685 100.484 29.4759 100.359 29.2202C100.234 28.9645 100.037 28.7642 99.767 28.6193C99.5 28.4744 99.1477 28.402 98.7102 28.402H97.0568V36H95.7401ZM103.314 36V29.4545H104.545V30.4943H104.613C104.733 30.142 104.943 29.8651 105.244 29.6634C105.548 29.4588 105.892 29.3565 106.275 29.3565C106.355 29.3565 106.449 29.3594 106.556 29.3651C106.667 29.3707 106.754 29.3778 106.816 29.3864V30.6051C106.765 30.5909 106.674 30.5753 106.544 30.5582C106.413 30.5384 106.282 30.5284 106.152 30.5284C105.85 30.5284 105.582 30.5923 105.346 30.7202C105.113 30.8452 104.929 31.0199 104.792 31.2443C104.656 31.4659 104.588 31.7187 104.588 32.0028V36H103.314ZM109.765 36.1449C109.35 36.1449 108.975 36.0682 108.64 35.9148C108.305 35.7585 108.039 35.5327 107.843 35.2372C107.65 34.9418 107.554 34.5795 107.554 34.1506C107.554 33.7812 107.625 33.4773 107.767 33.2386C107.909 33 108.1 32.8111 108.342 32.6719C108.583 32.5327 108.853 32.4276 109.152 32.3565C109.45 32.2855 109.754 32.2315 110.064 32.1946C110.456 32.1491 110.774 32.1122 111.018 32.0838C111.262 32.0526 111.44 32.0028 111.551 31.9347C111.662 31.8665 111.717 31.7557 111.717 31.6023V31.5724C111.717 31.2003 111.612 30.9119 111.402 30.7074C111.194 30.5028 110.885 30.4006 110.473 30.4006C110.044 30.4006 109.706 30.4957 109.458 30.6861C109.214 30.8736 109.045 31.0824 108.951 31.3125L107.754 31.0398C107.896 30.642 108.103 30.321 108.376 30.0767C108.652 29.8295 108.968 29.6506 109.326 29.5398C109.684 29.4261 110.061 29.3693 110.456 29.3693C110.717 29.3693 110.994 29.4006 111.287 29.4631C111.582 29.5227 111.858 29.6335 112.113 29.7955C112.372 29.9574 112.583 30.1889 112.748 30.4901C112.913 30.7884 112.995 31.1761 112.995 31.6534V36H111.751V35.1051H111.7C111.618 35.2699 111.494 35.4318 111.329 35.5909C111.164 35.75 110.953 35.8821 110.694 35.9872C110.436 36.0923 110.126 36.1449 109.765 36.1449ZM110.042 35.1222C110.395 35.1222 110.696 35.0526 110.946 34.9134C111.199 34.7741 111.39 34.5923 111.521 34.3679C111.654 34.1406 111.721 33.8977 111.721 33.6392V32.7955C111.676 32.8409 111.588 32.8835 111.457 32.9233C111.329 32.9602 111.183 32.9929 111.018 33.0213C110.853 33.0469 110.693 33.071 110.537 33.0938C110.38 33.1136 110.25 33.1307 110.145 33.1449C109.897 33.1761 109.672 33.2287 109.467 33.3026C109.265 33.3764 109.103 33.483 108.981 33.6222C108.862 33.7585 108.802 33.9403 108.802 34.1676C108.802 34.483 108.919 34.7216 109.152 34.8835C109.385 35.0426 109.681 35.1222 110.042 35.1222ZM117.45 36.1321C116.816 36.1321 116.271 35.9886 115.813 35.7017C115.359 35.4119 115.009 35.0128 114.765 34.5043C114.521 33.9957 114.398 33.4134 114.398 32.7571C114.398 32.0923 114.523 31.5057 114.773 30.9972C115.023 30.4858 115.376 30.0866 115.83 29.7997C116.285 29.5128 116.82 29.3693 117.437 29.3693C117.934 29.3693 118.377 29.4616 118.766 29.6463C119.156 29.8281 119.469 30.0838 119.708 30.4134C119.95 30.7429 120.093 31.1278 120.138 31.5682H118.898C118.83 31.2614 118.674 30.9972 118.43 30.7756C118.188 30.554 117.864 30.4432 117.458 30.4432C117.103 30.4432 116.792 30.5369 116.525 30.7244C116.261 30.9091 116.055 31.1733 115.907 31.517C115.759 31.858 115.685 32.2614 115.685 32.7273C115.685 33.2045 115.758 33.6165 115.903 33.9631C116.048 34.3097 116.252 34.5781 116.516 34.7685C116.783 34.9588 117.097 35.054 117.458 35.054C117.7 35.054 117.918 35.0099 118.114 34.9219C118.313 34.831 118.479 34.7017 118.613 34.5341C118.749 34.3665 118.844 34.1648 118.898 33.929H120.138C120.093 34.3523 119.955 34.7301 119.725 35.0625C119.495 35.3949 119.187 35.6562 118.8 35.8466C118.417 36.0369 117.967 36.1321 117.45 36.1321ZM124.556 29.4545V30.4773H120.981V29.4545H124.556ZM121.94 27.8864H123.214V34.0781C123.214 34.3253 123.251 34.5114 123.325 34.6364C123.399 34.7585 123.494 34.8423 123.61 34.8878C123.73 34.9304 123.859 34.9517 123.998 34.9517C124.1 34.9517 124.19 34.9446 124.267 34.9304C124.343 34.9162 124.403 34.9048 124.446 34.8963L124.676 35.9489C124.602 35.9773 124.497 36.0057 124.36 36.0341C124.224 36.0653 124.054 36.0824 123.849 36.0852C123.514 36.0909 123.201 36.0312 122.912 35.9062C122.622 35.7812 122.387 35.5881 122.208 35.3267C122.029 35.0653 121.94 34.7372 121.94 34.3423V27.8864ZM125.966 36V29.4545H127.24V36H125.966ZM126.609 28.4446C126.388 28.4446 126.197 28.3707 126.038 28.223C125.882 28.0724 125.804 27.8935 125.804 27.6861C125.804 27.4759 125.882 27.2969 126.038 27.1491C126.197 26.9986 126.388 26.9233 126.609 26.9233C126.831 26.9233 127.02 26.9986 127.176 27.1491C127.335 27.2969 127.415 27.4759 127.415 27.6861C127.415 27.8935 127.335 28.0724 127.176 28.223C127.02 28.3707 126.831 28.4446 126.609 28.4446ZM131.711 36.1321C131.078 36.1321 130.532 35.9886 130.075 35.7017C129.62 35.4119 129.271 35.0128 129.027 34.5043C128.782 33.9957 128.66 33.4134 128.66 32.7571C128.66 32.0923 128.785 31.5057 129.035 30.9972C129.285 30.4858 129.637 30.0866 130.092 29.7997C130.547 29.5128 131.082 29.3693 131.699 29.3693C132.196 29.3693 132.639 29.4616 133.028 29.6463C133.417 29.8281 133.731 30.0838 133.97 30.4134C134.211 30.7429 134.355 31.1278 134.4 31.5682H133.16C133.092 31.2614 132.936 30.9972 132.691 30.7756C132.45 30.554 132.126 30.4432 131.72 30.4432C131.365 30.4432 131.054 30.5369 130.787 30.7244C130.522 30.9091 130.316 31.1733 130.169 31.517C130.021 31.858 129.947 32.2614 129.947 32.7273C129.947 33.2045 130.02 33.6165 130.164 33.9631C130.309 34.3097 130.514 34.5781 130.778 34.7685C131.045 34.9588 131.359 35.054 131.72 35.054C131.961 35.054 132.18 35.0099 132.376 34.9219C132.575 34.831 132.741 34.7017 132.875 34.5341C133.011 34.3665 133.106 34.1648 133.16 33.929H134.4C134.355 34.3523 134.217 34.7301 133.987 35.0625C133.757 35.3949 133.449 35.6562 133.062 35.8466C132.679 36.0369 132.228 36.1321 131.711 36.1321ZM138.584 36.1321C137.939 36.1321 137.384 35.9943 136.918 35.7188C136.455 35.4403 136.097 35.0497 135.844 34.5469C135.594 34.0412 135.469 33.4489 135.469 32.7699C135.469 32.0994 135.594 31.5085 135.844 30.9972C136.097 30.4858 136.449 30.0866 136.901 29.7997C137.355 29.5128 137.886 29.3693 138.494 29.3693C138.864 29.3693 139.222 29.4304 139.568 29.5526C139.915 29.6747 140.226 29.8665 140.501 30.1278C140.777 30.3892 140.994 30.7287 141.153 31.1463C141.313 31.5611 141.392 32.0653 141.392 32.6591V33.1108H136.189V32.1562H140.143C140.143 31.821 140.075 31.5241 139.939 31.2656C139.803 31.0043 139.611 30.7983 139.364 30.6477C139.119 30.4972 138.832 30.4219 138.503 30.4219C138.145 30.4219 137.832 30.5099 137.565 30.6861C137.301 30.8594 137.097 31.0866 136.952 31.3679C136.81 31.6463 136.739 31.9489 136.739 32.2756V33.0213C136.739 33.4588 136.815 33.831 136.969 34.1378C137.125 34.4446 137.342 34.679 137.621 34.8409C137.899 35 138.224 35.0795 138.597 35.0795C138.838 35.0795 139.058 35.0455 139.257 34.9773C139.456 34.9062 139.628 34.8011 139.773 34.6619C139.918 34.5227 140.028 34.3509 140.105 34.1463L141.311 34.3636C141.214 34.7187 141.041 35.0298 140.791 35.2969C140.544 35.5611 140.233 35.767 139.858 35.9148C139.486 36.0597 139.061 36.1321 138.584 36.1321Z" fill="#302E68"/>
</svg>
