<svg width="40" height="40" viewBox="0 0 40 40" fill="none" xmlns="http://www.w3.org/2000/svg">
<path fill-rule="evenodd" clip-rule="evenodd" d="M11.615 4.11501C11.4986 4.23112 11.4063 4.36906 11.3432 4.52092C11.2802 4.67279 11.2478 4.83559 11.2478 5.00001C11.2478 5.16443 11.2802 5.32723 11.3432 5.47909C11.4063 5.63095 11.4986 5.76889 11.615 5.88501L25.7325 20L11.615 34.115C11.3803 34.3497 11.2484 34.6681 11.2484 35C11.2484 35.3319 11.3803 35.6503 11.615 35.885C11.8497 36.1197 12.1681 36.2516 12.5 36.2516C12.832 36.2516 13.1503 36.1197 13.385 35.885L28.385 20.885C28.5014 20.7689 28.5938 20.631 28.6568 20.4791C28.7198 20.3272 28.7523 20.1644 28.7523 20C28.7523 19.8356 28.7198 19.6728 28.6568 19.5209C28.5938 19.3691 28.5014 19.2311 28.385 19.115L13.385 4.11501C13.2689 3.9986 13.131 3.90624 12.9791 3.84323C12.8272 3.78021 12.6644 3.74777 12.5 3.74777C12.3356 3.74777 12.1728 3.78021 12.0209 3.84323C11.8691 3.90624 11.7311 3.9986 11.615 4.11501V4.11501Z" fill="black"/>
</svg>
