<?xml version="1.0" encoding="UTF-8" standalone="no"?> <svg width="48" height="48" viewBox="0 0 48 48" fill="none" xmlns="http://www.w3.org/2000/svg">
<path d="M14 18.5C14.2652 18.5 14.5196 18.3946 14.7071 18.2071C14.8946 18.0196 15 17.7652 15 17.5C15 17.2348 14.8946 16.9804 14.7071 16.7929C14.5196 16.6054 14.2652 16.5 14 16.5H12.5V15C12.5 14.7348 12.3946 14.4804 12.2071 14.2929C12.0196 14.1054 11.7652 14 11.5 14C11.2348 14 10.9804 14.1054 10.7929 14.2929C10.6054 14.4804 10.5 14.7348 10.5 15V16.5H9C8.73478 16.5 8.48043 16.6054 8.29289 16.7929C8.10536 16.9804 8 17.2348 8 17.5C8 17.7652 8.10536 18.0196 8.29289 18.2071C8.48043 18.3946 8.73478 18.5 9 18.5H10.5V20C10.5 20.2652 10.6054 20.5196 10.7929 20.7071C10.9804 20.8946 11.2348 21 11.5 21C11.7652 21 12.0196 20.8946 12.2071 20.7071C12.3946 20.5196 12.5 20.2652 12.5 20V18.5H14Z" fill="black"/>
<path d="M36.5 16C37.0523 16 37.5 15.5523 37.5 15C37.5 14.4477 37.0523 14 36.5 14C35.9477 14 35.5 14.4477 35.5 15C35.5 15.5523 35.9477 16 36.5 16Z" fill="black"/>
<path d="M36.5 21C37.0523 21 37.5 20.5523 37.5 20C37.5 19.4477 37.0523 19 36.5 19C35.9477 19 35.5 19.4477 35.5 20C35.5 20.5523 35.9477 21 36.5 21Z" fill="black"/>
<path d="M39 18.5C39.5523 18.5 40 18.0523 40 17.5C40 16.9477 39.5523 16.5 39 16.5C38.4477 16.5 38 16.9477 38 17.5C38 18.0523 38.4477 18.5 39 18.5Z" fill="black"/>
<path d="M34 18.5C34.5523 18.5 35 18.0523 35 17.5C35 16.9477 34.5523 16.5 34 16.5C33.4477 16.5 33 16.9477 33 17.5C33 18.0523 33.4477 18.5 34 18.5Z" fill="black"/>
<path d="M16.5 22C15.8078 22 15.1311 22.2053 14.5555 22.5899C13.9799 22.9744 13.5313 23.5211 13.2664 24.1606C13.0015 24.8001 12.9322 25.5039 13.0673 26.1828C13.2023 26.8617 13.5356 27.4854 14.0251 27.9749C14.5146 28.4644 15.1383 28.7977 15.8172 28.9327C16.4961 29.0678 17.1999 28.9985 17.8394 28.7336C18.4789 28.4687 19.0256 28.0201 19.4101 27.4445C19.7947 26.8689 20 26.1922 20 25.5C20 24.5717 19.6313 23.6815 18.9749 23.0251C18.3185 22.3687 17.4283 22 16.5 22ZM16.5 27C16.2033 27 15.9133 26.912 15.6666 26.7472C15.42 26.5824 15.2277 26.3481 15.1142 26.074C15.0007 25.7999 14.9709 25.4983 15.0288 25.2074C15.0867 24.9164 15.2296 24.6491 15.4393 24.4393C15.6491 24.2296 15.9164 24.0867 16.2074 24.0288C16.4983 23.9709 16.7999 24.0007 17.074 24.1142C17.3481 24.2277 17.5824 24.42 17.7472 24.6666C17.912 24.9133 18 25.2033 18 25.5C18 25.8978 17.842 26.2794 17.5607 26.5607C17.2794 26.842 16.8978 27 16.5 27Z" fill="black"/>
<path d="M31.5 22C30.8078 22 30.1311 22.2053 29.5555 22.5899C28.9799 22.9744 28.5313 23.5211 28.2664 24.1606C28.0015 24.8001 27.9322 25.5039 28.0673 26.1828C28.2023 26.8617 28.5356 27.4854 29.0251 27.9749C29.5146 28.4644 30.1383 28.7977 30.8172 28.9327C31.4961 29.0678 32.1999 28.9985 32.8394 28.7336C33.4789 28.4687 34.0256 28.0201 34.4101 27.4445C34.7947 26.8689 35 26.1922 35 25.5C35 24.5717 34.6312 23.6815 33.9749 23.0251C33.3185 22.3687 32.4283 22 31.5 22V22ZM31.5 27C31.2033 27 30.9133 26.912 30.6666 26.7472C30.42 26.5824 30.2277 26.3481 30.1142 26.074C30.0006 25.7999 29.9709 25.4983 30.0288 25.2074C30.0867 24.9164 30.2296 24.6491 30.4393 24.4393C30.6491 24.2296 30.9164 24.0867 31.2074 24.0288C31.4983 23.9709 31.7999 24.0007 32.074 24.1142C32.3481 24.2277 32.5824 24.42 32.7472 24.6666C32.912 24.9133 33 25.2033 33 25.5C33 25.8978 32.842 26.2794 32.5607 26.5607C32.2794 26.842 31.8978 27 31.5 27V27Z" fill="black"/>
<path d="M22 19H21C20.7348 19 20.4804 19.1054 20.2929 19.2929C20.1054 19.4804 20 19.7348 20 20C20 20.2652 20.1054 20.5196 20.2929 20.7071C20.4804 20.8946 20.7348 21 21 21H22C22.2652 21 22.5196 20.8946 22.7071 20.7071C22.8946 20.5196 23 20.2652 23 20C23 19.7348 22.8946 19.4804 22.7071 19.2929C22.5196 19.1054 22.2652 19 22 19Z" fill="black"/>
<path d="M27 19H26C25.7348 19 25.4804 19.1054 25.2929 19.2929C25.1054 19.4804 25 19.7348 25 20C25 20.2652 25.1054 20.5196 25.2929 20.7071C25.4804 20.8946 25.7348 21 26 21H27C27.2652 21 27.5196 20.8946 27.7071 20.7071C27.8946 20.5196 28 20.2652 28 20C28 19.7348 27.8946 19.4804 27.7071 19.2929C27.5196 19.1054 27.2652 19 27 19Z" fill="black"/>
<path d="M44.482 14.743C44.1731 13.5892 43.6399 12.5076 42.9129 11.5599C42.1858 10.6122 41.2792 9.81706 40.2448 9.21985C39.2104 8.62264 38.0684 8.23508 36.8842 8.07931C35.7 7.92354 34.4967 8.00261 33.343 8.312C31.4417 8.92475 29.7593 10.0764 28.5 11.627C28.4018 11.747 28.2776 11.8429 28.1367 11.9076C27.9958 11.9722 27.842 12.0038 27.687 12H20.317C20.1621 12.0036 20.0083 11.9719 19.8675 11.9073C19.7266 11.8426 19.6023 11.7468 19.504 11.627C18.2442 10.0761 16.561 8.92441 14.659 8.312C13.5052 8.00231 12.3017 7.92301 11.1172 8.07864C9.93277 8.23427 8.79058 8.62177 7.75594 9.219C6.72131 9.81623 5.81449 10.6115 5.08733 11.5593C4.36016 12.5072 3.82689 13.589 3.518 14.743C-0.572001 30.009 0.313 38.2 6.224 39.783C9.891 40.767 13.224 38.483 16.155 32.99C16.273 32.997 16.387 33 16.5 33C18.3901 33.0059 20.2112 32.2906 21.592 31H26.408C27.7888 32.2906 29.6099 33.0059 31.5 33C31.613 33 31.727 33 31.845 32.99C34.332 37.654 37.115 40.005 40.145 40.005C40.6964 40.003 41.2451 39.9284 41.777 39.783C47.687 38.2 48.572 30.009 44.482 14.743ZM41.258 37.852C38.497 38.591 35.827 36.445 33.312 31.476C33.2176 31.2898 33.0674 31.1379 32.8823 31.0414C32.6973 30.9449 32.4866 30.9088 32.28 30.938C32.0218 30.9768 31.7611 30.9975 31.5 31C30.7592 31.002 30.0258 30.8529 29.3445 30.5618C28.6633 30.2707 28.0486 29.8437 27.538 29.307C27.4446 29.2098 27.3324 29.1325 27.2084 29.0797C27.0843 29.027 26.9508 28.9999 26.816 29H21.184C21.0492 28.9999 20.9157 29.027 20.7916 29.0797C20.6676 29.1325 20.5554 29.2098 20.462 29.307C19.9514 29.8437 19.3367 30.2707 18.6555 30.5618C17.9742 30.8529 17.2408 31.002 16.5 31C16.2389 30.9975 15.9782 30.9768 15.72 30.938C15.5134 30.9088 15.3027 30.9449 15.1177 31.0414C14.9326 31.1379 14.7824 31.2898 14.688 31.476C12.173 36.445 9.499 38.592 6.742 37.852C2.259 36.652 1.812 28.838 5.449 15.261C5.85397 13.7547 6.74329 12.4235 7.97978 11.4728C9.21627 10.522 10.7312 10.0045 12.291 10C12.9151 10.0004 13.5364 10.0828 14.139 10.245C15.6164 10.7408 16.9248 11.6417 17.915 12.845C18.2006 13.2077 18.5653 13.5003 18.9812 13.7005C19.3972 13.9006 19.8534 14.0031 20.315 14H27.685C28.1468 14.0029 28.6031 13.9002 29.0191 13.6997C29.4351 13.4991 29.7997 13.2061 30.085 12.843C31.0754 11.6399 32.3837 10.739 33.861 10.243C35.6786 9.75724 37.6147 10.0128 39.2441 10.9534C40.8734 11.8941 42.0628 13.443 42.551 15.26C46.188 28.838 45.741 36.65 41.258 37.852Z" fill="black"/>
</svg>
