<?xml version="1.0" encoding="UTF-8" standalone="no"?> <svg xmlns="http://www.w3.org/2000/svg" width="1706.67" height="1562.34" viewBox="0 0 1706.67 1562.34">
  <g id="Layer_x0020_1" transform="translate(-646.67 -718.83)">
    <path id="Path_235" data-name="Path 235" d="M752.06,718.83H2247.94c57.94,0,105.39,47.51,105.39,105.4V2175.77c0,57.94-47.5,105.4-105.39,105.4H752.06c-57.94,0-105.39-47.51-105.39-105.4V824.23c0-57.94,47.5-105.4,105.39-105.4Zm1495.88,53.34H752.06c-26.87,0-52.06,24.31-52.06,52.06V2175.77a52.178,52.178,0,0,0,52.06,52.06H2247.94a52.185,52.185,0,0,0,52.06-52.06V824.23a52.178,52.178,0,0,0-52.06-52.06Z" fill="#131313"/>
    <path id="Path_236" data-name="Path 236" d="M2326.67,1073.96a26.67,26.67,0,0,0,0-53.34H673.34a26.67,26.67,0,0,0,0,53.34Z" fill="#131313"/>
    <path id="Path_237" data-name="Path 237" d="M2190.53,923.07a26.67,26.67,0,0,0,0-53.34H1541a26.67,26.67,0,1,0,0,53.34Z" fill="#131313"/>
    <path id="Path_238" data-name="Path 238" d="M870.16,809.04A87.36,87.36,0,1,1,782.8,896.4,87.46,87.46,0,0,1,870.16,809.04Zm0,53.34a34.02,34.02,0,1,0,34.02,34.02A33.955,33.955,0,0,0,870.16,862.38Z" fill="#131313"/>
    <path id="Path_239" data-name="Path 239" d="M1110.59,809.04a87.36,87.36,0,1,1-87.36,87.36A87.459,87.459,0,0,1,1110.59,809.04Zm0,53.34a34.02,34.02,0,1,0,34.02,34.02A33.955,33.955,0,0,0,1110.59,862.38Z" fill="#131313"/>
    <path id="Path_240" data-name="Path 240" d="M1351.02,809.04a87.36,87.36,0,0,1,0,174.72c-47.19,0-87.36-40.26-87.36-87.36A87.421,87.421,0,0,1,1351.02,809.04Zm0,53.34A33.955,33.955,0,0,0,1317,896.4c0,16.41,15.97,34.02,34.02,34.02a34.02,34.02,0,0,0,0-68.04Z" fill="#131313"/>
    <path id="Path_241" data-name="Path 241" d="M829.62,1249.17h566.24a26.669,26.669,0,0,1,26.67,26.67v315.67a26.669,26.669,0,0,1-26.67,26.67H829.62a26.669,26.669,0,0,1-26.67-26.67V1275.84A26.669,26.669,0,0,1,829.62,1249.17Zm539.57,53.34H856.28v262.33h512.91Z" fill="#131313"/>
    <path id="Path_242" data-name="Path 242" d="M1526.03,1289.04a26.67,26.67,0,0,0,0,53.34h644.35a26.67,26.67,0,0,0,0-53.34H1526.03Z" fill="#131313"/>
    <path id="Path_243" data-name="Path 243" d="M1526.03,1524.97a26.67,26.67,0,0,0,0,53.34h644.35a26.67,26.67,0,0,0,0-53.34H1526.03Z" fill="#131313"/>
    <path id="Path_244" data-name="Path 244" d="M902.84,1763.34a26.67,26.67,0,0,0,0,53.34H2170.38a26.67,26.67,0,0,0,0-53.34H902.84Z" fill="#131313"/>
    <path id="Path_245" data-name="Path 245" d="M902.84,1999.27a26.67,26.67,0,0,0,0,53.34H2170.38a26.67,26.67,0,0,0,0-53.34H902.84Z" fill="#131313"/>
    <path id="Path_246" data-name="Path 246" d="M1317,896.4c0,16.41,15.97,34.02,34.02,34.02A34.02,34.02,0,1,0,1317,896.4Z" fill="#dedfdf" fill-rule="evenodd"/>
    <path id="Path_247" data-name="Path 247" d="M1110.59,930.42a34.02,34.02,0,1,0-34.02-34.02A33.91,33.91,0,0,0,1110.59,930.42Z" fill="#dedfdf" fill-rule="evenodd"/>
    <path id="Path_248" data-name="Path 248" d="M870.16,930.42a34.02,34.02,0,1,0-34.02-34.02A33.91,33.91,0,0,0,870.16,930.42Z" fill="#dedfdf" fill-rule="evenodd"/>
    <path id="Path_249" data-name="Path 249" d="M957.52,896.4a87.36,87.36,0,1,1-87.36-87.36A87.466,87.466,0,0,1,957.52,896.4Zm153.07,87.36a87.36,87.36,0,1,1,87.36-87.36A87.434,87.434,0,0,1,1110.59,983.76ZM2247.94,772.17H752.06c-26.87,0-52.06,24.31-52.06,52.06v196.4H2299.99V824.23a52.178,52.178,0,0,0-52.06-52.06ZM1351.01,983.76c-47.19,0-87.36-40.26-87.36-87.36a87.36,87.36,0,1,1,87.36,87.36Zm839.52-60.69H1541a26.67,26.67,0,1,1,0-53.34h649.53a26.67,26.67,0,0,1,0,53.34Z" fill="#9c9c9c" fill-rule="evenodd"/>
    <path id="Path_250" data-name="Path 250" d="M1369.2,1302.51H856.29v262.33H1369.2Z" fill="#f1f1f1" fill-rule="evenodd"/>
    <path id="Path_251" data-name="Path 251" d="M829.62,1249.17h566.24a26.669,26.669,0,0,1,26.67,26.67v315.67a26.669,26.669,0,0,1-26.67,26.67H829.62a26.669,26.669,0,0,1-26.67-26.67V1275.84A26.669,26.669,0,0,1,829.62,1249.17Zm1470.37-175.21H700v1101.8a52.178,52.178,0,0,0,52.06,52.06H2247.94a52.185,52.185,0,0,0,52.06-52.06V1073.96ZM902.83,1763.33H2170.37a26.67,26.67,0,0,1,0,53.34H902.83a26.67,26.67,0,0,1,0-53.34Zm-26.67,262.6a26.669,26.669,0,0,1,26.67-26.67H2170.37a26.67,26.67,0,0,1,0,53.34H902.83a26.669,26.669,0,0,1-26.67-26.67Zm623.19-474.3a26.669,26.669,0,0,1,26.67-26.67h644.35a26.67,26.67,0,0,1,0,53.34H1526.02a26.669,26.669,0,0,1-26.67-26.67Zm0-235.93a26.669,26.669,0,0,1,26.67-26.67h644.35a26.67,26.67,0,0,1,0,53.34H1526.02a26.669,26.669,0,0,1-26.67-26.67Z" fill="#e2e2e2" fill-rule="evenodd"/>
  </g>
</svg>
