<svg width="25" height="25" viewBox="0 0 25 25" fill="none" xmlns="http://www.w3.org/2000/svg">
<path d="M14.0625 18.75C14.0625 19.059 13.9709 19.3611 13.7992 19.6181C13.6275 19.875 13.3835 20.0753 13.0979 20.1936C12.8124 20.3118 12.4983 20.3428 12.1952 20.2825C11.8921 20.2222 11.6137 20.0734 11.3951 19.8549C11.1766 19.6363 11.0278 19.3579 10.9675 19.0548C10.9072 18.7517 10.9382 18.4376 11.0564 18.1521C11.1747 17.8666 11.375 17.6225 11.6319 17.4508C11.8889 17.2791 12.191 17.1875 12.5 17.1875C12.9144 17.1875 13.3118 17.3521 13.6049 17.6452C13.8979 17.9382 14.0625 18.3356 14.0625 18.75ZM12.5 7.8125C12.809 7.8125 13.1111 7.72086 13.3681 7.54917C13.625 7.37748 13.8253 7.13345 13.9436 6.84794C14.0618 6.56243 14.0928 6.24827 14.0325 5.94517C13.9722 5.64208 13.8234 5.36367 13.6049 5.14515C13.3863 4.92663 13.1079 4.77781 12.8048 4.71752C12.5017 4.65723 12.1876 4.68818 11.9021 4.80644C11.6165 4.9247 11.3725 5.12497 11.2008 5.38192C11.0291 5.63887 10.9375 5.94097 10.9375 6.25C10.9375 6.6644 11.1021 7.06183 11.3951 7.35486C11.6882 7.64788 12.0856 7.8125 12.5 7.8125ZM12.5 10.9375C12.191 10.9375 11.8889 11.0291 11.6319 11.2008C11.375 11.3725 11.1747 11.6165 11.0564 11.9021C10.9382 12.1876 10.9072 12.5017 10.9675 12.8048C11.0278 13.1079 11.1766 13.3863 11.3951 13.6049C11.6137 13.8234 11.8921 13.9722 12.1952 14.0325C12.4983 14.0928 12.8124 14.0618 13.0979 13.9436C13.3835 13.8253 13.6275 13.625 13.7992 13.3681C13.9709 13.1111 14.0625 12.809 14.0625 12.5C14.0625 12.0856 13.8979 11.6882 13.6049 11.3951C13.3118 11.1021 12.9144 10.9375 12.5 10.9375Z" fill="#666666"/>
</svg>
