<?xml version="1.0" encoding="UTF-8"?>
<!DOCTYPE svg PUBLIC "-//W3C//DTD SVG 1.1//EN" "http://www.w3.org/Graphics/SVG/1.1/DTD/svg11.dtd">
<!-- Creator: CorelDRAW -->
<svg xmlns="http://www.w3.org/2000/svg" xml:space="preserve" width="1.70666in" height="1.70666in" version="1.1" style="shape-rendering:geometricPrecision; text-rendering:geometricPrecision; image-rendering:optimizeQuality; fill-rule:evenodd; clip-rule:evenodd"
viewBox="0 0 1707 1707"
 xmlns:xlink="http://www.w3.org/1999/xlink">
 <defs>
  <style type="text/css">
   <![CDATA[
    .fil5 {fill:#008B78}
    .fil4 {fill:#00AB94}
    .fil9 {fill:#70787E}
    .fil8 {fill:#99A4AC}
    .fil0 {fill:#A14B4B}
    .fil1 {fill:#C75C5C}
    .fil7 {fill:#CEB088}
    .fil3 {fill:#E5C397}
    .fil2 {fill:#FED9A8}
    .fil6 {fill:#FFBE00}
   ]]>
  </style>
 </defs>
 <g id="Layer_x0020_1">
  <metadata id="CorelCorpID_0Corel-Layer"/>
  <g id="_557433456">
   <path class="fil0" d="M857 234c-14,0 -25,-11 -25,-23l0 -186c0,-14 11,-25 25,-25 14,0 23,11 23,25l0 184c2,14 -9,25 -23,25z"/>
   <path class="fil0" d="M1000 247c-3,0 -5,0 -7,-1 -13,-5 -21,-17 -17,-30l47 -173c4,-12 17,-21 29,-17 14,3 21,17 18,30l-47 173c-3,11 -12,18 -23,18z"/>
   <path class="fil0" d="M1137 298c-4,0 -8,-1 -13,-3 -11,-6 -15,-22 -8,-33l87 -152c7,-11 23,-16 34,-9 11,7 15,23 8,34l-87 152c-4,7 -13,11 -21,11z"/>
   <path class="fil0" d="M1246 391c-6,0 -12,-3 -16,-7 -10,-9 -10,-25 0,-34l130 -131c10,-10 25,-10 35,0 10,10 10,25 0,35l-131 130c-5,4 -12,7 -18,7z"/>
   <path class="fil0" d="M714 250c-11,0 -21,-7 -24,-18l-45 -174c-5,-12 4,-26 16,-29 13,-4 27,4 29,17l47 173c5,13 -4,27 -16,29 -3,2 -4,2 -7,2z"/>
   <path class="fil0" d="M579 302c-8,0 -16,-4 -20,-12l-89 -151c-7,-13 -3,-27 8,-34 11,-6 26,-2 33,9l89 151c7,11 3,26 -8,33 -4,3 -8,4 -13,4z"/>
   <path class="fil0" d="M471 399c-5,0 -12,-2 -16,-6l-132 -132c-10,-10 -10,-25 0,-35 10,-10 25,-10 34,0l132 132c10,10 10,25 0,35 -5,4 -11,6 -18,6z"/>
   <g>
    <path class="fil1" d="M719 1330c-2,0 -6,0 -9,-2 -237,-103 -404,-480 -342,-777 29,-136 130,-364 493,-364 0,0 1,0 1,0 362,0 465,228 493,365 62,296 -105,674 -343,776 -11,5 -284,2 -293,2z"/>
    <path class="fil2" d="M854 1274c-72,0 -130,-53 -130,-120l0 -125c0,-12 10,-22 22,-22 1,0 141,6 218,6 12,0 22,10 22,23l0 119c-2,66 -61,119 -132,119z"/>
    <path class="fil3" d="M724 1074l0 -45c0,-12 10,-22 22,-22 1,0 141,6 218,6 12,0 22,10 22,23l0 43c-39,16 -81,25 -125,25 -48,0 -95,-11 -137,-30z"/>
    <path class="fil2" d="M861 1075c-144,0 -272,-102 -300,-245 -3,-11 -9,-228 -9,-241l0 -16c0,-94 77,-170 171,-170l274 0c94,0 171,76 171,170l0 196c0,168 -139,306 -307,306z"/>
    <path class="fil4" d="M1386 1707l-1062 0c-13,0 -23,-10 -23,-23l0 -48c0,-667 1104,-667 1104,0l0 48c2,13 -8,23 -19,23z"/>
    <g>
     <path class="fil5" d="M587 1707l-45 0 0 -259c0,-12 10,-22 23,-22 12,0 22,10 22,22l0 259z"/>
     <path class="fil5" d="M1165 1707l-44 0 0 -259c0,-12 10,-22 22,-22 12,0 22,10 22,22l0 259z"/>
    </g>
   </g>
   <path class="fil6" d="M1195 842l-41 0c-14,0 -25,-11 -25,-25 0,-27 0,-129 0,-157 0,-14 11,-25 25,-25l41 0c26,0 49,21 49,47l0 109c-2,29 -23,51 -49,51zm-625 0l-42 0c-26,0 -48,-22 -48,-49l0 -108c0,-26 22,-47 48,-47l42 0c14,0 25,11 25,25 0,27 0,131 0,158 0,14 -11,21 -25,21z"/>
   <path class="fil7" d="M860 988c-24,0 -48,-10 -68,-30 -10,-8 -12,-23 -2,-34 8,-10 24,-11 35,-2 25,23 47,23 76,-1 11,-8 26,-7 35,4 8,11 7,26 -4,35 -25,18 -49,28 -72,28z"/>
   <path class="fil8" d="M1117 875l-208 0c-13,0 -25,-11 -25,-23l0 -30c0,-13 -11,-24 -24,-24 -14,0 -25,11 -25,24l0 30c0,13 -12,23 -25,23l-208 0c-32,0 -59,-26 -59,-58l0 -155c0,-32 27,-59 59,-59l514 0c33,0 60,27 60,59l0 155c1,32 -25,58 -59,58z"/>
   <path class="fil9" d="M973 802c-15,0 -32,-2 -43,-14 -5,-6 -12,-15 -12,-32 0,-13 3,-57 30,-83 14,-13 32,-18 53,-17 61,6 71,37 71,72 0,40 -32,74 -72,74 -5,0 -9,0 -13,0 -5,0 -10,0 -14,0z"/>
   <path class="fil9" d="M749 802c-5,0 -9,0 -13,0 -4,0 -8,0 -12,0 -41,0 -73,-34 -73,-74 0,-35 9,-66 71,-72 20,-1 39,4 53,17 28,26 30,70 30,83 0,17 -7,26 -12,32 -13,12 -29,14 -44,14z"/>
  </g>
 </g>
</svg>
