<?xml version="1.0" encoding="UTF-8"?>
<!DOCTYPE svg PUBLIC "-//W3C//DTD SVG 1.1//EN" "http://www.w3.org/Graphics/SVG/1.1/DTD/svg11.dtd">
<!-- Creator: CorelDRAW -->
<svg xmlns="http://www.w3.org/2000/svg" xml:space="preserve" width="512px" height="512px" version="1.1" style="shape-rendering:geometricPrecision; text-rendering:geometricPrecision; image-rendering:optimizeQuality; fill-rule:evenodd; clip-rule:evenodd"
viewBox="0 0 512 512"
 xmlns:xlink="http://www.w3.org/1999/xlink">
 <defs>
  <style type="text/css">
   <![CDATA[
    .fil3 {fill:aqua}
    .fil0 {fill:#4D4D4D}
    .fil2 {fill:#99A4AC}
    .fil4 {fill:#F1F1F1}
    .fil1 {fill:#F3A766}
   ]]>
  </style>
 </defs>
 <g id="Layer_x0020_1">
  <metadata id="CorelCorpID_0Corel-Layer"/>
  <path class="fil0" d="M162 333c-2,-1 -4,-2 -6,-4 -5,3 -10,6 -14,0 -3,-6 2,-10 7,-13l0 -7c-5,-3 -11,-7 -7,-13 4,-6 9,-3 14,0 2,-2 4,-3 6,-4 0,-5 0,-12 8,-12 8,0 7,7 7,12 3,1 5,2 7,4 5,-3 11,-7 15,0 3,7 -3,10 -7,13l0 8 4 2c8,5 1,17 -8,13l-4 -3c-2,2 -4,3 -7,4 0,6 0,12 -7,12 -7,0 -8,-6 -8,-12zm37 -305c23,-19 50,-25 74,-17 26,-14 66,-20 122,17 4,3 4,11 -3,13 -48,15 -38,64 -46,101 34,25 55,63 60,104 7,3 12,9 14,17l17 0c12,0 20,9 20,20l0 59c0,11 -9,21 -20,21l-17 0c-2,6 -6,12 -13,15l0 49c0,2 0,4 -2,6l-81 77c-2,2 -3,2 -6,2l-122 0c-1,0 -4,-1 -5,-2l-84 -78c-1,-1 -2,-3 -2,-5l0 -48c-7,-3 -12,-9 -14,-16l-16 0c-12,0 -20,-10 -20,-20l0 -60c0,-13 10,-20 22,-20l0 -135c0,-17 13,-31 30,-31 18,0 31,14 31,31l0 41c8,-9 16,-17 25,-25 -15,-38 3,-87 36,-116zm-61 166c-1,4 -13,20 -17,50l270 0c-5,-34 -22,-65 -49,-87 -7,15 -21,26 -49,26 -5,11 -19,33 -38,33 -12,0 -23,-8 -33,-22 -27,-8 -43,-22 -52,-37 -13,11 -24,23 -32,37zm-15 -2l0 -64c0,-21 -32,-21 -32,0l0 135 0 0c3,-8 8,-14 15,-17 2,-19 8,-37 17,-54zm186 306l-7 -26 -90 0 -6 26 103 0zm-116 -7l7 -28c1,-4 4,-6 7,-6l101 0c3,0 6,2 7,6l8 28 69 -67 0 -43 -110 0c-10,0 -7,-13 -7,-23 0,-11 -9,-20 -20,-20 -10,0 -19,9 -19,20 0,10 3,23 -7,23l-109 0 0 43 73 67zm229 -143l15 0c4,0 6,-3 6,-6l0 -59c0,-3 -3,-5 -6,-5l-15 0 0 70zm-332 -70l-15 0c-4,0 -6,3 -6,5l0 60c0,3 3,5 6,5l15 0 0 -70zm200 88l106 0c6,0 11,-5 11,-11l0 -85c0,-3 -4,-11 -7,-10l-4 -1c-31,0 -274,-1 -283,0 -5,1 -8,7 -8,12l0 84c0,6 5,11 11,11l106 0 0 -8c0,-19 15,-34 34,-34 19,0 34,15 34,34l0 8zm-33 -343c-48,-6 -94,59 -83,108 5,22 19,36 39,45 -13,-41 -1,-109 38,-148 2,-2 4,-4 6,-5zm59 -9c-83,0 -111,127 -84,169 6,9 15,19 24,18 11,-1 21,-19 25,-27 -6,-64 1,-106 20,-122 13,-12 28,-8 26,1 -2,9 -9,3 -17,10 -8,8 -20,32 -15,105 36,0 37,-22 40,-55 3,-28 6,-62 40,-80 -23,-14 -42,-19 -59,-19zm-17 421l-87 0c-9,0 -9,-15 0,-15l87 0c9,0 9,15 0,15zm21 -126c-4,-3 -10,-7 -6,-13 4,-6 9,-3 14,0 2,-2 4,-3 6,-4 0,-5 0,-12 8,-12 7,0 7,7 7,12 3,1 5,2 7,4 5,-3 10,-7 14,0 4,7 -2,10 -7,13l0 8c5,2 10,6 7,12 -3,6 -10,3 -14,0 -2,2 -4,3 -7,4 0,6 0,12 -7,12 -8,0 -8,-6 -8,-12 -2,-1 -5,-2 -7,-4 -4,3 -10,7 -14,0 -3,-7 2,-10 7,-13l0 -7zm19 11c3,-1 6,1 8,-2 2,-5 4,-5 1,-9 -4,-6 -13,-3 -13,4 0,3 2,6 4,7zm-176 -5c5,6 2,4 7,4 4,0 4,2 7,-4 3,-4 -3,-9 -7,-9 -5,0 -8,5 -7,9z"/>
  <path class="fil1" d="M121 244l270 0c-5,-34 -22,-65 -49,-87 -7,15 -21,26 -49,26 -5,11 -19,33 -38,33 -12,0 -23,-8 -33,-22 -27,-8 -43,-22 -52,-37 -13,11 -24,23 -32,37 -1,4 -13,20 -17,50z"/>
  <path class="fil2" d="M310 63c-8,8 -20,32 -15,105 36,0 37,-22 40,-55 3,-28 6,-62 40,-80 -23,-14 -42,-19 -59,-19 -83,0 -111,127 -84,169 6,9 15,19 24,18 11,-1 21,-19 25,-27 -6,-64 1,-106 20,-122 13,-12 28,-8 26,1 -2,9 -9,3 -17,10z"/>
  <path class="fil2" d="M213 176c-13,-41 -1,-109 38,-148 2,-2 4,-4 6,-5 -48,-6 -94,59 -83,108 5,22 19,36 39,45z"/>
  <path class="fil3" d="M396 259c-31,0 -274,-1 -283,0 -5,1 -8,7 -8,12l0 84c0,6 5,11 11,11l106 0 0 -8c0,-19 15,-34 34,-34 19,0 34,15 34,34l0 8 106 0c6,0 11,-5 11,-11l0 -85c0,-3 -4,-11 -7,-10l-4 -1zm-204 58l4 2c8,5 1,17 -8,13l-4 -3c-2,2 -4,3 -7,4 0,6 0,12 -7,12 -7,0 -8,-6 -8,-12 -2,-1 -4,-2 -6,-4 -5,3 -10,6 -14,0 -3,-6 2,-10 7,-13l0 -7c-5,-3 -11,-7 -7,-13 4,-6 9,-3 14,0 2,-2 4,-3 6,-4 0,-5 0,-12 8,-12 8,0 7,7 7,12 3,1 5,2 7,4 5,-3 11,-7 15,0 3,7 -3,10 -7,13l0 8zm128 -8c-4,-3 -10,-7 -6,-13 4,-6 9,-3 14,0 2,-2 4,-3 6,-4 0,-5 0,-12 8,-12 7,0 7,7 7,12 3,1 5,2 7,4 5,-3 10,-7 14,0 4,7 -2,10 -7,13l0 8c5,2 10,6 7,12 -3,6 -10,3 -14,0 -2,2 -4,3 -7,4 0,6 0,12 -7,12 -8,0 -8,-6 -8,-12 -2,-1 -5,-2 -7,-4 -4,3 -10,7 -14,0 -3,-7 2,-10 7,-13l0 -7z"/>
  <path class="fil4" d="M177 315c3,-4 -3,-9 -7,-9 -5,0 -8,5 -7,9 5,6 2,4 7,4 4,0 4,2 7,-4z"/>
  <path class="fil4" d="M348 309c-4,-6 -13,-3 -13,4 0,3 2,6 4,7 3,-1 6,1 8,-2 2,-5 4,-5 1,-9z"/>
  <path class="fil1" d="M392 381l-110 0c-10,0 -7,-13 -7,-23 0,-11 -9,-20 -20,-20 -10,0 -19,9 -19,20 0,10 3,23 -7,23l-109 0 0 43 73 67 7 -28c1,-4 4,-6 7,-6l101 0c3,0 6,2 7,6l8 28 69 -67 0 -43zm-93 39c9,0 9,15 0,15l-87 0c-9,0 -9,-15 0,-15l87 0z"/>
  <path class="fil2" d="M422 278l0 70 15 0c4,0 6,-3 6,-6l0 -59c0,-3 -3,-5 -6,-5l-15 0z"/>
  <polygon class="fil2" points="302,472 212,472 206,498 309,498 "/>
  <path class="fil2" d="M90 348l0 -70 -15 0c-4,0 -6,3 -6,5l0 60c0,3 3,5 6,5l15 0z"/>
  <path class="fil2" d="M91 263c3,-8 8,-14 15,-17 2,-19 8,-37 17,-54l0 -64c0,-21 -32,-21 -32,0l0 135 0 0z"/>
 </g>
</svg>
