<?xml version="1.0" encoding="UTF-8"?>
<!DOCTYPE svg PUBLIC "-//W3C//DTD SVG 1.1//EN" "http://www.w3.org/Graphics/SVG/1.1/DTD/svg11.dtd">
<!-- Creator: CorelDRAW -->
<svg xmlns="http://www.w3.org/2000/svg" xml:space="preserve" width="512px" height="512px" version="1.1" style="shape-rendering:geometricPrecision; text-rendering:geometricPrecision; image-rendering:optimizeQuality; fill-rule:evenodd; clip-rule:evenodd"
viewBox="0 0 512 512"
 xmlns:xlink="http://www.w3.org/1999/xlink">
 <defs>
  <style type="text/css">
   <![CDATA[
    .fil1 {fill:#AADDE3}
    .fil0 {fill:#52ABB3}
    .fil2 {fill:#FEFEFE}
   ]]>
  </style>
 </defs>
 <g id="Layer_x0020_1">
  <metadata id="CorelCorpID_0Corel-Layer"/>
  <path class="fil0" d="M447 512l-382 0c-4,0 -7,-3 -7,-7l0 -114c0,-49 29,-89 73,-106 -3,-84 3,-266 95,-285l61 0c92,19 97,202 95,286 44,17 72,57 72,105l0 114c1,4 -2,7 -7,7zm-133 -227c-6,-6 -15,-18 -21,-37 -23,17 -49,17 -72,1 -6,20 -15,31 -21,37 20,37 94,37 114,-1zm53 -4c2,-70 -2,-249 -82,-267l-57 0c-80,18 -84,197 -83,267 15,-4 28,-5 44,-5 4,-3 15,-15 19,-37 -18,-19 -30,-47 -30,-72l0 -65c0,-4 3,-8 7,-8l142 0c5,0 8,4 8,8l0 65c0,24 -11,51 -29,70 4,23 16,35 20,39 15,0 27,1 41,5zm-111 -35c34,0 64,-43 64,-79l0 -58 -128 0 0 58c0,32 28,79 64,79zm13 239l73 -63 -40 -40c-4,-4 -3,-10 2,-12l74 -28 0 -43c-17,-6 -31,-8 -50,-8 -4,8 -10,16 -18,21l-41 173zm-134 -143l74 28c6,2 6,8 3,12l-41 40 73 63 -41 -174c-7,-6 -12,-12 -16,-20 -21,0 -33,1 -52,8l0 43zm102 156l-82 -70c-4,-2 -3,-8 -1,-10l39 -38 -68 -26c-3,-1 -5,-4 -5,-7l0 -40c-29,17 -47,48 -47,84l0 107 164 0zm20 -25l35 -151c-22,8 -49,8 -72,-1l37 152zm136 -166l0 40c0,3 -2,6 -4,6l-69 26 39 39c2,2 3,7 -1,10l-81 70 163 0 0 -107c0,-36 -18,-67 -47,-84z"/>
  <path class="fil1" d="M200 286c20,37 94,37 114,-1 -6,-6 -15,-18 -21,-37 -23,17 -49,17 -72,1 -6,20 -15,31 -21,37z"/>
  <path class="fil2" d="M192 167c0,32 28,79 64,79 34,0 64,-43 64,-79l0 -58 -128 0 0 58z"/>
  <path class="fil1" d="M185 94l142 0c5,0 8,4 8,8l0 65c0,24 -11,51 -29,70 4,23 16,35 20,39 15,0 27,1 41,5 2,-70 -2,-249 -82,-267l-57 0c-80,18 -84,197 -83,267 15,-4 28,-5 44,-5 4,-3 15,-15 19,-37 -18,-19 -30,-47 -30,-72l0 -65c0,-4 3,-8 7,-8z"/>
  <path class="fil2" d="M378 299c-17,-6 -31,-8 -50,-8 -4,8 -10,16 -18,21l-41 173 73 -63 -40 -40c-4,-4 -3,-10 2,-12l74 -28 0 -43z"/>
  <path class="fil1" d="M257 473l35 -151c-22,8 -49,8 -72,-1l37 152z"/>
  <path class="fil2" d="M244 485l-41 -174c-7,-6 -12,-12 -16,-20 -21,0 -33,1 -52,8l0 43 74 28c6,2 6,8 3,12l-41 40 73 63z"/>
  <path class="fil1" d="M320 379l39 39c2,2 3,7 -1,10l-81 70 163 0 0 -107c0,-36 -18,-67 -47,-84l0 40c0,3 -2,6 -4,6l-69 26z"/>
  <path class="fil1" d="M155 428c-4,-2 -3,-8 -1,-10l39 -38 -68 -26c-3,-1 -5,-4 -5,-7l0 -40c-29,17 -47,48 -47,84l0 107 164 0 -82 -70z"/>
 </g>
</svg>
