<?xml version="1.0" encoding="UTF-8" standalone="no"?> <svg width="64" height="64" viewBox="0 0 64 64" fill="none" xmlns="http://www.w3.org/2000/svg">
<path d="M42.82 15C39.35 14.31 35.99 15.87 33.44 17.16C20.87 9.25002 7.70996 23.51 10.1 37.56C11.6 47.7 22 65.36 33.44 60C44.82 65.4 55.32 47.62 56.77 37.56C58.36 26.93 52.1 16.79 42.82 15Z" fill="#C01823"/>
<path d="M15.3998 38.51C15.1572 38.5124 14.922 38.4265 14.738 38.2682C14.554 38.11 14.4338 37.8903 14.3998 37.65C13.1098 28.97 18.2298 20.65 25.8198 19.19C26.0851 19.1396 26.3594 19.1967 26.5826 19.3486C26.8058 19.5005 26.9595 19.7348 27.0098 20C27.0602 20.2652 27.0032 20.5396 26.8513 20.7628C26.6994 20.9859 26.4651 21.1396 26.1998 21.19C19.6498 22.48 15.1998 29.75 16.3798 37.39C16.3967 37.5294 16.384 37.6707 16.3426 37.8049C16.3013 37.939 16.2321 38.063 16.1397 38.1686C16.0472 38.2742 15.9336 38.3593 15.8061 38.4181C15.6786 38.4769 15.5402 38.5082 15.3998 38.51V38.51Z" fill="white"/>
<path d="M46.9298 5.75C46.9298 6.01522 46.8245 6.26957 46.6369 6.45711C46.4494 6.64464 46.1951 6.75 45.9298 6.75C43.1877 6.75275 40.5366 7.73441 38.4539 9.51824C36.3713 11.3021 34.9939 13.7708 34.5698 16.48V16.48C34.4908 17.0098 34.4474 17.5444 34.4398 18.08C34.4083 18.1333 34.3677 18.1807 34.3198 18.22C34.2157 18.3161 34.0923 18.389 33.9578 18.4339C33.8233 18.4787 33.6809 18.4944 33.5398 18.48C33.4798 18.48 33.0798 18.48 32.4498 18.31C32.4419 16.5338 32.7846 14.7735 33.4583 13.13C34.1319 11.4864 35.1233 9.99202 36.3756 8.73233C37.6278 7.47264 39.1164 6.47245 40.7559 5.78909C42.3954 5.10572 44.1536 4.75261 45.9298 4.75C46.1951 4.75 46.4494 4.85536 46.6369 5.04289C46.8245 5.23043 46.9298 5.48478 46.9298 5.75Z" fill="#863D11"/>
<path d="M34.5699 16.49C33.7899 7.57 27.1199 3.75 21.4199 3.09C21.2805 3.07702 21.1399 3.09346 21.0073 3.13825C20.8746 3.18304 20.7528 3.25518 20.6499 3.35C20.545 3.44462 20.4614 3.56038 20.4045 3.68965C20.3476 3.81892 20.3188 3.95877 20.3199 4.1C20.5399 10.98 24.7499 17.41 33.5399 18.5C33.6809 18.5144 33.8233 18.4987 33.9578 18.4539C34.0923 18.409 34.2157 18.3361 34.3199 18.24C34.3677 18.2007 34.4083 18.1533 34.4399 18.1C34.7799 17.5 34.6099 17.47 34.5699 16.49Z" fill="#4CB748"/>
</svg>
