<?xml version="1.0" encoding="UTF-8" standalone="no"?> <svg xmlns="http://www.w3.org/2000/svg" viewBox="0 0 32 32"><defs><style>.cls-1{fill:#2b6f3e;}.cls-2{fill:#4fb15c;}.cls-3{fill:#89d84f;}.cls-4{fill:#4cab00;}.cls-5{fill:#b8e895;}.cls-6{fill:#fff;}.cls-7{fill:#d9e021;}.cls-8{fill:#004e29;}</style></defs><title>pineapple 9</title><g id="pineapple_9" data-name="pineapple 9"><path class="cls-1" d="M15.76,8a.55.55,0,0,1,0,.18L15,11.24a1,1,0,0,1-.7.72l-1.76.5a.84.84,0,0,1-.27,0,1,1,0,0,1-1-.71A7.59,7.59,0,0,0,10.1,9.45h0A12.1,12.1,0,0,0,7.4,6.8a1,1,0,0,1-.35-1.11A1,1,0,0,1,8,5h.1a11.81,11.81,0,0,1,7.27,2.13A1,1,0,0,1,15.76,8Z"/><path class="cls-1" d="M24.6,6.8a12.64,12.64,0,0,0-2.7,2.66l-.26.37-.12.2a6.94,6.94,0,0,0-.8,1.76,1,1,0,0,1-1,.71.84.84,0,0,1-.27,0L17.77,12h0a1,1,0,0,1-.7-.72l-.77-3.06a.55.55,0,0,1,0-.18,1,1,0,0,1,.4-.87,9.85,9.85,0,0,1,2.5-1.34l.22-.08a11.51,11.51,0,0,1,2.51-.58,14.78,14.78,0,0,1,2-.13H24a1,1,0,0,1,.94.69A1,1,0,0,1,24.6,6.8Z"/><path class="cls-2" d="M19.77,11.64A1,1,0,0,1,19,12h-.17a16.3,16.3,0,0,0-5.66,0,1,1,0,0,1-.94-.35,1,1,0,0,1-.17-1l.52-1.38.39-1,1-2.55,1.13-3a1,1,0,0,1,1.88,0L19,8.23l.27.71.09.23.55,1.48A1,1,0,0,1,19.77,11.64Z"/><path class="cls-3" d="M24.65,24.76a5,5,0,0,1-5,5.24h-7.3a5,5,0,0,1-5-5.23c0-.06,0-.13,0-.19l.2-2.42.08-.93L7.75,20h0L8,17.38l0-.46a6.46,6.46,0,0,1,.12-1.25,6.66,6.66,0,0,1,.19-.77,6.56,6.56,0,0,1,.23-.62,6.89,6.89,0,0,1,2.17-2.81A7,7,0,0,1,15,10h2a7,7,0,0,1,6.45,4.28,6.56,6.56,0,0,1,.23.62A7.19,7.19,0,0,1,24,17l0,.38.22,2.6.11,1.25.08.93.2,2.42C24.64,24.64,24.65,24.7,24.65,24.76Z"/><path class="cls-4" d="M10,24.59l.66-.67A20,20,0,0,1,10,19a1,1,0,0,1-.7-.29L8,17.38l-.4,4.78.15.13Z"/><path class="cls-4" d="M10,16.55a36.64,36.64,0,0,1,.67-5.08,6.9,6.9,0,0,0-2.39,3.44L10,16.59Z"/><path class="cls-4" d="M9.29,26.71,7.36,24.78a5,5,0,0,0,5,5.22h2.87a8.45,8.45,0,0,1-3.8-4l-.71.71A1,1,0,0,1,9.29,26.71Z"/><path class="cls-5" d="M10,19a1,1,0,0,0,.72-.29L13,16.41l2.29,2.3a1,1,0,0,0,1.42,0L19,16.41l2.29,2.3a1,1,0,0,0,1.42,0L24,17.38,24,17a7.19,7.19,0,0,0-.32-2.1L22,16.59l-2.29-2.3a1,1,0,0,0-1.42,0L16,16.59l-2.29-2.3a1,1,0,0,0-1.42,0L10,16.55C10,17.34,10,18.16,10,19Z"/><path class="cls-3" d="M10,19c0-.84,0-1.66,0-2.45l0,0L8.32,14.91l-.05.15a4.37,4.37,0,0,0-.12.49l-.06.34A2.87,2.87,0,0,0,8,16.2c0,.23,0,.47,0,.72l0,.46,1.33,1.33A1,1,0,0,0,10,19Z"/><path class="cls-5" d="M24.64,24.58l-.2-2.42-.15.13L22,24.59l-2.29-2.3a1,1,0,0,0-1.42,0L16,24.59l-2.29-2.3a1,1,0,0,0-1.42,0l-1.63,1.63A13.22,13.22,0,0,0,11.42,26L13,24.41l2.29,2.3a1,1,0,0,0,1.42,0L19,24.41l2.29,2.3a1,1,0,0,0,1.42,0l1.94-1.95C24.65,24.7,24.64,24.64,24.64,24.58Z"/><path class="cls-3" d="M10,24.59l-2.29-2.3-.15-.13-.2,2.42c0,.07,0,.14,0,.2l1.93,1.93a1,1,0,0,0,1.42,0l.71-.71a13.22,13.22,0,0,1-.76-2.08Z"/><circle class="cls-4" cx="16" cy="18" r="4"/><circle class="cls-6" cx="16" cy="17" r="4"/><circle class="cls-7" cx="16" cy="17" r="3"/><circle class="cls-8" cx="16" cy="17" r="2"/><circle class="cls-6" cx="15.5" cy="17.5" r="0.5"/><circle class="cls-6" cx="17" cy="16" r="1"/><path class="cls-4" d="M19.34,24.55,19,26.39a2,2,0,0,1-.38.87,1.68,1.68,0,0,1-.25.29,1.7,1.7,0,0,1-1.14.45H14.77a1.7,1.7,0,0,1-1.14-.45,1.68,1.68,0,0,1-.25-.29,2,2,0,0,1-.38-.87l-.34-1.84a1,1,0,0,1,1.11-1.17l1.33.37h0a3.29,3.29,0,0,0,1.76,0h0l1.33-.37A1,1,0,0,1,19.34,24.55Z"/><path class="cls-8" d="M19.69,23.55l-.37,1.84a2.17,2.17,0,0,1-.7,1.16,2,2,0,0,1-1.26.45H14.64a2,2,0,0,1-1.26-.45,2.17,2.17,0,0,1-.7-1.16l-.37-1.84a1,1,0,0,1,1.22-1.17l1.47.37h0a4,4,0,0,0,1.94,0h0l1.47-.37A1,1,0,0,1,19.69,23.55Z"/><path class="cls-7" d="M18.62,26.55a2,2,0,0,1-1.26.45H14.64a2,2,0,0,1-1.26-.45,3,3,0,0,1,5.24,0Z"/></g></svg>