<svg width="50" height="50" viewBox="0 0 50 50" fill="none" xmlns="http://www.w3.org/2000/svg">
<g clip-path="url(#clip0_12_186)">
<path fill-rule="evenodd" clip-rule="evenodd" d="M46.1344 0.234374C46.3607 0.374356 46.5475 0.569829 46.6772 0.802259C46.8068 1.03469 46.8749 1.29637 46.875 1.5625V48.4375C46.875 48.8519 46.7104 49.2493 46.4174 49.5424C46.1243 49.8354 45.7269 50 45.3125 50H35.9375C35.5231 50 35.1257 49.8354 34.8326 49.5424C34.5396 49.2493 34.375 48.8519 34.375 48.4375V43.75H31.25V48.4375C31.25 48.8519 31.0854 49.2493 30.7924 49.5424C30.4993 49.8354 30.1019 50 29.6875 50H1.5625C1.1481 50 0.750671 49.8354 0.457646 49.5424C0.16462 49.2493 0 48.8519 0 48.4375V31.25C0.000248896 30.9222 0.103588 30.6028 0.29539 30.3369C0.487193 30.0711 0.757744 29.8723 1.06875 29.7687L18.75 23.875V14.0625C18.75 13.7726 18.8307 13.4884 18.983 13.2417C19.1353 12.995 19.3533 12.7955 19.6125 12.6656L44.6125 0.165624C44.851 0.0462671 45.116 -0.0100757 45.3824 0.00195834C45.6488 0.0139924 45.9076 0.0940027 46.1344 0.234374ZM18.75 27.1688L3.125 32.375V46.875H18.75V27.1688ZM21.875 46.875H28.125V42.1875C28.125 41.7731 28.2896 41.3757 28.5826 41.0826C28.8757 40.7896 29.2731 40.625 29.6875 40.625H35.9375C36.3519 40.625 36.7493 40.7896 37.0424 41.0826C37.3354 41.3757 37.5 41.7731 37.5 42.1875V46.875H43.75V4.09062L21.875 15.0281V46.875Z" fill="#060606"/>
<path d="M6.25 34.375H9.375V37.5H6.25V34.375ZM12.5 34.375H15.625V37.5H12.5V34.375ZM6.25 40.625H9.375V43.75H6.25V40.625ZM12.5 40.625H15.625V43.75H12.5V40.625ZM25 28.125H28.125V31.25H25V28.125ZM31.25 28.125H34.375V31.25H31.25V28.125ZM25 34.375H28.125V37.5H25V34.375ZM31.25 34.375H34.375V37.5H31.25V34.375ZM37.5 28.125H40.625V31.25H37.5V28.125ZM37.5 34.375H40.625V37.5H37.5V34.375ZM25 21.875H28.125V25H25V21.875ZM31.25 21.875H34.375V25H31.25V21.875ZM37.5 21.875H40.625V25H37.5V21.875ZM25 15.625H28.125V18.75H25V15.625ZM31.25 15.625H34.375V18.75H31.25V15.625ZM37.5 15.625H40.625V18.75H37.5V15.625ZM37.5 9.375H40.625V12.5H37.5V9.375Z" fill="#060606"/>
</g>
<defs>
<clipPath id="clip0_12_186">
<rect width="50" height="50" fill="white"/>
</clipPath>
</defs>
</svg>
