<svg width="32" height="32" viewBox="0 0 32 32" fill="none" xmlns="http://www.w3.org/2000/svg">
<path d="M11.1792 3.30548L10.032 3.65108C9.01051 3.95913 8.09829 4.55257 7.40269 5.36155C6.7071 6.17053 6.25707 7.16138 6.10559 8.21748C5.63039 11.5263 6.69279 15.3951 9.25439 19.8319C11.8096 24.2575 14.6224 27.1087 17.7184 28.3567C18.7132 28.7576 19.8021 28.8644 20.8558 28.6645C21.9095 28.4645 22.8837 27.9662 23.6624 27.2287L24.5296 26.4063C25.0927 25.8733 25.4432 25.1541 25.5159 24.3822C25.5886 23.6102 25.3785 22.8382 24.9248 22.2095L22.7552 19.2015C22.4619 18.7954 22.0488 18.4913 21.574 18.3317C21.0991 18.1722 20.5862 18.1653 20.1072 18.3119L16.8256 19.3151L16.7408 19.3311C16.3792 19.3839 15.544 18.6015 14.504 16.7999C13.416 14.9151 13.192 13.8127 13.4912 13.5279L15.16 11.9711C15.7702 11.4022 16.1871 10.6566 16.3521 9.83879C16.5171 9.02099 16.4219 8.17206 16.08 7.41108L15.0208 5.05748C14.7023 4.34923 14.1371 3.78097 13.4306 3.45862C12.7241 3.13628 11.9245 3.08185 11.1808 3.30548H11.1792ZM13.5632 5.71348L14.6192 8.06708C14.8248 8.52345 14.8824 9.03279 14.7836 9.52353C14.6849 10.0143 14.4349 10.4617 14.0688 10.8031L12.3952 12.3615C11.3248 13.3759 11.68 15.1071 13.12 17.5999C14.4736 19.9455 15.7088 21.1039 17.0368 20.9023L17.2352 20.8607L20.576 19.8415C20.7357 19.7924 20.9067 19.7946 21.0651 19.8477C21.2235 19.9008 21.3613 20.0021 21.4592 20.1375L23.6288 23.1455C23.856 23.4598 23.9613 23.8459 23.9251 24.2321C23.8889 24.6182 23.7136 24.9781 23.432 25.2447L22.5632 26.0671C22.0069 26.5935 21.3113 26.9492 20.5588 27.0919C19.8063 27.2345 19.0287 27.1582 18.3184 26.8719C15.6016 25.7775 13.0336 23.1743 10.6416 19.0319C8.24319 14.8799 7.27199 11.3487 7.68959 8.44468C7.79769 7.69017 8.11911 6.98225 8.61602 6.40428C9.11293 5.8263 9.76463 5.40233 10.4944 5.18228L11.6416 4.83668C12.0135 4.72492 12.4134 4.75225 12.7667 4.91358C13.1199 5.0749 13.4025 5.35921 13.5616 5.71348H13.5632Z" fill="white"/>
</svg>
