<svg width="38" height="38" viewBox="0 0 38 38" fill="none" xmlns="http://www.w3.org/2000/svg">
<path fill-rule="evenodd" clip-rule="evenodd" d="M19 0.666626C8.87502 0.666626 0.666687 8.87496 0.666687 19C0.666687 29.125 8.87502 37.3333 19 37.3333C29.125 37.3333 37.3334 29.125 37.3334 19C37.3334 8.87496 29.125 0.666626 19 0.666626ZM22.6784 13.5116C22.982 13.1973 23.1499 12.7763 23.1461 12.3393C23.1423 11.9023 22.9671 11.4843 22.6581 11.1753C22.349 10.8662 21.931 10.691 21.494 10.6872C21.057 10.6834 20.636 10.8514 20.3217 11.155L13.655 17.8216C13.3426 18.1342 13.167 18.558 13.167 19C13.167 19.4419 13.3426 19.8657 13.655 20.1783L20.3217 26.845C20.636 27.1486 21.057 27.3165 21.494 27.3128C21.931 27.309 22.349 27.1337 22.6581 26.8247C22.9671 26.5156 23.1423 26.0976 23.1461 25.6606C23.1499 25.2236 22.982 24.8026 22.6784 24.4883L17.19 19L22.6784 13.5116Z" fill="white"/>
</svg>
