<svg width="24" height="34" viewBox="0 0 24 34" fill="none" xmlns="http://www.w3.org/2000/svg">
<path d="M3.95331 1.065L5.74664 0.491665C7.42831 -0.0450017 9.22497 0.823332 9.94497 2.52L11.3783 5.9C12.0016 7.37167 11.655 9.10333 10.5216 10.18L7.36331 13.1767C7.55831 14.97 8.16164 16.735 9.17164 18.4717C10.1308 20.1519 11.4173 21.6226 12.955 22.7967L16.7483 21.53C18.185 21.0517 19.7516 21.6033 20.6316 22.8983L22.6866 25.915C23.7116 27.4217 23.5266 29.4983 22.255 30.775L20.8933 32.1433C19.5366 33.505 17.5983 34 15.8066 33.44C11.5733 32.12 7.68497 28.2017 4.13497 21.685C0.579975 15.1583 -0.675025 9.61833 0.371641 5.07167C0.811641 3.15833 2.17331 1.63333 3.95331 1.065Z" fill="white"/>
</svg>
