<svg width="38" height="38" viewBox="0 0 38 38" fill="none" xmlns="http://www.w3.org/2000/svg">
<path fill-rule="evenodd" clip-rule="evenodd" d="M18.9999 0.666626C29.1249 0.666626 37.3333 8.87496 37.3333 19C37.3333 29.125 29.1249 37.3333 18.9999 37.3333C8.87492 37.3333 0.666588 29.125 0.666588 19C0.666588 8.87496 8.87492 0.666626 18.9999 0.666626ZM15.3216 13.5116C15.018 13.1973 14.85 12.7763 14.8538 12.3393C14.8576 11.9023 15.0329 11.4843 15.3419 11.1753C15.6509 10.8662 16.0689 10.691 16.5059 10.6872C16.9429 10.6834 17.3639 10.8514 17.6783 11.155L24.3449 17.8216C24.6574 18.1342 24.8329 18.558 24.8329 19C24.8329 19.4419 24.6574 19.8657 24.3449 20.1783L17.6783 26.845C17.3639 27.1486 16.9429 27.3165 16.5059 27.3127C16.0689 27.309 15.6509 27.1337 15.3419 26.8247C15.0329 26.5156 14.8576 26.0976 14.8538 25.6606C14.85 25.2236 15.018 24.8026 15.3216 24.4883L20.8099 19L15.3216 13.5116Z" fill="white"/>
</svg>
