<svg width="30" height="30" viewBox="0 0 30 30" fill="none" xmlns="http://www.w3.org/2000/svg">
<path fill-rule="evenodd" clip-rule="evenodd" d="M1.875 15C1.875 14.7513 1.97377 14.5129 2.14959 14.3371C2.3254 14.1612 2.56386 14.0625 2.8125 14.0625H24.9244L19.0237 8.16371C18.8477 7.98768 18.7488 7.74892 18.7488 7.49996C18.7488 7.25101 18.8477 7.01225 19.0237 6.83621C19.1998 6.66018 19.4385 6.56128 19.6875 6.56128C19.9365 6.56128 20.1752 6.66018 20.3513 6.83621L27.8513 14.3362C27.9386 14.4233 28.0078 14.5268 28.0551 14.6407C28.1023 14.7545 28.1267 14.8766 28.1267 15C28.1267 15.1233 28.1023 15.2454 28.0551 15.3593C28.0078 15.4732 27.9386 15.5766 27.8513 15.6637L20.3513 23.1637C20.1752 23.3398 19.9365 23.4386 19.6875 23.4386C19.4385 23.4386 19.1998 23.3398 19.0237 23.1637C18.8477 22.9877 18.7488 22.7489 18.7488 22.5C18.7488 22.251 18.8477 22.0123 19.0237 21.8362L24.9244 15.9375H2.8125C2.56386 15.9375 2.3254 15.8387 2.14959 15.6629C1.97377 15.4871 1.875 15.2486 1.875 15V15Z" fill="white"/>
</svg>
