<svg width="80" height="80" viewBox="0 0 80 80" fill="none" xmlns="http://www.w3.org/2000/svg">
<circle cx="40" cy="40" r="39.5" fill="url(#paint0_linear_821_7)" stroke="white"/>
<path d="M34.7768 38.9941L34.7732 38.9876C34.5779 38.639 34.527 38.2948 34.6451 37.9661C34.7443 37.6901 34.9474 37.4873 35.0689 37.3659L35.0788 37.356C35.2141 37.2207 35.3671 37.0356 35.5331 36.8347C35.6197 36.73 35.7098 36.621 35.8028 36.5125C35.9837 36.3014 36.0619 36.1445 36.2044 35.8585C36.2155 35.8363 36.2269 35.8132 36.2389 35.7893C36.279 35.7023 36.2836 35.6383 36.278 35.5854C36.2716 35.524 36.2484 35.4529 36.2014 35.3588C36.0679 35.0918 35.046 32.5964 34.6452 31.5946C34.4665 31.1669 34.3249 31.0818 34.2859 31.0631C34.2624 31.0518 34.2343 31.0441 34.1843 31.0404C34.157 31.0384 34.1278 31.0377 34.0862 31.0372C34.0829 31.0372 34.0794 31.0371 34.0758 31.0371C34.0442 31.0367 34.0016 31.0362 33.9581 31.0339H33C32.7725 31.0339 32.3893 31.1125 32.0335 31.4971C31.9987 31.5365 31.9597 31.5794 31.9174 31.6259C31.4086 32.185 30.4189 33.2726 30.4189 35.3582C30.4189 36.482 30.8319 37.6163 31.2971 38.5321C31.7538 39.431 32.2394 40.0784 32.3623 40.2422L32.3662 40.2474L32.3705 40.2531L32.3747 40.259C32.386 40.2751 32.4032 40.3002 32.4261 40.3335C32.9205 41.0546 36.0769 45.658 40.7386 47.6693L40.7421 47.6709C41.9135 48.1871 42.8256 48.4846 43.5447 48.7043L43.5519 48.7065L43.5518 48.7065C44.6448 49.0585 45.6531 49.0068 46.4899 48.8902C46.8819 48.8327 47.5579 48.5663 48.1958 48.1563C48.8467 47.7379 49.3275 47.2528 49.4732 46.8303L49.4757 46.823L49.4757 46.8231C49.6738 46.2759 49.7706 45.7768 49.8023 45.3983C49.8183 45.2084 49.8171 45.057 49.8072 44.9502C49.8027 44.9021 49.7972 44.8716 49.7936 44.8547C49.7759 44.8389 49.7373 44.8103 49.6552 44.7666C49.5701 44.7213 49.4805 44.6801 49.3651 44.6271C49.2803 44.5881 49.1816 44.5427 49.0606 44.4846C48.927 44.4205 48.6715 44.296 48.3573 44.1429C47.4379 43.695 46.0158 43.0021 45.6737 42.8596C45.5648 42.8219 45.4843 42.7963 45.4159 42.7809C45.3467 42.7654 45.3108 42.7653 45.2933 42.7673C45.282 42.7685 45.2719 42.7708 45.2535 42.7833C45.2307 42.7987 45.1873 42.8357 45.1266 42.9208C44.7623 43.455 43.8036 44.5961 43.516 44.9254C43.3241 45.1564 43.0713 45.3472 42.729 45.3869C42.4101 45.4239 42.1021 45.3176 41.8176 45.1707C41.7522 45.1396 41.6642 45.1019 41.5561 45.0555C40.8694 44.7612 39.37 44.1185 37.6739 42.6029L34.7768 38.9941ZM34.7768 38.9941L34.7807 39.0006M34.7768 38.9941L34.7807 39.0006M34.7807 39.0006C35.0882 39.513 36.1135 41.2111 37.6735 42.6026L34.7807 39.0006ZM40.1148 20.2299L40.1166 20.2299C42.6916 20.2209 45.2427 20.7247 47.621 21.712C49.9993 22.6993 52.1572 24.1503 53.9689 25.9803L54.3242 25.6285L53.9707 25.982C57.6672 29.6786 59.7026 34.5986 59.7026 39.8379C59.7026 50.6293 50.9062 59.4257 40.1148 59.4257C36.8343 59.4257 33.6124 58.5956 30.7459 57.0339L30.5716 56.9389L30.3796 56.9894L20.5747 59.5667L23.1851 49.9828L23.2396 49.7826L23.1365 49.6027C21.4362 46.6371 20.527 43.2768 20.527 39.8176C20.527 29.0262 29.3234 20.2299 40.1148 20.2299ZM31.3441 54.618L31.3471 54.6197C33.9978 56.1851 37.0247 57.0203 40.1148 57.0203C49.5918 57.0203 57.3177 49.3185 57.2769 39.8376C57.2851 37.5771 56.8446 35.3375 55.981 33.2484C55.1174 31.1592 53.8477 29.2621 52.2456 27.667C49.0098 24.4108 44.6865 22.615 40.0945 22.615C30.6157 22.615 22.8919 30.3388 22.8919 39.8176L22.8919 39.818C22.8943 43.0521 23.8057 46.2204 25.5222 48.9614L25.5221 48.9614L25.5258 48.9671L25.8102 49.4079L24.1866 55.3548L23.9585 56.1902L24.796 55.9701L30.9166 54.3615L31.3441 54.618Z" fill="white" stroke="white"/>
<defs>
<linearGradient id="paint0_linear_821_7" x1="66.6216" y1="9.93243" x2="12.973" y2="68.3784" gradientUnits="userSpaceOnUse">
<stop stop-color="#4AC959"/>
<stop offset="1" stop-color="#2FB945"/>
</linearGradient>
</defs>
</svg>
