<svg width="125" height="125" viewBox="0 0 64 64" fill="none" xmlns="http://www.w3.org/2000/svg">
<path d="M32 50C34.7614 50 37 47.7614 37 45C37 42.2386 34.7614 40 32 40C29.2386 40 27 42.2386 27 45C27 47.7614 29.2386 50 32 50Z" fill="#004161" id="id_101"></path>
<path d="M21 50C23.7614 50 26 47.7614 26 45C26 42.2386 23.7614 40 21 40C18.2386 40 16 42.2386 16 45C16 47.7614 18.2386 50 21 50Z" fill="#2baed6" id="id_102"></path>
<path d="M43 50C45.7614 50 48 47.7614 48 45C48 42.2386 45.7614 40 43 40C40.2386 40 38 42.2386 38 45C38 47.7614 40.2386 50 43 50Z" fill="#2baed6" id="id_103"></path>
<path d="M54 50C56.7614 50 59 47.7614 59 45C59 42.2386 56.7614 40 54 40C51.2386 40 49 42.2386 49 45C49 47.7614 51.2386 50 54 50Z" fill="#004161" id="id_104"></path>
<path d="M10 50C12.7614 50 15 47.7614 15 45C15 42.2386 12.7614 40 10 40C7.23858 40 5 42.2386 5 45C5 47.7614 7.23858 50 10 50Z" fill="#004161" id="id_105"></path>
<path d="M61 62V56C61 54.6739 60.4732 53.4021 59.5355 52.4645C58.5979 51.5268 57.3261 51 56 51H52C50.6897 51.0029 49.4329 51.5199 48.5 52.44C47.5671 51.5199 46.3103 51.0029 45 51H41C39.6897 51.0029 38.4329 51.5199 37.5 52.44C36.5671 51.5199 35.3103 51.0029 34 51H30C28.6897 51.0029 27.4329 51.5199 26.5 52.44C25.5671 51.5199 24.3103 51.0029 23 51H19C17.6897 51.0029 16.4329 51.5199 15.5 52.44C14.5671 51.5199 13.3103 51.0029 12 51H8C6.67392 51 5.40215 51.5268 4.46447 52.4645C3.52678 53.4021 3 54.6739 3 56V62C3 62.2652 3.10536 62.5196 3.29289 62.7071C3.48043 62.8946 3.73478 63 4 63H60C60.2652 63 60.5196 62.8946 60.7071 62.7071C60.8946 62.5196 61 62.2652 61 62ZM25 56V61H16V56C16 55.2044 16.3161 54.4413 16.8787 53.8787C17.4413 53.3161 18.2044 53 19 53H23C23.4564 53.0065 23.9054 53.1171 24.3126 53.3233C24.7198 53.5295 25.0746 53.8259 25.35 54.19C25.1208 54.766 25.0021 55.38 25 56V56ZM32 59L31 55L31.67 53H32.33L33 55L32 59ZM48 61H39V56C38.9979 55.38 38.8792 54.766 38.65 54.19C38.9254 53.8259 39.2802 53.5295 39.6874 53.3233C40.0946 53.1171 40.5436 53.0065 41 53H45C45.7956 53 46.5587 53.3161 47.1213 53.8787C47.6839 54.4413 48 55.2044 48 56V61Z" fill="#004161" id="id_106"></path>
<path d="M29 16H27V18H29V16Z" fill="#299bcc" id="id_107"></path>
<path d="M29 20H27V22H29V20Z" fill="#299bcc" id="id_108"></path>
<path d="M29 24H27V26H29V24Z" fill="#299bcc" id="id_109"></path>
<path d="M33 16H31V18H33V16Z" fill="#299bcc" id="id_110"></path>
<path d="M33 20H31V22H33V20Z" fill="#299bcc" id="id_111"></path>
<path d="M33 24H31V26H33V24Z" fill="#299bcc" id="id_112"></path>
<path d="M37 16H35V18H37V16Z" fill="#299bcc" id="id_113"></path>
<path d="M37 20H35V22H37V20Z" fill="#299bcc" id="id_114"></path>
<path d="M37 24H35V26H37V24Z" fill="#299bcc" id="id_115"></path>
<path d="M38 6H26C25.7348 6 25.4804 6.10536 25.2929 6.29289C25.1054 6.48043 25 6.73478 25 7V12H24C23.7348 12 23.4804 12.1054 23.2929 12.2929C23.1054 12.4804 23 12.7348 23 13V16.21L15.77 17.93C15.5463 17.9828 15.3476 18.111 15.2073 18.2932C15.0671 18.4753 14.9939 18.7002 15 18.93V36H12V38H52V36H49V18.9C49.0061 18.6702 48.9329 18.4453 48.7927 18.2632C48.6524 18.081 48.4537 17.9528 48.23 17.9L41 16.21V13C41 12.7348 40.8946 12.4804 40.7071 12.2929C40.5196 12.1054 40.2652 12 40 12H39V7C39 6.73478 38.8946 6.48043 38.7071 6.29289C38.5196 6.10536 38.2652 6 38 6ZM21 36H19V33H21V36ZM21 31H19V29H21V31ZM21 27H19V25H21V27ZM21 23H19V21H21V23ZM43 21H45V23H43V21ZM43 25H45V27H43V25ZM43 29H45V31H43V29ZM43 33H45V36H43V33ZM33 9H35V11H33V9ZM29 9H31V11H29V9ZM39 36H36V29C36 28.7348 35.8946 28.4804 35.7071 28.2929C35.5196 28.1054 35.2652 28 35 28H29C28.7348 28 28.4804 28.1054 28.2929 28.2929C28.1054 28.4804 28 28.7348 28 29V36H25V14H39V36Z" fill="#004161" id="id_116"></path>
<path d="M3.06 30.0704L1.06 29.9404C1 30.6204 1 31.3104 1 32.0004H3C3 31.3504 3 30.7104 3.06 30.0704Z" fill="#3ca0d6" id="id_117"></path>
<path d="M19.1693 5.99996L18.2893 4.20996C17.0775 4.80052 15.9051 5.46857 14.7793 6.20996L15.8893 7.86996C16.9419 7.17776 18.0374 6.55317 19.1693 5.99996V5.99996Z" fill="#3ca0d6" id="id_118"></path>
<path d="M33.8692 3.05985L33.9992 1.05985C32.6506 0.974841 31.2979 0.974841 29.9492 1.05985L30.0792 3.05985C31.3413 2.97997 32.6071 2.97997 33.8692 3.05985V3.05985Z" fill="#3ca0d6" id="id_119"></path>
<path d="M12.8909 10.1897L11.5709 8.67969C10.5561 9.5695 9.60075 10.5249 8.71094 11.5397L10.2109 12.8697C11.0433 11.9174 11.9386 11.022 12.8909 10.1897V10.1897Z" fill="#3ca0d6" id="id_120"></path>
<path d="M53.7698 12.8402L55.2698 11.5202C54.3766 10.5053 53.4179 9.54988 52.3998 8.66016L51.0898 10.1702C52.0421 10.999 52.9374 11.891 53.7698 12.8402V12.8402Z" fill="#3ca0d6" id="id_121"></path>
<path d="M59.7791 18.2197C59.1899 17.0105 58.5218 15.8413 57.7791 14.7197L56.1191 15.8397C56.8161 16.8878 57.4441 17.9801 57.9991 19.1097L59.7791 18.2197Z" fill="#3ca0d6" id="id_122"></path>
<path d="M41.9309 2.62988C40.6521 2.20702 39.3456 1.87289 38.0209 1.62988L37.6309 3.62988C38.8717 3.88175 40.0944 4.21582 41.2909 4.62988L41.9309 2.62988Z" fill="#3ca0d6" id="id_123"></path>
<path d="M49.1891 6.2002C48.0632 5.45881 46.8908 4.79076 45.6791 4.2002L44.7891 6.0002C45.928 6.55361 47.0273 7.18512 48.0791 7.8902L49.1891 6.2002Z" fill="#3ca0d6" id="id_124"></path>
<path d="M26.33 3.5498L25.94 1.5498C24.6044 1.82739 23.2883 2.19149 22 2.6398L22.65 4.5298C23.8549 4.12642 25.084 3.79911 26.33 3.5498V3.5498Z" fill="#3ca0d6" id="id_125"></path>
<path d="M7.90023 15.87L6.24023 14.75C5.49901 15.8759 4.83097 17.0483 4.24023 18.26L6.04023 19.15C6.58802 18.0173 7.20935 16.9216 7.90023 15.87V15.87Z" fill="#3ca0d6" id="id_126"></path>
<path d="M60.4291 26.26L62.4291 25.87C62.1814 24.5462 61.8473 23.2401 61.4291 21.96L59.5391 22.61C59.9146 23.806 60.2119 25.0253 60.4291 26.26V26.26Z" fill="#3ca0d6" id="id_127"></path>
<path d="M4.54039 22.65L2.65039 22C2.22751 23.2822 1.89338 24.5919 1.65039 25.92L3.65039 26.31C3.86631 25.0718 4.16362 23.8491 4.54039 22.65V22.65Z" fill="#3ca0d6" id="id_128"></path>
<path d="M60.9395 30.0704C60.9395 30.7104 60.9995 31.3504 60.9995 32.0004H62.9995C62.9995 31.3104 62.9995 30.6204 62.9295 29.9404L60.9395 30.0704Z" fill="#3ca0d6" id="id_129"></path>
</svg>