<?xml version="1.0" encoding="UTF-8" standalone="no"?> <svg id="Layer_1" data-name="Layer 1" xmlns="http://www.w3.org/2000/svg" viewBox="0 0 128 128"><defs><style>.cls-1{fill:#2d3e50;}.cls-2{fill:#1d75b8;}</style></defs><title>v</title><path class="cls-1" d="M49.55925,97.81311c-1.22716-3.668-4.50587-5.18047-7.84922-6.47788q-3.86741-1.50081-7.73584-2.99889l-7.326,7.32464-7.326-7.32464q-3.86794,1.49945-7.73585,2.99889c-3.34334,1.29742-6.62205,2.80985-7.8492,6.47788-.21938.65811-1.16885,5.8427-1.60476,8.25383a1.03945,1.03945,0,0,0,1.023,1.22462H50.141a1.03945,1.03945,0,0,0,1.023-1.22462C50.72809,103.65581,49.77861,98.47122,49.55925,97.81311Z"/><path class="cls-1" d="M125.86762,106.06694c-.43592-2.41113-1.38537-7.59572-1.60476-8.25383-1.22715-3.668-4.50587-5.18047-7.84922-6.47788q-3.86741-1.50081-7.73584-2.99889l-7.326,7.32464-7.326-7.32464Q90.15789,89.83579,86.29,91.33523c-3.34334,1.29742-6.62207,2.80985-7.84922,6.47788-.21938.65811-1.16884,5.8427-1.60476,8.25383a1.03946,1.03946,0,0,0,1.023,1.22462h46.98556A1.03946,1.03946,0,0,0,125.86762,106.06694Z"/><path class="cls-1" d="M90.01385,68.54483l1.526,7.8658a9.99653,9.99653,0,0,0,19.62522,0l1.526-7.8658a10.53,10.53,0,0,0-10.43229-11.949h-1.81267A10.53,10.53,0,0,0,90.01385,68.54483Z"/><path class="cls-2" d="M74.7337,96.57565a11.782,11.782,0,0,1,3.38918-5.134L78,86.665l-.11727-4.52262c-.067-2.51536-1.622-18.54274.79286-20.99669a40.39445,40.39445,0,0,1,3.35846-2.96483c3.19375-2.79174,6.39589-5.58907,9.37188-8.61531a21.6221,21.6221,0,0,0,3.46456-4.12341c.74818-1.287,1.38749-2.47627,1.88163-3.48129a3.26366,3.26366,0,0,0-1.13345-4.1625l-.18426-.12284a3.27317,3.27317,0,0,0-4.43327.79007.18277.18277,0,0,0-.02234.03629c-1.904,2.5712-5.5081,6.90118-10.24849,9.43329a16.94,16.94,0,0,1-5.16752,1.81463,6.2228,6.2228,0,0,0-3.60413,1.16137,13.84449,13.84449,0,0,1-8.043,2.56282H63.804a13.84449,13.84449,0,0,1-8.043-2.56282,6.2228,6.2228,0,0,0-3.60413-1.16137,16.94,16.94,0,0,1-5.16752-1.81463C42.249,45.403,38.64486,41.073,36.74089,38.50185a.1826.1826,0,0,0-.02232-.03629,3.2732,3.2732,0,0,0-4.43329-.79007l-.18426.12284a3.26366,3.26366,0,0,0-1.13345,4.1625c.49414,1.005,1.13345,2.1943,1.88163,3.48129a21.6221,21.6221,0,0,0,3.46456,4.12341c2.976,3.02624,6.17812,5.82357,9.37188,8.61531a40.39445,40.39445,0,0,1,3.35846,2.96483c2.41486,2.454.85986,18.48133.79286,20.99669L49.71969,86.665,49.608,90.97263a11.928,11.928,0,0,1,3.93635,5.60023c.12.35454.335,1.00781,1.74484,8.79956a4.92187,4.92187,0,0,1-.03071,1.91794H60.976c.06979-.46344.13959-.92686.20938-1.3875l.00559-.02791c.19263-1.26187.38247-2.50141.56951-3.6879.10609-.684.21218-1.34842.31267-1.99331-.00557-.05025-.01116-.09491-.01953-.14238l.70071-4.72083a1.11744,1.11744,0,0,1,2.21107,0l.70073,4.72083c-.00838.04747-.014.09213-.01954.14238.1005.64489.20659,1.30933.31267,1.99331.187,1.18649.37688,2.426.56951,3.6879l.00559.02791c.06979.46064.13959.92407.20938,1.3875h6.27583a4.95054,4.95054,0,0,1-.02791-1.92351C74.39869,97.57788,74.61645,96.9274,74.7337,96.57565Z"/><path class="cls-2" d="M63.81074,45.44189h.101a12.36674,12.36674,0,0,0,0-24.73346h-.101a12.36674,12.36674,0,0,0,0,24.73346Z"/><path class="cls-1" d="M11.24747,81.07312a56.14288,56.14288,0,0,0,6.93517,1.58978l.00467.00239.05125.007q1.34275.21725,2.68552.36751c.079.00869,8.91807.57735,12.7633-.16158l.00068-.00078a55.61837,55.61837,0,0,0,8.36161-1.80432,2.32751,2.32751,0,0,0,1.5541-2.97054L38.64547,63.32238a11.93343,11.93343,0,0,0-5.24293-6.65876,3.47565,3.47565,0,0,0-2.12852-.21,8.4459,8.4459,0,0,0-2.10287-1.34721,7.03556,7.03556,0,0,0-2.52184-.41293A12.65389,12.65389,0,0,0,14.6517,63.32238L9.69337,78.10259A2.32866,2.32866,0,0,0,11.24747,81.07312Z"/></svg>