<?xml version="1.0" encoding="utf-8"?>
<!-- Generator: Adobe Illustrator 24.3.0, SVG Export Plug-In . SVG Version: 6.00 Build 0)  -->
<svg version="1.1" id="Layer_1" xmlns="http://www.w3.org/2000/svg" xmlns:xlink="http://www.w3.org/1999/xlink" x="0px" y="0px"
	 viewBox="0 0 64 64" enable-background="new 0 0 64 64" xml:space="preserve">
<path fill="#D3D6DB" d="M49.6,11.8l-1-1.2C44.4,5.8,38.3,3,32,3s-12.4,2.8-16.5,7.6l-1,1.2c-6.7,7.7-7.1,19.1-1,27.3l9,12.1
	c0.2,0.3,0.4,0.6,0.7,0.8c0.3,0.3,0.5,0.6,0.8,0.8c0,0,0.1,0.1,0.1,0.1c0.3,0.2,0.5,0.5,0.8,0.7c0.1,0.1,0.1,0.1,0.2,0.2
	c0.3,0.2,0.5,0.4,0.8,0.5c0.1,0.1,0.2,0.1,0.3,0.2c0.3,0.1,0.5,0.3,0.8,0.4c0.1,0.1,0.3,0.1,0.4,0.2c0.2,0.1,0.5,0.2,0.7,0.3
	c0.2,0.1,0.4,0.1,0.6,0.2c0.2,0.1,0.4,0.1,0.6,0.2c0.3,0.1,0.5,0.1,0.8,0.1c0.2,0,0.3,0.1,0.5,0.1c0.4,0,0.9,0.1,1.3,0.1
	s0.9,0,1.3-0.1c0.2,0,0.3-0.1,0.5-0.1c0.3,0,0.5-0.1,0.8-0.1c0.2,0,0.4-0.1,0.6-0.2c0.2-0.1,0.4-0.1,0.6-0.2
	c0.2-0.1,0.5-0.2,0.7-0.3c0.2-0.1,0.3-0.1,0.4-0.2c0.3-0.1,0.5-0.3,0.8-0.4c0.1-0.1,0.2-0.1,0.3-0.2c0.3-0.2,0.5-0.3,0.8-0.5
	c0.1-0.1,0.1-0.1,0.2-0.2c0.3-0.2,0.6-0.4,0.8-0.7c0,0,0.1-0.1,0.1-0.1c0.3-0.3,0.6-0.5,0.8-0.8c0.2-0.3,0.5-0.5,0.7-0.8l9-12.1
	C56.7,30.8,56.2,19.5,49.6,11.8z"/>
<path fill="#FFC145" d="M28.9,34.9c0.5-2.1-2.1-4.6-5.8-5.6c-3.8-0.9-7.2,0.1-7.8,2.2c-0.5,2.1,2.1,4.6,5.8,5.6
	C24.9,38,28.4,37.1,28.9,34.9z"/>
<path fill="#FFC145" d="M48.7,31.5c-0.5-2.1-4-3.1-7.8-2.2c-3.8,0.9-6.4,3.4-5.8,5.6c0.5,2.1,4,3.1,7.8,2.2
	C46.6,36.2,49.2,33.7,48.7,31.5z"/>
<path fill="#D3D6DB" d="M61,62c0-5.5-4.5-10-10-10H40.9c-2.3,2.5-5.5,4-8.9,4s-6.6-1.5-8.9-4H13C7.5,52,3,56.5,3,62"/>
<g id="Layer_2">
</g>
<path d="M51,51h-8l8.4-11.3c6.4-8.7,6-20.4-1.1-28.5l-1-1.2C44.9,4.9,38.6,2,32,2S19.1,4.9,14.7,9.9l-1,1.2
	c-7,8.2-7.5,19.9-1.1,28.5L21,51h-8C6.9,51,2,55.9,2,62h2c0-5,4-9,9-9h9.7c2.4,2.5,5.8,4,9.3,4s6.9-1.5,9.3-4H51c5,0,9,4,9,9h2
	C62,55.9,57.1,51,51,51z M32,55c-3.4,0-6.7-1.7-8.8-4.4l-9-12.1c-5.9-7.9-5.5-18.6,1-26.1l1-1.2C20.2,6.6,25.9,4,32,4
	s11.8,2.6,15.8,7.2l1,1.2c6.4,7.4,6.8,18.2,1,26.1l-9,12.1C38.7,53.3,35.4,55,32,55z"/>
<path d="M29.9,35.2c0.3-1.4-0.2-2.9-1.6-4.2c-1.2-1.2-3-2.1-5-2.6c-4.4-1.1-8.3,0.2-9,2.9c-0.7,2.7,2.2,5.7,6.6,6.8
	c1,0.3,2,0.4,3,0.4c0.9,0,1.8-0.1,2.6-0.3C28.4,37.6,29.6,36.6,29.9,35.2z M28,34.7c-0.2,0.7-0.9,1.2-2,1.5
	c-1.3,0.4-2.9,0.3-4.6-0.1c-3.4-0.9-5.4-3-5.1-4.4c0.3-1,1.8-1.8,4-1.8c0.8,0,1.6,0.1,2.5,0.3c1.6,0.4,3.1,1.2,4.1,2.1
	C27.8,33.2,28.1,34,28,34.7z"/>
<path d="M40.7,28.4c-2,0.5-3.7,1.4-5,2.6c-1.4,1.3-1.9,2.8-1.6,4.2s1.5,2.5,3.4,3c0.8,0.2,1.7,0.3,2.6,0.3c1,0,2-0.1,3-0.4
	c4.4-1.1,7.2-4.1,6.6-6.8C49,28.6,45,27.3,40.7,28.4z M42.6,36.1c-1.6,0.4-3.3,0.4-4.6,0.1c-1.1-0.3-1.8-0.9-2-1.5
	c-0.2-0.7,0.2-1.5,1-2.3c1-0.9,2.4-1.7,4.1-2.1c0.9-0.2,1.8-0.3,2.5-0.3c2.2,0,3.7,0.8,4,1.8C48,33.2,46,35.3,42.6,36.1z"/>
<rect x="30" y="42" width="4" height="2"/>
<rect x="28" y="48" width="8" height="2"/>
</svg>
