<?xml version="1.0" encoding="UTF-8" standalone="no"?> <svg width="512" height="512" viewBox="0 0 512 512" fill="none" xmlns="http://www.w3.org/2000/svg">
<path d="M216 392V365.436C188.559 373.184 164.011 388.849 145.425 410.472C126.838 432.095 115.038 458.718 111.5 487.011L111.376 488H399.376L399.252 487.011C395.741 458.937 384.096 432.503 365.75 410.964C347.404 389.426 323.158 373.724 296 365.792V392H216Z" fill="#5292C1"/>
<path d="M168.36 488H151.86L144.25 457.97C143.798 455.94 144.154 453.813 145.244 452.04C146.334 450.268 148.071 448.99 150.088 448.478C152.104 447.965 154.241 448.258 156.045 449.295C157.849 450.331 159.178 452.03 159.75 454.03L168.36 488Z" fill="#5292C1"/>
<path d="M367.75 457.97L360.13 488H343.62L352.25 454.03C352.483 452.985 352.923 451.997 353.545 451.126C354.166 450.254 354.956 449.516 355.868 448.955C356.78 448.394 357.795 448.022 358.854 447.861C359.912 447.7 360.992 447.752 362.03 448.016C363.067 448.28 364.041 448.749 364.894 449.396C365.747 450.043 366.461 450.855 366.995 451.783C367.528 452.712 367.87 453.737 368 454.8C368.13 455.863 368.045 456.941 367.75 457.97V457.97Z" fill="#5292C1"/>
<path d="M296 392V365.792C290.538 364.199 284.986 362.93 279.374 361.992V312H231.374V361.989C226.19 362.857 221.058 364.008 216 365.436V392C241.678 402.271 270.322 402.271 296 392V392Z" fill="#F6BB92"/>
<path d="M279.37 312V357.21C263.584 361.089 247.074 360.921 231.37 356.72V312H279.37Z" fill="#D4976E"/>
<path d="M296 392C270.322 402.271 241.678 402.271 216 392V488H296V392Z" fill="#E6E5E0"/>
<path d="M375.374 256H136L131.732 171.508C130.515 145.958 138.42 120.808 154.035 100.548C169.649 80.2886 191.957 66.2389 216.974 60.9082L217.874 60.7172C224.666 59.2704 231.712 59.5448 238.37 61.5154C245.029 63.486 251.089 67.0902 256 72.0002V72.0002C260.909 67.0912 266.97 63.4909 273.629 61.5286C280.289 59.5663 287.334 59.3045 294.12 60.7672V60.7672C319.057 66.1409 341.278 80.1896 356.827 100.412C372.376 120.635 380.244 145.72 379.031 171.2L375.374 256Z" fill="#4A4B46"/>
<path d="M168.332 272H148.332C143.028 272 137.941 269.893 134.19 266.142C130.439 262.391 128.332 257.304 128.332 252V252C128.332 246.696 130.439 241.609 134.19 237.858C137.941 234.107 143.028 232 148.332 232H160.332L168.332 272Z" fill="#F6BB92"/>
<path d="M168.33 272H155.29C153.279 264.159 152.264 256.095 152.27 248L152.03 235.77C152 234.51 152 233.26 152.01 232H160.33L168.33 272Z" fill="#D4976E"/>
<path d="M344.332 272H364.332C369.636 272 374.723 269.893 378.474 266.142C382.225 262.391 384.332 257.304 384.332 252V252C384.332 246.696 382.225 241.609 378.474 237.858C374.723 234.107 369.636 232 364.332 232H352.332L344.332 272Z" fill="#F6BB92"/>
<path d="M360 248C360.006 256.095 358.991 264.159 356.98 272H344.33L352.33 232H359.62L360 248Z" fill="#D4976E"/>
<path d="M352.332 248C352.332 273.461 342.218 297.879 324.214 315.882C306.211 333.886 281.793 344 256.332 344V344C230.871 344 206.453 333.886 188.45 315.882C170.446 297.879 160.332 273.461 160.332 248L160.088 235.77C159.619 212.275 164.865 189.018 175.374 168V168C178.088 175.552 182.364 182.447 187.921 188.236C193.478 194.025 200.193 198.579 207.627 201.6L223.374 208L215.374 168C226.223 183.66 241.399 195.819 259.048 202.991L271.374 208L263.374 168C279.637 183.85 298.819 196.396 319.857 204.945L327.374 208L319.374 168L351.374 208L352.332 248Z" fill="#F6BB92"/>
<path d="M212.332 272C218.959 272 224.332 263.046 224.332 252C224.332 240.954 218.959 232 212.332 232C205.705 232 200.332 240.954 200.332 252C200.332 263.046 205.705 272 212.332 272Z" fill="#4A4B46"/>
<path d="M300.332 272C306.959 272 312.332 263.046 312.332 252C312.332 240.954 306.959 232 300.332 232C293.705 232 288.332 240.954 288.332 252C288.332 263.046 293.705 272 300.332 272Z" fill="#4A4B46"/>
<path d="M255.374 288C257.496 288 259.53 287.157 261.031 285.657C262.531 284.157 263.374 282.122 263.374 280C263.374 277.879 262.531 275.844 261.031 274.343C259.53 272.843 257.496 272 255.374 272C255.272 272 255.172 271.973 255.084 271.921C254.997 271.868 254.925 271.793 254.877 271.703C254.829 271.613 254.806 271.512 254.811 271.411C254.816 271.309 254.848 271.21 254.905 271.125L262.03 260.438C262.619 259.564 263.03 258.583 263.239 257.549C263.448 256.516 263.45 255.452 263.246 254.417C263.043 253.383 262.636 252.399 262.051 251.523C261.465 250.646 260.713 249.894 259.836 249.309C258.958 248.724 257.974 248.318 256.94 248.115C255.906 247.912 254.841 247.915 253.808 248.124C252.775 248.334 251.793 248.745 250.92 249.335C250.046 249.925 249.298 250.682 248.718 251.562L241.593 262.25C239.93 264.745 238.975 267.644 238.83 270.638C238.685 273.632 239.356 276.61 240.77 279.253C242.185 281.896 244.29 284.106 246.862 285.647C249.434 287.187 252.376 288.001 255.374 288V288Z" fill="#D4976E"/>
<path d="M280.344 287.029C279.601 286.286 278.719 285.697 277.749 285.295C276.778 284.893 275.738 284.686 274.687 284.686C273.636 284.686 272.596 284.893 271.625 285.295C270.655 285.697 269.773 286.286 269.03 287.029C266.193 289.882 262.818 292.144 259.101 293.684C255.383 295.224 251.398 296.011 247.374 296C245.252 296 243.217 296.843 241.717 298.343C240.217 299.844 239.374 301.879 239.374 304C239.374 306.122 240.217 308.157 241.717 309.657C243.217 311.157 245.252 312 247.374 312C253.5 312.017 259.568 310.819 265.228 308.475C270.887 306.13 276.025 302.687 280.345 298.343C281.088 297.6 281.677 296.718 282.079 295.748C282.481 294.777 282.688 293.737 282.688 292.686C282.688 291.636 282.481 290.595 282.079 289.625C281.676 288.654 281.087 287.772 280.344 287.029Z" fill="#D4976E"/>
<path d="M216 368V389.4C216 422.913 221.402 456.207 232 488H200L184 456L192 440L176 424L216 368Z" fill="#467EA6"/>
<path d="M168.36 488H151.86L144.25 457.97C143.798 455.94 144.154 453.813 145.244 452.04C146.334 450.268 148.071 448.99 150.088 448.478C152.104 447.965 154.241 448.258 156.045 449.295C157.849 450.331 159.178 452.03 159.75 454.03L168.36 488Z" fill="#467EA6"/>
<path d="M296 368V389.4C296 422.913 290.598 456.207 280 488H312L328 456L320 440L336 424L296 368Z" fill="#467EA6"/>
<path d="M367.75 457.97L360.13 488H343.62L352.25 454.03C352.483 452.985 352.923 451.997 353.545 451.126C354.166 450.254 354.956 449.516 355.868 448.955C356.78 448.394 357.795 448.022 358.854 447.861C359.912 447.7 360.992 447.752 362.03 448.016C363.067 448.28 364.041 448.749 364.894 449.396C365.747 450.043 366.461 450.855 366.995 451.783C367.528 452.712 367.87 453.737 368 454.8C368.13 455.863 368.045 456.941 367.75 457.97V457.97Z" fill="#467EA6"/>
</svg>
