<?xml version="1.0" encoding="utf-8"?>
<!-- Generator: Adobe Illustrator 24.0.2, SVG Export Plug-In . SVG Version: 6.00 Build 0)  -->
<svg version="1.1" id="Layer_1" xmlns="http://www.w3.org/2000/svg" xmlns:xlink="http://www.w3.org/1999/xlink" x="0px" y="0px"
	 viewBox="0 0 512 512" style="enable-background:new 0 0 512 512;" xml:space="preserve">
<style type="text/css">
	.st0{fill:#C1E8F7;}
	.st1{fill:#F4CCAF;}
	.st2{fill:#F4F4F4;}
	.st3{fill:#EAEAEA;}
	.st4{fill:#E0E0E0;}
	.st5{fill:#292629;}
	.st6{fill:#1A1A1B;}
	.st7{fill:#0F0D0D;}
	.st8{fill:#FCD4B5;}
	.st9{fill:#554C44;}
</style>
<circle id="XMLID_8262_" class="st0" cx="256.0887" cy="255.7101" r="251.1827"/>
<g id="XMLID_6886_">
	<path id="XMLID_6912_" d="M153.4525,172.5302c-0.0381,0.5125-0.7504-0.1916-1.6868-1.6726
		c3.6631,7.6165,15.4893,14.3881,32.5671,19.4165c-1.8269-10.2353-3.4936-23.0714-4.3908-28.8076
		C165.0713,163.584,153.8697,167.0054,153.4525,172.5302z"/>
	<path id="XMLID_6911_" d="M360.6562,172.5302c-0.4572-6.0552-13.8689-9.588-30.881-11.6401
		c0.297,8.7218,0.4176,20.3559-0.8823,29.7052c18.4162-5.2745,30.9045-12.5537,34.0444-20.7373
		C361.7181,172.0159,360.7025,173.1465,360.6562,172.5302z"/>
	<path id="XMLID_6910_" d="M90.9176,355.7477c-4.743,2.9381-16.5706,25.3824-29.7186,58.3813
		c13.9403,17.1294,30.106,32.3549,48.0362,45.3043c-2.8444-17.8208-5.1471-33.2742-6.0104-41.0364
		C98.521,376.0928,87.473,362.3356,90.9176,355.7477z"/>
	<path id="XMLID_6909_" class="st1" d="M257.5866,351.1736c0.2574,0.1969,0.3649,0.4486,0.4404,0.7097
		c0.0758-0.2611,0.1834-0.5128,0.4407-0.7097c28.3373-21.6983,39.735-36.3419,44.9061-40.5493
		c-3.9022-12.4589-2.7204-23.9948-2.8776-28.9245h-1.146c-0.2432,0.2555-0.48,0.5199-0.7317,0.7624
		c-1.0877,1.0507-2.1985,2.0775-3.3344,3.0767c-3.5249,3.0969-7.2975,5.9293-11.3503,8.3023
		c-3.4554,2.0226-7.1137,3.7042-10.9285,4.9297c-3.4659,1.1146-7.048,1.846-10.6701,2.2124
		c-4.4991,0.4561-9.1184,0.3175-13.5869-0.3922c-3.6687-0.5816-7.2695-1.5609-10.7268-2.9198
		c-3.8794-1.5247-7.5653-3.5126-11.0316-5.8236c-4.1226-2.7502-7.9374-5.9457-11.4997-9.3855
		c-0.2518-0.2424-0.4886-0.5069-0.7317-0.7624h-0.3944c-0.1546,4.8367,0.9715,16.0335-2.6699,28.2204
		C216.3496,312.84,227.2726,327.9618,257.5866,351.1736z"/>
	<path id="XMLID_6908_" class="st1" d="M258.027,352.5325c-0.0363,0.2372-0.059,0.4706-0.186,0.7422h0.372
		C258.0864,353.0031,258.0636,352.7697,258.027,352.5325z"/>
	<path id="XMLID_6907_" class="st2" d="M255.2685,374.4295c-1.5613,0-2.971-0.5891-4.0718-1.5303
		c-5.112,0.644-10.332,1.9916-15.3339,3.5492c-1.7462,2.7996-2.7924,5.6122-2.5373,8.315c0.4198,4.4502-3.9889,1.893-10.0007-4.1547
		c-10.0803,3.3303-17.3091,4.9354-17.3091-2.2946c0-6.9378,0.1113-12.6083,0.486-18.5592
		c-1.0186-1.5031-2.0118-3.0166-2.9621-4.5342c-0.449,12.5354-0.5745,24.8079-0.4307,36.7741
		c10.273,35.014,23.3284,78.4473,36.5358,114.304c5.4419,0.3519,10.9132,0.5947,16.444,0.5947v-132.464H255.2685z"/>
	<path id="XMLID_6906_" class="st3" d="M313.1026,406.1935c0.4942-16.5952,0.4893-33.8745-0.1647-51.6638
		c-0.9547,1.5445-1.9483,3.0876-2.9773,4.6216c0.4064,6.1717,0.5285,11.9934,0.5285,19.1628c0,7.3117-7.3883,5.5901-17.6494,2.1833
		c-6.069,6.128-10.5341,8.7434-10.1113,4.266c0.2607-2.7596-0.8404-5.6301-2.6539-8.4883
		c-4.5869-1.4115-9.3433-2.6206-14.0262-3.2736c-1.0828,0.8789-2.4447,1.428-3.9485,1.428h-6.0111v132.464
		c7.7383,0,15.3791-0.4049,22.9384-1.0888C291.1559,474.9378,303.1407,438.2164,313.1026,406.1935z"/>
	<path id="XMLID_6905_" class="st4" d="M205.7005,319.1526c-1.0507,12.2179-1.7373,24.2443-2.1608,36.0681
		c0.9503,1.5176,1.9435,3.0312,2.9621,4.5342c0.3474-5.5263,0.9215-11.2916,1.865-18.5667
		c1.9274-14.8643,23.5689,1.5957,43.2962,13.2321c1.0223-0.7168,2.2613-1.1456,3.6056-1.1456h2.5724
		c0.127-0.2715,0.1498-0.505,0.186-0.7422c0.0366,0.2372,0.0594,0.4706,0.186,0.7422h3.8869c1.1635,0,2.2397,0.3392,3.1753,0.8882
		c19.61-11.6196,40.9497-27.7315,42.8629-12.9747c0.9092,7.0125,1.4709,12.6172,1.8224,17.9631
		c1.0291-1.5341,2.0226-3.0771,2.9773-4.6216c-0.4262-11.6016-1.1034-23.3964-2.1332-35.3771
		c-0.1206-1.3955-0.0467-2.3876,0.1632-3.1006c-1.317-1.7384-2.652-3.6277-3.978-5.871c-0.7381-1.2495-1.8019-1.0324-3.6161,0.4434
		c-5.1711,4.2074-16.5687,18.851-44.9061,40.5493c-0.2574,0.1969-0.3649,0.4486-0.4407,0.7097
		c-0.0755-0.2611-0.183-0.5128-0.4404-0.7097c-30.314-23.2118-41.2369-38.3336-45.8925-41.2534
		c-1.2233-0.7679-2.0383-0.7407-2.63,0.2607c-1.2162,2.0592-2.441,3.8137-3.6534,5.4441
		C205.7356,316.3291,205.8447,317.4762,205.7005,319.1526z"/>
	<path id="XMLID_6904_" class="st4" d="M233.3255,384.7634c-0.2551-2.7028,0.7911-5.5154,2.5373-8.315
		c-4.4464,1.3843-8.6896,2.8907-12.538,4.1603C229.3367,386.6564,233.7454,389.2136,233.3255,384.7634z"/>
	<path id="XMLID_6903_" class="st4" d="M282.7284,384.7634c-0.4228,4.4774,4.0423,1.862,10.1113-4.266
		c-3.9216-1.3002-8.247-2.8324-12.7651-4.2223C281.888,379.1333,282.9891,382.0038,282.7284,384.7634z"/>
	<path id="XMLID_6902_" class="st5" d="M208.0275,472.4009c1.7944,10.3593,3.6706,20.6932,5.558,30.8377
		c8.5484,1.459,17.2388,2.4895,26.0592,3.0603c-13.2074-35.8567-26.2628-79.29-36.5358-114.304
		C203.4567,420.9593,205.3598,448.058,208.0275,472.4009z"/>
	<path id="XMLID_6901_" class="st6" d="M313.1026,406.1935c-9.9619,32.0229-21.9467,68.7443-34.0754,99.6111
		c8.049-0.7299,15.9819-1.8497,23.7934-3.3214c2.0798-11.1911,4.142-22.6101,6.0948-34.0309
		C310.9324,449.2197,312.4441,428.3039,313.1026,406.1935z"/>
	<path id="XMLID_6900_" d="M308.1381,341.1882c-1.9132-14.7568-23.2529,1.3551-42.8629,12.9747
		c-0.9357-0.5491-2.0118-0.8882-3.1753-0.8882h-3.8869h-0.372h-2.5724c-1.3443,0-2.5833,0.4288-3.6056,1.1456
		c-19.7272-11.6364-41.3688-28.0964-43.2962-13.2321c-0.9435,7.2751-1.5176,13.0404-1.865,18.5667
		c-0.3746,5.951-0.486,11.6214-0.486,18.5592c0,7.2299,7.2288,5.6249,17.3091,2.2946c3.8484-1.2696,8.0916-2.776,12.538-4.1603
		c5.0018-1.5576,10.2218-2.9052,15.3339-3.5492c1.1008,0.9413,2.5104,1.5303,4.0718,1.5303h0.8203h6.0111
		c1.5038,0,2.8657-0.5491,3.9485-1.428c4.6829,0.6529,9.4393,1.862,14.0262,3.2736c4.5181,1.3899,8.8435,2.9221,12.7651,4.2223
		c10.261,3.4069,17.6494,5.1284,17.6494-2.1833c0-7.1694-0.1222-12.9911-0.5285-19.1628
		C309.609,353.8054,309.0472,348.2007,308.1381,341.1882z"/>
	<path id="XMLID_6899_" class="st7" d="M211.926,502.9427c0.5532,0.0986,1.1045,0.2024,1.6596,0.2958
		c-1.8874-10.1445-3.7636-20.4784-5.558-30.8377C209.2056,483.1486,210.5253,493.3514,211.926,502.9427z"/>
	<path id="XMLID_6898_" class="st7" d="M189.4541,392.2611l-43.9599-11.4063l20.0686-31.5743
		c9.6436-3.8574,25.1639-24.2607,33.8277-31.7532c-18.594,6.3577-80.5304,27.4689-101.0499,33.688
		c-4.1188,1.2495-6.4018,2.5792-7.423,4.5323c-3.4446,6.5878,7.6034,20.3451,12.3072,62.6492
		c0.8632,7.7622,3.166,23.2156,6.0104,41.0364c20.1344,14.5397,42.501,26.1503,66.4991,34.2517
		c-20.9913-48.1475-30.2401-85.0676-30.2401-85.0676L189.4541,392.2611z"/>
	<path id="XMLID_6897_" d="M203.109,391.9948c-0.1438-11.9662-0.0183-24.2387,0.4307-36.7741
		c0.4236-11.8239,1.1101-23.8502,2.1608-36.0681c0.1442-1.6764,0.0351-2.8235-0.2899-3.5276
		c-0.8154-1.7619-3.0076-0.7022-6.0201,1.9023c-8.6639,7.4925-24.1841,27.8958-33.8277,31.7532l-20.0686,31.5743l43.9599,11.4063
		l-43.9599,16.3562c0,0,9.2488,36.9201,30.2401,85.0676c11.7036,3.9507,23.7867,7.0566,36.1918,9.2578
		c-1.4007-9.5913-2.7204-19.7941-3.8985-30.5419C205.3598,448.058,203.4567,420.9593,203.109,391.9948z"/>
	<path id="XMLID_6896_" d="M413.0405,418.3969c-0.8083,7.2699-2.8761,21.2695-5.4721,37.6567
		c17.7689-13.4562,33.6623-29.2379,47.2932-46.8652c-12.5672-30.9326-23.6758-51.6862-28.1289-54.1791
		c-1.1019-0.6167-2.1705-1.0235-3.2194-1.3077C431.4519,359.5121,418.2919,371.1631,413.0405,418.3969z"/>
	<path id="XMLID_6895_" class="st7" d="M302.8206,502.4833c0.6234-0.1165,1.2539-0.2114,1.8751-0.3339
		c1.5296-10.5416,2.9699-21.7802,4.2197-33.697C306.9626,479.8732,304.9004,491.2922,302.8206,502.4833z"/>
	<path id="XMLID_6894_" class="st7" d="M413.0405,418.3969c5.2514-47.2339,18.4113-58.8848,10.4728-64.6953
		c-1.2801-0.9376-3.0887-1.7272-5.589-2.4862c-20.3787-6.1754-81.5995-27.0382-100.6544-33.5513
		c8.6934,7.5982,24.0866,27.7808,33.672,31.6165l20.0686,31.5743l-43.9603,11.4063l43.9603,16.3562
		c0,0-9.0336,36.0483-29.4979,83.3517c23.9208-8.6508,46.1421-20.834,66.0557-35.9153
		C410.1644,439.6664,412.2322,425.6668,413.0405,418.3969z"/>
	<path id="XMLID_6893_" d="M327.0503,392.2611l43.9603-11.4063l-20.0686-31.5743c-9.5854-3.8357-24.9786-24.0183-33.672-31.6165
		c-3.2956-2.8817-5.6185-3.934-6.3021-1.6121c-0.2099,0.713-0.2839,1.7051-0.1632,3.1006
		c1.0298,11.9807,1.707,23.7755,2.1332,35.3771c0.6541,17.7894,0.6589,35.0686,0.1647,51.6638
		c-0.6585,22.1103-2.1702,43.0261-4.1872,62.2588c-1.2498,11.9169-2.6901,23.1555-4.2197,33.697
		c12.6359-2.4783,24.9372-5.8834,36.817-10.1804c20.4642-47.3033,29.4979-83.3517,29.4979-83.3517L327.0503,392.2611z"/>
	<path id="XMLID_6892_" class="st8" d="M226.9898,291.8477c3.4663,2.311,7.1522,4.2989,11.0316,5.8236
		c3.4573,1.3589,7.0581,2.3383,10.7268,2.9198c4.4685,0.7097,9.0878,0.8483,13.5869,0.3922
		c3.6221-0.3664,7.2042-1.0978,10.6701-2.2124c3.8148-1.2255,7.4731-2.9071,10.9285-4.9297
		c4.0527-2.373,7.8253-5.2054,11.3503-8.3023c1.1359-0.9992,2.2467-2.026,3.3344-3.0767c0.2517-0.2424,0.4886-0.5069,0.7317-0.7624
		c14.412-15.1049,14.3568-50.8085,17.9545-48.2386c8.3632,5.6189,13.7206-11.1075,14.7657-21.0383
		c0.8969-8.5171-2.3106-12.7614-5.8789-11.1728c-0.9558,2.1231-2.1313,3.73-3.5922,4.5779c0,0-5.2301,21.6161-7.4708,20.9412
		c-2.2411-0.6746-1.2663-20.1859,2.2408-43.0224c3.7352-24.3175-26.1474-13.7191-47.065-14.3956
		c-20.918-0.675-70.972-5.1942-74.7072,6.2905c-3.7364,11.4828,5.2289,46.6082,2.2408,47.9596
		c-2.9886,1.3514-6.7238-15.747-9.7123-19.1229c-0.4803-0.5435-0.9812-1.8422-1.4881-3.584
		c-3.0084-0.1625-5.3869,4.0471-4.5992,11.5284c1.0455,9.9308,6.4029,26.6572,14.7657,21.0383
		c3.5978-2.5698,3.5425,33.1338,17.9545,48.2386c0.2432,0.2555,0.48,0.5199,0.7317,0.7624
		C219.0524,285.9019,222.8672,289.0974,226.9898,291.8477z"/>
	<path id="XMLID_6891_" class="st9" d="M197.8378,223.6013c2.9882-1.3514-5.9771-36.4768-2.2408-47.9596
		c3.7352-11.4847,53.7892-6.9655,74.7072-6.2905c20.9177,0.6765,50.8003-9.9219,47.065,14.3956
		c-3.507,22.8365-4.4819,42.3478-2.2408,43.0224c2.2408,0.675,7.4708-20.9412,7.4708-20.9412
		c1.4608-0.8479,2.6363-2.4548,3.5922-4.5779c1.2565-2.7868,2.122-6.4855,2.7013-10.6547
		c1.2999-9.3493,1.1792-20.9834,0.8823-29.7052c-30.5374-3.6822-72.7212-2.5695-72.7212-2.5695s-46.4136-1.224-77.112,3.1458
		c0.8972,5.7362,2.5639,18.5723,4.3908,28.8076c0.756,4.235,1.537,7.9829,2.3046,10.6204c0.5069,1.7417,1.0078,3.0405,1.4881,3.584
		C191.114,207.8543,194.8493,224.9527,197.8378,223.6013z"/>
	<path id="XMLID_6890_" d="M254.4314,96.4503c0,0,62.9327,1.5483,75.5398,4.5047l-0.0508,1.0268
		c3.823-29.88,13.1719-63.2453,10.6858-82.8388c-26.4163-9.4382-54.8575-14.6163-84.5175-14.6163
		c-28.9013,0-56.6343,4.9428-82.4761,13.9268c-2.7835,19.2981,6.5191,52.6253,10.4594,82.6405l-0.0064-0.1389
		C196.2459,98.0041,233.4869,96.5668,254.4314,96.4503z"/>
	<path id="XMLID_6889_" d="M191.9952,133.3559c32.4902,4.8147,38.5816,6.0533,65.0588,6.0533
		c26.4779,0,32.5693-1.2386,65.0595-6.0533c2.3357-0.3448,4.5495-0.5745,6.707-0.7534c-0.1102-1.0597-0.2025-2.1358-0.2712-3.2299
		l-0.0755,1.5027c-25.5172-4.9335-74.0423-4.6235-74.0423-4.6235c-9.7228-0.1513-44.3006-0.2973-68.9173,4.6235l-0.0295-0.6092
		c-0.0575,0.7844-0.1162,1.5684-0.1961,2.3364C187.446,132.7814,189.6595,133.0111,191.9952,133.3559z"/>
	<path id="XMLID_6888_" class="st7" d="M153.4525,172.5302c0.4172-5.5248,11.6188-8.9463,26.4895-11.0638
		c30.6984-4.3698,77.112-3.1458,77.112-3.1458s42.1838-1.1127,72.7212,2.5695c17.0121,2.0521,30.4238,5.5849,30.881,11.6401
		c0.0463,0.6163,1.0619-0.5143,2.2811-2.6722c2.2934-4.0617,5.3212-11.8183,4.0643-18.8495
		c-2.3076-12.9108-15.1841-20.3103-38.1812-18.4061c-2.1575,0.1789-4.3713,0.4086-6.707,0.7534
		c-32.4901,4.8147-38.5816,6.0533-65.0595,6.0533c-26.4772,0-32.5686-1.2386-65.0588-6.0533
		c-2.3356-0.3448-4.5491-0.5745-6.7066-0.7534c-22.9967-1.9042-35.8739,5.4953-38.1812,18.4061
		c-1.3697,7.6639,2.3472,16.1922,4.6582,19.849C152.7021,172.3386,153.4144,173.0427,153.4525,172.5302z"/>
	<path id="XMLID_6887_" class="st6" d="M254.4314,126.2518c0,0,48.5251-0.31,74.0423,4.6235l0.0755-1.5027l1.3712-27.3908
		l0.0508-1.0268c-12.6071-2.9564-75.5398-4.5047-75.5398-4.5047c-20.9446,0.1165-58.1856,1.5539-70.3658,4.5047l0.0064,0.1389
		l1.4127,29.1721l0.0295,0.6092C210.1309,125.9545,244.7086,126.1005,254.4314,126.2518z"/>
</g>
</svg>
