<?xml version="1.0" encoding="UTF-8" standalone="no"?><!DOCTYPE svg PUBLIC "-//W3C//DTD SVG 1.1//EN" "http://www.w3.org/Graphics/SVG/1.1/DTD/svg11.dtd"><svg width="100%" height="100%" viewBox="0 0 129 129" version="1.1" xmlns="http://www.w3.org/2000/svg" xmlns:xlink="http://www.w3.org/1999/xlink" xml:space="preserve" xmlns:serif="http://www.serif.com/" style="fill-rule:evenodd;clip-rule:evenodd;stroke-linejoin:round;stroke-miterlimit:2;"><rect id="girls--profile--avatar--person--human--character--face--user--female--children" serif:id="girls, profile, avatar, person, human, character, face, user, female, children" x="0.374" y="0.747" width="128" height="128" style="fill:none;"/><clipPath id="_clip1"><rect x="0.374" y="0.747" width="128" height="128"/></clipPath><g clip-path="url(#_clip1)"><g><circle cx="64.374" cy="64.747" r="64" style="fill:#98c6f9;"/><g><path d="M64.078,18.315c1.639,0.936 3.57,1.201 5.395,0.741c6.96,-1.758 24.083,-3.738 26.688,18.304c3.268,27.646 0.157,24.178 5.619,33.141c5.462,8.963 0.529,26.055 -7.224,30.64c-7.753,4.586 -13.11,-6.003 -25.938,15.341c-12.827,21.344 -41.725,-6.17 -42.254,-18.676c-0.528,-12.506 -7.752,-16.675 -8.81,-24.595c-1.057,-7.921 1.058,-10.422 8.81,-20.218c7.753,-9.797 -0.528,-17.301 13.921,-29.182c9.722,-7.994 16.828,-9.494 23.793,-5.496Z" style="fill:#404040;"/><path d="M84.981,91.645c-3.869,7.087 -15.617,25.315 -21.729,24.164c-18.476,-3.483 -20.256,-16.718 -17.152,-26.387c0.015,-0.048 3.431,-0.302 6.109,-2.164c3.055,-2.125 4.266,-4.342 4.734,-8.819c0.236,-2.255 16.526,-6.696 16.526,2.337c0,9.034 6.394,8.741 11.512,10.869Z" style="fill:#fac7a5;"/><path d="M85.475,91.349c5.512,1.593 -10.748,27.895 -22.223,24.556c-18.478,-5.376 -17.152,-25.639 -17.152,-25.639c12.785,3.734 26.255,4.469 39.375,1.083Z" style="fill:#f3f8fe;"/><path d="M89.709,123.529l-7.93,-17.637l5.221,-13.829c-0,0 0.281,-0.149 3.307,0.823c4.399,1.413 15.405,6.603 17.964,18.416c-5.39,5.086 -11.662,9.246 -18.562,12.227Z" style="fill:#f3f8fe;"/><path d="M91.277,122.826c0.254,-1.024 0.434,-1.965 0.42,-2.741c-0.09,-4.949 6.004,-14.261 3.888,-8.386c-0.79,2.195 -1.262,5.936 -1.543,9.761c-0.909,0.476 -1.83,0.932 -2.765,1.366Z" style="fill:#b9b9b9;"/><path d="M33.573,120.851c2.466,-11.796 4.278,-21.848 4.28,-28.445c0,-1.427 3.849,-2.082 8.263,-2.987c5.893,2.255 1.438,21.296 17.773,21.296c14.091,-0 15.946,-15.007 20.391,-19.122c0.925,-0.857 3.099,-0.207 3.183,-0c1.909,4.7 -1.294,9.964 -0,14.828c2.148,8.075 8.184,6.471 7.092,9.798c-0.515,1.568 -0.917,3.457 -1.215,5.603c-8.698,4.428 -18.543,6.925 -28.966,6.925c-11.162,0 -21.661,-2.864 -30.801,-7.896Z" style="fill:#0a5bb5;"/><path d="M50.441,88.238c0.575,-0.244 1.173,-0.567 1.768,-0.98c4.594,-3.195 5.017,-6.598 5.017,-17.581c-0,-7.411 17.816,-3.345 16.942,2.14c-0.456,2.86 -0.699,5.863 -0.699,8.959c0,3.82 1.144,5.973 2.858,7.337c-3.963,2.174 -8.392,3.386 -13.063,3.386c-4.576,0 -8.921,-1.164 -12.823,-3.261Z" style="fill:#d5a98c;"/><ellipse cx="86.41" cy="56.563" rx="3.119" ry="7.657" style="fill:#d5a98c;"/><path d="M20.303,111.139c4.018,-11.398 11.672,-17.072 15.282,-18.651c4.98,-2.177 7.748,-2.513 7.748,-2.513c0.702,0.673 2.883,6.906 0.102,11.432c-5.845,9.509 -0.584,13.803 -2.87,17.523c-1.309,2.131 -1.518,2.949 -2.779,4.041c-6.481,-2.967 -12.383,-6.985 -17.483,-11.832Z" style="fill:#f3f8fe;"/><path d="M39.741,48.12c0.656,1.522 2.105,1.853 3.55,2.218c7.91,1.995 15.117,1 19.841,-13.143c1.561,-4.672 11.798,-8.123 13.844,-4.772c6.245,10.226 10.524,9.809 10.524,17.233c-0,19.762 -10.919,35.805 -24.368,35.805c-10.701,0 -19.8,-10.157 -23.071,-24.262c-0.369,0.444 -0.78,0.691 -1.213,0.691c-1.611,0 -2.919,-3.431 -2.919,-7.657c-0,-4.226 1.308,-7.657 2.919,-7.657c0.196,0 0.537,0.701 0.893,1.544Z" style="fill:#fac7a5;"/><path d="M54.105,60.68c-0,-1.221 0.553,-2.212 1.234,-2.212c0.681,0 1.235,0.991 1.235,2.212c-0,1.221 -0.554,2.212 -1.235,2.212c-0.681,0 -1.234,-0.991 -1.234,-2.212Z" style="fill:#404040;"/><path d="M62.296,73.258c0,-1.715 0.778,-3.108 1.735,-3.108c0.957,-0 1.734,1.393 1.734,3.108c0,1.715 -0.777,3.108 -1.734,3.108c-0.957,-0 -1.735,-1.393 -1.735,-3.108Z" style="fill:#d5a98c;"/><path d="M71.53,60.695c0,-1.221 0.553,-2.212 1.235,-2.212c0.681,0 1.234,0.991 1.234,2.212c0,1.221 -0.553,2.212 -1.234,2.212c-0.682,0 -1.235,-0.991 -1.235,-2.212Z" style="fill:#404040;"/><path d="M34.674,121.443c0.523,-3.89 1.723,-6.551 1.318,-4.306c-0.491,2.722 0.634,4.728 1.244,5.58c-0.864,-0.406 -1.718,-0.831 -2.562,-1.274Z" style="fill:#b9b9b9;"/><path d="M50.135,54.872c0.227,0.186 3.052,-2.909 6.342,-1.745c0.277,0.098 0.581,-0.047 0.679,-0.324c0.098,-0.277 -0.047,-0.581 -0.324,-0.679c-3.979,-1.409 -6.925,2.562 -6.697,2.748Z" style="fill:#404040;"/><path d="M77.789,54.872c-0.227,0.186 -3.053,-2.909 -6.342,-1.745c-0.277,0.098 -0.581,-0.047 -0.679,-0.324c-0.098,-0.277 0.047,-0.581 0.324,-0.679c3.979,-1.409 6.924,2.562 6.697,2.748Z" style="fill:#404040;"/><path d="M39.519,23.509c0.294,-1.946 2.553,-3.783 4.1,-4.188c1.548,-0.405 2.383,0.623 2.089,2.569c-0.124,1.068 -0.958,2.714 -1.909,4.27c-0.587,0.967 -1.491,1.702 -2.557,2.08c-1.718,0.614 -3.499,1.095 -4.57,0.998c-1.966,-0.109 -2.801,-1.136 -2.089,-2.569c0.712,-1.432 2.971,-3.269 4.936,-3.16Z" style="fill:#cf1f5e;"/><path d="M44.601,29.759c1.916,0.049 4.175,-1.789 4.912,-3.191c0.736,-1.402 -0.05,-2.368 -1.966,-2.417c-0.926,-0.055 -2.412,0.345 -3.921,0.884c-1.437,0.514 -2.655,1.504 -3.45,2.806c-0.836,1.367 -1.531,2.74 -1.666,3.659c-0.343,1.885 0.443,2.852 1.966,2.417c1.523,-0.435 3.782,-2.272 4.125,-4.158Z" style="fill:#f3256e;"/><path d="M63.095,96.302c-0.866,-0.011 -1.737,-0.044 -2.605,-0.101c-0.242,-0.016 -0.451,0.167 -0.467,0.409c-0.016,0.241 0.167,0.45 0.409,0.466c0.883,0.058 1.77,0.091 2.652,0.103c0.242,0.003 0.441,-0.191 0.444,-0.433c0.003,-0.242 -0.191,-0.441 -0.433,-0.444Zm4.352,-0.104c-0.855,0.05 -1.728,0.084 -2.611,0.1c-0.242,0.004 -0.435,0.204 -0.431,0.446c0.004,0.242 0.204,0.435 0.446,0.431c0.895,-0.016 1.78,-0.051 2.647,-0.102c0.241,-0.014 0.426,-0.221 0.412,-0.463c-0.014,-0.241 -0.222,-0.426 -0.463,-0.412Zm4.342,-0.383c-0.833,0.097 -1.704,0.186 -2.603,0.26c-0.241,0.02 -0.421,0.232 -0.401,0.473c0.02,0.241 0.232,0.421 0.473,0.401c0.909,-0.075 1.79,-0.165 2.633,-0.263c0.24,-0.028 0.412,-0.246 0.384,-0.486c-0.028,-0.241 -0.246,-0.413 -0.486,-0.385Zm-13.029,0.237c-0.868,-0.093 -1.728,-0.215 -2.572,-0.368c-0.238,-0.044 -0.466,0.114 -0.51,0.352c-0.043,0.238 0.115,0.467 0.353,0.51c0.865,0.158 1.746,0.282 2.636,0.378c0.24,0.026 0.457,-0.149 0.482,-0.389c0.026,-0.241 -0.148,-0.457 -0.389,-0.483Zm17.347,-0.856c-0.783,0.133 -1.652,0.269 -2.587,0.398c-0.24,0.033 -0.408,0.255 -0.375,0.495c0.033,0.239 0.255,0.407 0.495,0.374c0.945,-0.131 1.823,-0.268 2.613,-0.402c0.239,-0.041 0.4,-0.267 0.359,-0.506c-0.04,-0.238 -0.267,-0.399 -0.505,-0.359Zm-21.609,0.129c-0.851,-0.207 -1.678,-0.452 -2.474,-0.741c-0.227,-0.082 -0.479,0.036 -0.562,0.263c-0.082,0.228 0.036,0.48 0.263,0.562c0.826,0.299 1.683,0.553 2.565,0.768c0.235,0.058 0.473,-0.087 0.53,-0.322c0.057,-0.235 -0.087,-0.472 -0.322,-0.53Zm25.877,-0.98c-0,0 -0.952,0.235 -2.552,0.541c-0.237,0.046 -0.393,0.276 -0.348,0.514c0.046,0.237 0.276,0.393 0.514,0.348c1.627,-0.312 2.595,-0.551 2.595,-0.551c0.235,-0.058 0.379,-0.296 0.321,-0.531c-0.058,-0.235 -0.296,-0.379 -0.53,-0.321Zm-29.936,-0.414c-0.034,-0.015 -0.067,-0.031 -0.101,-0.047c-0.218,-0.104 -0.48,-0.01 -0.584,0.208c-0.103,0.219 -0.01,0.481 0.209,0.585c0.035,0.016 0.07,0.033 0.105,0.049c0.219,0.103 0.481,0.008 0.583,-0.212c0.102,-0.219 0.007,-0.48 -0.212,-0.583Z" style="fill:#b9b9b9;"/><path d="M55.193,128.092c-3.284,-0.472 -6.487,-1.194 -9.591,-2.147l0,-4.785l9.591,0l-0,6.932Z" style="fill:#094d9a;"/><path d="M68.276,112.385c1.584,-0.144 3.11,2.385 3.406,5.644c0.296,3.259 -0.75,6.021 -2.334,6.165c-1.584,0.143 -3.111,-2.386 -3.406,-5.644c-0.296,-3.259 0.75,-6.021 2.334,-6.165Z" style="fill:#f2af0d;"/><path d="M83.949,125.693c0.392,-0.965 1.043,-2.006 1.914,-2.983c2.178,-2.443 4.909,-3.566 6.097,-2.508c0.488,0.436 0.64,1.174 0.497,2.061c-2.733,1.338 -5.575,2.487 -8.508,3.43Z" style="fill:#f2af0d;"/><path d="M68.469,114.508c1.014,-0.093 1.992,1.527 2.181,3.614c0.189,2.088 -0.481,3.857 -1.495,3.949c-1.015,0.092 -1.992,-1.528 -2.181,-3.615c-0.19,-2.087 0.48,-3.856 1.495,-3.948Z" style="fill:#ce950b;"/><path d="M85.463,125.185c0.255,-0.582 0.653,-1.202 1.174,-1.786c1.394,-1.564 3.144,-2.284 3.904,-1.606c0.294,0.262 0.398,0.695 0.333,1.218c-1.763,0.804 -3.568,1.53 -5.411,2.174Z" style="fill:#ce950b;"/><path d="M64.534,128.747c0.045,-1.05 0.233,-2.111 0.579,-3.158c2.016,-6.108 8.612,-9.43 14.721,-7.414c3.304,1.09 5.793,3.521 7.063,6.49c-6.958,2.62 -14.495,4.063 -22.363,4.082Z" style="fill:#f2af0d;"/><path d="M66.642,128.707c1.486,-3.499 6.238,-5.091 10.889,-3.556c1.126,0.371 2.148,0.894 3.038,1.525c-4.47,1.168 -9.132,1.864 -13.927,2.031Z" style="fill:#f9d786;"/></g></g></g></svg>