<?xml version="1.0" encoding="UTF-8" standalone="no"?> <svg xmlns="http://www.w3.org/2000/svg" width="1138.9" height="1706.699" viewBox="0 0 1138.9 1706.699">
  <g id="Layer_x0020_1" transform="translate(-930.54 -646.65)">
    <path id="Path_11" data-name="Path 11" d="M1414.97,2005.25Zm-11.46,348.09V2027.13a26.552,26.552,0,0,1,11.46-21.87c.18-.12,21.84-14.26,55.8-36.07l-146.55-83.86-53.34-30.52-68.2-39.02H1065.32c-37.71,0-71.81,17.43-96.35,45.48-23.71,27.11-38.43,64.24-38.43,104.81v319.38a70.983,70.983,0,0,0,17.25,46.61c11.48,13.13,27.56,21.28,45.45,21.28H1403.5Z" fill="#022a32" fill-rule="evenodd"/>
    <path id="Path_12" data-name="Path 12" d="M1456.85,2353.34h549.89c17.89,0,33.98-8.15,45.45-21.28a70.963,70.963,0,0,0,17.25-46.61V1966.07c0-40.58-14.72-77.7-38.43-104.81-24.54-28.06-58.63-45.48-96.35-45.48H1818.45c-22.41,12.77-48.65,28.31-76.62,45.2-17.29,10.44-35.23,21.41-53.34,32.57-100.39,61.87-205.8,129.71-231.65,147.52v312.26ZM1603.87,2047a26.67,26.67,0,1,1-26.67-26.67A26.676,26.676,0,0,1,1603.87,2047Zm-26.67,75.98a26.67,26.67,0,1,1-26.67,26.67A26.676,26.676,0,0,1,1577.2,2122.98Zm0,102.65a26.67,26.67,0,1,1-26.67,26.67A26.676,26.676,0,0,1,1577.2,2225.63Z" fill="#022a32" fill-rule="evenodd"/>
    <path id="Path_13" data-name="Path 13" d="M1816.71,1237.41a26.578,26.578,0,1,0-53.13-1.67l-5.63,162.64h-.09l-.02.93h0c0,93.69-28.99,178.15-75.84,238.95-45.37,58.87-107.5,95.29-175.63,95.29s-130.26-36.42-175.63-95.3c-46.85-60.8-75.84-145.26-75.84-238.95a27.675,27.675,0,0,0-.19-3.17l-5.55-160.39a26.578,26.578,0,1,0-53.13,1.67l5.56,160.59-.03,1.3c0,105.63,33.29,201.63,87.09,271.45,55.29,71.75,132.24,116.13,217.72,116.13s162.43-44.38,217.72-116.13c53.81-69.82,87.09-165.83,87.09-271.46h-.08l5.61-161.89Z" fill="#022a32"/>
    <path id="Path_14" data-name="Path 14" d="M1858.12,873.28a137.027,137.027,0,0,1,13.13,246.22c-104.38-45.03-277.34-100.95-370.84-102.24-83.74-1.16-262.1,59.66-372.53,110.01a137.088,137.088,0,0,1,9.85-243.93l-.28-2.11a210.382,210.382,0,0,1-1.8-26.6,207.923,207.923,0,0,1,383.09-112.11,207.9,207.9,0,0,1,339.37,130.76Zm-41.31,281.31v81.98a26.681,26.681,0,0,1-36.84,24.66c-92.84-29.72-184.82-45.13-275.87-45.4-91.5-.27-182.46,14.77-272.84,45.93v.02a26.678,26.678,0,0,1-35.36-25.39v-80.56c102.48-42.37,238.43-86.35,303.88-85.44,76.85,1.06,217.74,44.66,317.02,84.2Z" fill="#db5656"/>
    <path id="Path_15" data-name="Path 15" d="M1350.96,1312.76a26.67,26.67,0,0,0,0,53.34h81.08a26.67,26.67,0,0,0,0-53.34Z" fill="#022a32"/>
    <path id="Path_16" data-name="Path 16" d="M1580.69,1312.76a26.67,26.67,0,1,0,0,53.34h81.08a26.67,26.67,0,0,0,0-53.34Z" fill="#022a32"/>
    <path id="Path_17" data-name="Path 17" d="M1421.43,1513.17a26.557,26.557,0,1,0-39.58,35.42c.17.19,54.97,62.91,124.52,7.52,69.54,55.38,124.35-7.32,124.52-7.52a26.557,26.557,0,0,0-39.58-35.42c-.07.08-26.34,30.27-64.38-10.54a27.592,27.592,0,0,0-2.59-2.72,26.66,26.66,0,0,0-37.67,1.73l.01.06c-38.51,42.22-65.17,11.56-65.24,11.47Z" fill="#022a32"/>
    <path id="Path_18" data-name="Path 18" d="M1741.84,1637.81a26.67,26.67,0,0,0-53.34,0v337.98a26.67,26.67,0,0,0,53.34,0Zm-470.96,304.64a26.67,26.67,0,0,0,53.34,0V1637.81a26.67,26.67,0,0,0-53.34,0Z" fill="#022a32"/>
    <path id="Path_19" data-name="Path 19" d="M1521.38,1955.09c43.33-27.53,109.19-70.91,167.13-107.37,18.99-11.95,37.12-23.15,53.34-32.81l-53.34.1-364.28.67-53.34.1,53.34,29.67,197.15,109.65Z" fill="#022a32" fill-rule="evenodd"/>
  </g>
</svg>
