<?xml version="1.0" encoding="utf-8"?>
<!-- Generator: Adobe Illustrator 16.0.0, SVG Export Plug-In . SVG Version: 6.00 Build 0)  -->
<!DOCTYPE svg PUBLIC "-//W3C//DTD SVG 1.0//EN" "http://www.w3.org/TR/2001/REC-SVG-20010904/DTD/svg10.dtd">
<svg version="1.0" id="Layer_1" xmlns="http://www.w3.org/2000/svg" xmlns:xlink="http://www.w3.org/1999/xlink" x="0px" y="0px"
	 width="100px" height="100px" viewBox="0 0 100 100" enable-background="new 0 0 100 100" xml:space="preserve">
<circle fill="#F2E6DE" stroke="#333333" stroke-width="2" stroke-linecap="round" stroke-linejoin="round" stroke-miterlimit="10" cx="50" cy="50" r="40"/>
<path fill="#3C485B" stroke="#333333" stroke-width="2" stroke-linecap="round" stroke-linejoin="round" stroke-miterlimit="10" d="
	M68.824,47.531c0-10.397-8.428-18.826-18.825-18.826c-10.395,0-18.823,8.429-18.823,18.826v3.256c0,9.584,1.606,18.787,4.504,27.396
	c-2.71,1.996-5.863,3.416-9.281,4.107C33.016,87.134,41.17,90,49.999,90c8.828,0,16.983-2.866,23.601-7.71
	c-3.421-0.691-6.572-2.111-9.283-4.107c2.899-8.609,4.508-17.812,4.508-27.397V47.531z"/>
<path fill="#343F50" d="M64.746,46.169v3.629c0,10.69-1.794,20.951-5.027,30.552c2.912,2.144,6.284,3.685,9.938,4.484
	c1.367-0.773,2.684-1.623,3.943-2.545c-3.421-0.691-6.572-2.111-9.283-4.107c2.899-8.609,4.508-17.812,4.508-27.397v-3.254
	c0-7.775-4.714-14.448-11.44-17.319C61.888,34.062,64.746,39.78,64.746,46.169z"/>
<path fill="#FCD3C9" stroke="#333333" stroke-width="2" stroke-linecap="round" stroke-linejoin="round" stroke-miterlimit="10" d="
	M38.236,47.641c0.337,1.693,0.493,3.379,1.177,5.033c5.846,5.846,15.327,5.846,21.175,0c0.685-1.654,0.84-3.34,1.177-5.033
	C53.918,44.394,45.502,44.63,38.236,47.641z"/>
<path fill="#EAC5BD" d="M44.696,56.078c-1.137-3.246-1.697-6.531-2.267-9.833c-1.432,0.365-2.832,0.831-4.194,1.395
	c0.337,1.693,0.493,3.379,1.177,5.033C40.962,54.224,42.772,55.35,44.696,56.078z"/>
<path fill="none" stroke="#333333" stroke-width="2" stroke-linecap="round" stroke-linejoin="round" stroke-miterlimit="10" d="
	M40.385,79.123c6.411,2.659,13.287,2.465,19.227,0.004C53.672,81.588,46.796,81.782,40.385,79.123z"/>
<path fill="none" stroke="#333333" stroke-width="2" stroke-linecap="round" stroke-linejoin="round" stroke-miterlimit="10" d="
	M52.939,50h3.531H52.939z"/>
<path fill="none" stroke="#333333" stroke-width="2" stroke-linecap="round" stroke-linejoin="round" stroke-miterlimit="10" d="
	M43.531,50h3.527H43.531z"/>
<path fill="none" stroke="#333333" stroke-width="2" stroke-linecap="round" stroke-linejoin="round" stroke-miterlimit="10" d="
	M38.236,47.641c0.337,1.693,0.493,3.379,1.177,5.033c5.846,5.846,15.327,5.846,21.175,0c0.685-1.654,0.84-3.34,1.177-5.033
	C53.918,44.394,45.502,44.63,38.236,47.641z"/>
<path fill="none" stroke="#333333" stroke-width="2" stroke-linecap="round" stroke-linejoin="round" stroke-miterlimit="10" d="
	M68.824,47.531c0-10.397-8.428-18.826-18.825-18.826c-10.395,0-18.823,8.429-18.823,18.826v3.256c0,9.584,1.606,18.787,4.504,27.396
	c-2.71,1.996-5.863,3.416-9.281,4.107C33.016,87.134,41.17,90,49.999,90c8.828,0,16.983-2.866,23.601-7.71
	c-3.421-0.691-6.572-2.111-9.283-4.107c2.899-8.609,4.508-17.812,4.508-27.397V47.531z"/>
</svg>
