<?xml version="1.0" encoding="UTF-8" standalone="no"?> <svg width="64" height="64" viewBox="0 0 64 64" fill="none" xmlns="http://www.w3.org/2000/svg">
<path d="M56 46H7V61H56V46Z" fill="#79BD9A"/>
<path d="M61 49.66V49.69C61 50.2045 60.8603 50.7094 60.5956 51.1506C60.331 51.5919 59.9515 51.953 59.4976 52.1953C59.0438 52.4377 58.5326 52.5522 58.0187 52.5266C57.5048 52.501 57.0075 52.3362 56.58 52.05C56.1125 51.737 55.5626 51.5699 55 51.5699C54.4374 51.5699 53.8875 51.737 53.42 52.05L50.73 53.85C50.2272 54.1817 49.6324 54.3458 49.0306 54.3189C48.4289 54.292 47.8511 54.0753 47.38 53.7L45.62 52.3C45.1489 51.9247 44.5711 51.708 43.9694 51.6811C43.3676 51.6542 42.7728 51.8183 42.27 52.15L39.58 53.95C39.1125 54.263 38.5626 54.4301 38 54.4301C37.4374 54.4301 36.8875 54.263 36.42 53.95L33.58 52.05C33.1125 51.737 32.5626 51.5699 32 51.5699C31.4374 51.5699 30.8875 51.737 30.42 52.05L27.46 54.02C27.0208 54.3137 26.5086 54.4795 25.9806 54.4989C25.4526 54.5183 24.9296 54.3906 24.47 54.13L20.89 52.08C20.3472 51.7691 19.7171 51.6456 19.097 51.7288C18.477 51.8119 17.9017 52.097 17.46 52.54L16.8 53.2C16.3047 53.695 15.6443 53.99 14.9451 54.0288C14.2459 54.0675 13.557 53.8472 13.01 53.41L11.51 52.21C11.0647 51.8531 10.5224 51.6384 9.95349 51.5938C9.38459 51.5492 8.81543 51.6768 8.32 51.96L7.26 52.57C6.82701 52.8165 6.33696 52.9452 5.83872 52.9432C5.34049 52.9412 4.85147 52.8087 4.42044 52.5588C3.98941 52.3089 3.63143 51.9503 3.3822 51.5189C3.13296 51.0875 3.00118 50.5982 3 50.1V49.35C3.00104 47.4125 3.50352 45.5083 4.45855 43.8225C5.41358 42.1368 6.78865 40.7269 8.45 39.73C9.87143 38.8757 11.0858 37.717 12.0057 36.3371C12.9256 34.9573 13.5282 33.3907 13.77 31.75L15.99 16.65C16.5485 12.8561 18.4529 9.38973 21.3555 6.88369C24.2581 4.37765 27.9653 2.99919 31.8 3C32.22 3 32.64 3.02 33.06 3.05C33.3344 5.32423 34.4642 7.40873 36.22 8.88C39.2555 11.4844 41.1979 15.1372 41.66 19.11L43.32 33.24C43.3282 33.2693 43.3316 33.2997 43.33 33.33C43.6383 35.4745 44.7146 37.4341 46.3588 38.8448C48.0031 40.2555 50.1036 41.0213 52.27 41H56.9C58.1831 42.0488 59.2167 43.3701 59.9259 44.868C60.635 46.3658 61.002 48.0027 61 49.66V49.66Z" fill="#CFF09E"/>
<path d="M28 32L32 35L37 32L38 35L44 32L41 42L37 40L34 43L32 39L29 43L26 39L24 42L19 32L26 35L28 32Z" fill="#79BD9A"/>
<path d="M41 19H43C43 20.5913 42.3679 22.1174 41.2426 23.2426C40.1174 24.3679 38.5913 25 37 25H35C35 23.4087 35.6321 21.8826 36.7574 20.7574C37.8826 19.6321 39.4087 19 41 19V19Z" fill="#79BD9A"/>
<path d="M29 25H27C25.4087 25 23.8826 24.3679 22.7574 23.2426C21.6321 22.1174 21 20.5913 21 19V19H23C24.5913 19 26.1174 19.6321 27.2426 20.7574C28.3679 21.8826 29 23.4087 29 25Z" fill="#79BD9A"/>
<path d="M59.68 22.88C58.7312 24.5159 57.323 25.8372 55.63 26.68L53 28L53.37 26.98C53.5582 26.4403 53.7119 25.8892 53.83 25.33C54.151 23.2731 53.934 21.1681 53.2 19.22C53.027 18.6944 52.9656 18.1384 53.0197 17.5877C53.0738 17.037 53.2423 16.5037 53.5143 16.0218C53.7863 15.5399 54.1559 15.12 54.5994 14.7891C55.0429 14.4582 55.5506 14.2235 56.09 14.1C56.1158 14.0918 56.1429 14.0884 56.17 14.09C56.0567 14.7203 55.9998 15.3595 56 16C56 19.43 57.58 22.29 59.68 22.88Z" fill="#CFF09E"/>
<path d="M11 23L8.37 21.68C6.75667 20.8752 5.39957 19.6366 4.45101 18.1034C3.50245 16.5702 2.99999 14.8029 3 13C2.99957 12.0403 3.34513 11.1127 3.9733 10.3871C4.60147 9.66161 5.47014 9.18688 6.42 9.04999C6.13642 10.0075 5.99491 11.0014 6 12C6 15.61 7.75 18.58 10.01 18.95C10.0238 19.4137 10.0773 19.8754 10.17 20.33C10.2881 20.8892 10.4418 21.4403 10.63 21.98L11 23Z" fill="#CFF09E"/>
<path d="M55.57 38.9C54.1376 38.1169 52.9133 37.0026 51.9991 35.6501C51.085 34.2976 50.5075 32.7461 50.315 31.125L48.653 16.99C48.1741 12.9006 46.2252 9.1246 43.1691 6.36539C40.113 3.60618 36.1582 2.05186 32.0413 1.99191C27.9244 1.93197 23.926 3.37049 20.7909 6.03955C17.6558 8.70862 15.5977 12.4262 15 16.5L12.78 31.6C12.5627 33.097 12.0144 34.5267 11.1751 35.7851C10.3358 37.0436 9.22653 38.0991 7.928 38.875C6.1237 39.9654 4.63053 41.502 3.59228 43.3368C2.55403 45.1716 2.00567 47.2428 2 49.351V50.1C1.99983 50.6179 2.10439 51.1306 2.30739 51.6071C2.5104 52.0836 2.80765 52.5141 3.18129 52.8728C3.55493 53.2315 3.99724 53.5109 4.48163 53.6943C4.96602 53.8777 5.48249 53.9613 6 53.94V61C6 61.2652 6.10536 61.5196 6.29289 61.7071C6.48043 61.8946 6.73478 62 7 62C7.26522 62 7.51957 61.8946 7.70711 61.7071C7.89464 61.5196 8 61.2652 8 61V53.3L8.817 52.832C9.13776 52.6472 9.50687 52.5637 9.87591 52.5925C10.245 52.6212 10.5967 52.7608 10.885 52.993L12.385 54.193C12.8569 54.5652 13.4104 54.8202 14 54.937V61C14 61.2652 14.1054 61.5196 14.2929 61.7071C14.4804 61.8946 14.7348 62 15 62C15.2652 62 15.5196 61.8946 15.7071 61.7071C15.8946 61.5196 16 61.2652 16 61V54.822C16.567 54.6391 17.0832 54.3257 17.507 53.907L18.171 53.243C18.457 52.9569 18.829 52.7726 19.2299 52.7184C19.6307 52.6642 20.0383 52.7431 20.39 52.943L23.978 55C24.5974 55.356 25.304 55.5315 26.018 55.5068C26.7319 55.482 27.4247 55.258 28.018 54.86L30.977 52.887C31.2797 52.6845 31.6358 52.5764 32 52.5764C32.3642 52.5764 32.7203 52.6845 33.023 52.887L35.868 54.787C36.499 55.209 37.2409 55.4342 38 55.4342C38.7591 55.4342 39.501 55.209 40.132 54.787L42.824 52.993C43.1488 52.7742 43.5349 52.6646 43.9262 52.6802C44.3176 52.6959 44.6937 52.8359 45 53.08L46.751 54.48C46.831 54.544 46.917 54.593 47 54.649V61C47 61.2652 47.1054 61.5196 47.2929 61.7071C47.4804 61.8946 47.7348 62 48 62C48.2652 62 48.5196 61.8946 48.7071 61.7071C48.8946 61.5196 49 61.2652 49 61V55.323C49.8108 55.3556 50.6109 55.1297 51.285 54.678L53.977 52.884C54.2798 52.6816 54.6358 52.5734 55 52.573V61C55 61.2652 55.1054 61.5196 55.2929 61.7071C55.4804 61.8946 55.7348 62 56 62C56.2652 62 56.5196 61.8946 56.7071 61.7071C56.8946 61.5196 57 61.2652 57 61V53.35C57.5779 53.5327 58.1908 53.5761 58.7886 53.4766C59.3865 53.3771 59.9523 53.1377 60.4399 52.7777C60.9275 52.4178 61.323 51.9476 61.5942 51.4055C61.8653 50.8635 62.0044 50.265 62 49.659C61.9977 47.4526 61.3988 45.2878 60.2669 43.3938C59.135 41.4999 57.5121 39.9471 55.57 38.9ZM59.026 51.313C58.7323 51.473 58.4002 51.549 58.0661 51.5328C57.732 51.5166 57.4088 51.4087 57.132 51.221C56.772 50.9832 56.3744 50.8081 55.956 50.703L55.513 48.928C55.3081 48.1074 54.928 47.3409 54.3987 46.6811C53.8695 46.0213 53.2036 45.484 52.447 45.106C52.2096 44.9874 51.9349 44.968 51.6832 45.0521C51.4315 45.1361 51.2236 45.3166 51.105 45.554C50.9864 45.7914 50.967 46.0661 51.0511 46.3178C51.1351 46.5694 51.3156 46.7774 51.553 46.896C52.0513 47.1449 52.4898 47.4987 52.8384 47.9332C53.1869 48.3677 53.4372 48.8725 53.572 49.413L53.902 50.734C53.5351 50.8441 53.1866 51.0082 52.868 51.221L50.176 53.015C49.8504 53.2327 49.4638 53.3409 49.0724 53.3238C48.6811 53.3067 48.3054 53.1653 48 52.92L46.249 51.52C45.6131 51.0081 44.8304 50.7126 44.0148 50.6766C43.1992 50.6406 42.3935 50.866 41.715 51.32L39.023 53.114C38.7203 53.3165 38.3642 53.4246 38 53.4246C37.6358 53.4246 37.2797 53.3165 36.977 53.114L34.132 51.214C33.5012 50.7915 32.7592 50.5659 32 50.5659C31.2408 50.5659 30.4988 50.7915 29.868 51.214L26.908 53.187C26.6233 53.3777 26.291 53.485 25.9486 53.4969C25.6061 53.5087 25.2672 53.4246 24.97 53.254L21.382 51.204C20.9835 50.9774 20.547 50.8253 20.094 50.755C20.2287 49.9563 20.5312 49.1953 20.9816 48.5222C21.432 47.8491 22.0201 47.2791 22.707 46.85C22.9288 46.7077 23.0855 46.4837 23.143 46.2265C23.2005 45.9694 23.1542 45.6999 23.0141 45.4767C22.8741 45.2536 22.6516 45.0947 22.395 45.0346C22.1385 44.9745 21.8686 45.0182 21.644 45.156C20.6367 45.7838 19.7879 46.6356 19.1635 47.6451C18.5391 48.6545 18.156 49.7944 18.044 50.976C17.5606 51.1678 17.1214 51.456 16.753 51.823L16.089 52.487C15.7683 52.8083 15.3403 52.9999 14.887 53.025C14.4338 53.0501 13.9872 52.9069 13.633 52.623L12.133 51.423C11.8136 51.1683 11.4558 50.9657 11.073 50.823L11.427 49.408C11.5629 48.869 11.8138 48.3658 12.1625 47.9329C12.5112 47.5 12.9494 47.1476 13.447 46.9C14.2036 46.522 14.8695 45.9846 15.3987 45.3249C15.928 44.6651 16.3081 43.8986 16.513 43.078L16.97 41.248C17.0323 40.9915 16.9907 40.7207 16.8542 40.4948C16.7177 40.2688 16.4973 40.106 16.2413 40.0419C15.9852 39.9777 15.7142 40.0175 15.4873 40.1523C15.2603 40.2872 15.096 40.5064 15.03 40.762L14.572 42.593C14.4372 43.1334 14.1869 43.6383 13.8384 44.0728C13.4898 44.5073 13.0513 44.8611 12.553 45.11C11.7964 45.488 11.1305 46.0253 10.6013 46.6851C10.072 47.3449 9.69189 48.1114 9.487 48.932L9.057 50.655C8.62427 50.731 8.20765 50.8801 7.825 51.096L6.76 51.7C6.47961 51.8605 6.16198 51.9445 5.83891 51.9436C5.51584 51.9427 5.19868 51.8569 4.91918 51.6949C4.63968 51.5329 4.40765 51.3003 4.24633 51.0204C4.08502 50.7404 4.00007 50.4231 4 50.1V49.352C4.00494 47.5886 4.46387 45.8561 5.33259 44.3215C6.20131 42.7868 7.45055 41.5018 8.96 40.59C10.5126 39.662 11.8387 38.3997 12.842 36.8947C13.8454 35.3897 14.5006 33.68 14.76 31.89L16.98 16.79C17.5093 13.1984 19.3254 9.92139 22.0904 7.56878C24.8554 5.21617 28.3809 3.94818 32.0109 4.00077C35.6409 4.05335 39.1282 5.42292 41.8238 7.85463C44.5195 10.2863 46.2399 13.6146 46.665 17.22L48.327 31.353C48.561 33.3027 49.2595 35.1678 50.3638 36.7917C51.468 38.4155 52.9458 39.7506 54.673 40.685C56.2888 41.5666 57.6365 42.8682 58.5738 44.4523C59.5111 46.0365 60.0031 47.8443 59.998 49.685C60.0012 50.0193 59.9121 50.3481 59.7406 50.6351C59.5692 50.9221 59.3219 51.1563 59.026 51.312V51.313Z" fill="#3B8686"/>
<path d="M43.553 31.105L38.584 33.59L37.949 31.684C37.9016 31.5418 37.8229 31.4121 37.7187 31.3045C37.6145 31.1968 37.4874 31.114 37.3469 31.062C37.2063 31.0101 37.0559 30.9904 36.9067 31.0044C36.7575 31.0184 36.6134 31.0658 36.485 31.143L32.062 33.8L28.6 31.2C28.4912 31.1184 28.3669 31.0598 28.2347 31.0279C28.1026 30.996 27.9653 30.9913 27.8312 31.0142C27.6972 31.0372 27.5693 31.0872 27.4552 31.1613C27.3412 31.2353 27.2434 31.3319 27.168 31.445L25.629 33.753L19.394 31.081C19.2057 31.0001 18.9971 30.9791 18.7965 31.0207C18.5958 31.0623 18.4128 31.1645 18.2721 31.3136C18.1315 31.4626 18.0401 31.6512 18.0102 31.854C17.9803 32.0567 18.0134 32.2637 18.105 32.447L23.105 42.447C23.1832 42.6038 23.3013 42.7373 23.4474 42.8341C23.5935 42.9309 23.7624 42.9876 23.9374 42.9986C24.1123 43.0095 24.287 42.9743 24.444 42.8964C24.601 42.8186 24.7348 42.7008 24.832 42.555L26.048 40.731L28.2 43.6C28.2972 43.7181 28.4193 43.8132 28.5576 43.8786C28.6959 43.9439 28.847 43.9777 29 43.9777C29.1529 43.9777 29.304 43.9439 29.4423 43.8786C29.5806 43.8132 29.7028 43.7181 29.8 43.6L31.829 40.9L33.1 43.447C33.1709 43.5888 33.2745 43.7118 33.4023 43.8057C33.5301 43.8996 33.6784 43.9617 33.835 43.987C33.8895 43.9961 33.9447 44.0004 34 44C34.2652 43.9999 34.5195 43.8945 34.707 43.707L37.197 41.217L40.553 42.9C40.6835 42.9652 40.8266 43.001 40.9725 43.0051C41.1183 43.0091 41.2632 42.9811 41.3971 42.9232C41.5309 42.8653 41.6505 42.7787 41.7474 42.6697C41.8443 42.5607 41.9162 42.4317 41.958 42.292L44.958 32.292C45.0141 32.105 45.0143 31.9057 44.9585 31.7186C44.9027 31.5315 44.7934 31.3649 44.644 31.2392C44.4946 31.1135 44.3117 31.0343 44.1178 31.0113C43.9239 30.9884 43.7276 31.0227 43.553 31.11V31.105ZM40.384 40.574L37.447 39.1C37.2592 39.0063 37.0467 38.974 36.8396 39.0078C36.6325 39.0415 36.4413 39.1395 36.293 39.288L34.274 41.307L32.9 38.553C32.8241 38.3993 32.7101 38.2677 32.5687 38.1708C32.4274 38.0739 32.2636 38.015 32.0929 37.9996C31.9222 37.9843 31.7505 38.013 31.5941 38.0831C31.4378 38.1532 31.302 38.2623 31.2 38.4L29 41.333L26.8 38.4C26.7068 38.2758 26.586 38.175 26.4472 38.1056C26.3083 38.0361 26.1552 38 26 38H25.972C25.8128 38.0051 25.6572 38.0482 25.5181 38.1256C25.3789 38.203 25.2603 38.3125 25.172 38.445L24.128 40.012L21.119 33.995L25.61 35.919C25.8247 36.0111 26.0648 36.0251 26.2888 35.9586C26.5127 35.8921 26.7063 35.7493 26.836 35.555L28.25 33.434L31.4 35.8C31.5591 35.9193 31.7502 35.9884 31.9488 35.9986C32.1474 36.0087 32.3445 35.9594 32.515 35.857L36.445 33.499L37.051 35.316C37.0961 35.4525 37.1701 35.5777 37.268 35.6831C37.3659 35.7884 37.4854 35.8714 37.6183 35.9263C37.7512 35.9813 37.8944 36.0069 38.0381 36.0015C38.1818 35.9961 38.3226 35.9598 38.451 35.895L42.381 33.93L40.384 40.574Z" fill="#3B8686"/>
<path d="M35 26H37C38.8559 25.9979 40.6351 25.2597 41.9474 23.9474C43.2597 22.6351 43.9979 20.8559 44 19C44 18.7348 43.8946 18.4804 43.7071 18.2929C43.5196 18.1054 43.2652 18 43 18H41C39.1441 18.0021 37.3649 18.7403 36.0526 20.0526C34.7403 21.3649 34.0021 23.1441 34 25C34 25.2652 34.1054 25.5196 34.2929 25.7071C34.4804 25.8946 34.7348 26 35 26ZM41 20H41.9C41.6681 21.1287 41.054 22.1428 40.1614 22.8715C39.2688 23.6002 38.1523 23.9987 37 24H36.1C36.3319 22.8713 36.946 21.8572 37.8386 21.1285C38.7312 20.3998 39.8477 20.0013 41 20V20Z" fill="#3B8686"/>
<path d="M27 26H29C29.2652 26 29.5196 25.8946 29.7071 25.7071C29.8946 25.5196 30 25.2652 30 25C29.9979 23.1441 29.2597 21.3649 27.9474 20.0526C26.6351 18.7403 24.8559 18.0021 23 18H21C20.7348 18 20.4804 18.1054 20.2929 18.2929C20.1054 18.4804 20 18.7348 20 19C20.0021 20.8559 20.7403 22.6351 22.0526 23.9474C23.3649 25.2597 25.1441 25.9979 27 26ZM23 20C24.1523 20.0013 25.2688 20.3998 26.1614 21.1285C27.054 21.8572 27.6681 22.8713 27.9 24H27C25.8477 23.9987 24.7312 23.6002 23.8386 22.8715C22.946 22.1428 22.3319 21.1287 22.1 20H23Z" fill="#3B8686"/>
<path d="M52.425 26.64L52.059 27.663C51.9902 27.8512 51.9795 28.0557 52.0283 28.25C52.0772 28.4444 52.1832 28.6196 52.3328 28.7529C52.4824 28.8862 52.6686 28.9715 52.8673 28.9977C53.0659 29.024 53.2679 28.9899 53.447 28.9L56.081 27.583C57.8646 26.6985 59.3646 25.3318 60.4109 23.6379C61.4571 21.9441 62.0076 19.9909 62 18C62.0017 17.2767 61.8465 16.5616 61.545 15.9041C61.2435 15.2467 60.803 14.6624 60.2538 14.1917C59.7047 13.721 59.0599 13.3751 58.364 13.1777C57.6682 12.9804 56.9378 12.9364 56.2233 13.0488C55.5087 13.1611 54.8271 13.4272 54.2254 13.8285C53.6237 14.2299 53.1162 14.7571 52.738 15.3736C52.3598 15.9901 52.1198 16.6814 52.0347 17.3997C51.9496 18.1179 52.0213 18.8461 52.245 19.534C52.9339 21.3154 53.1409 23.247 52.845 25.134C52.7415 25.6455 52.6011 26.1488 52.425 26.64V26.64ZM56.307 15.076C56.7479 14.9727 57.2065 14.9703 57.6485 15.069C58.0905 15.1677 58.5045 15.365 58.8596 15.6462C59.2146 15.9273 59.5016 16.285 59.6991 16.6926C59.8966 17.1002 59.9994 17.5471 60 18C60.0052 19.6183 59.557 21.2058 58.7061 22.5825C57.8553 23.9591 56.6358 25.0699 55.186 25.789L54.692 26.036C54.7326 25.8666 54.7703 25.6976 54.805 25.529C55.1758 23.3032 54.9484 21.0189 54.146 18.91C54.0509 18.6218 54.0016 18.3205 54 18.017C54.0056 18.2922 54.1197 18.5541 54.3173 18.7457C54.5149 18.9374 54.7802 19.0433 55.0555 19.0404C55.3308 19.0376 55.5938 18.9263 55.7875 18.7306C55.9811 18.5349 56.0897 18.2708 56.0897 17.9955C56.0897 17.7202 55.9811 17.456 55.7875 17.2604C55.5938 17.0647 55.3308 16.9534 55.0555 16.9505C54.7802 16.9477 54.5149 17.0536 54.3173 17.2452C54.1197 17.4369 54.0056 17.6987 54 17.974C54.0025 17.7195 54.036 17.4663 54.1 17.22C54.24 16.6966 54.5191 16.221 54.9077 15.8435C55.2962 15.466 55.7798 15.2008 56.307 15.076V15.076Z" fill="#3B8686"/>
<path d="M59 19C59.5523 19 60 18.5523 60 18C60 17.4477 59.5523 17 59 17C58.4477 17 58 17.4477 58 18C58 18.5523 58.4477 19 59 19Z" fill="#3B8686"/>
<path d="M7.919 22.578L10.553 23.9C10.6924 23.9671 10.8453 24.0013 11 24C11.1603 23.9999 11.3182 23.9613 11.4604 23.8874C11.6026 23.8136 11.725 23.7066 11.8173 23.5755C11.9095 23.4445 11.9689 23.2932 11.9904 23.1344C12.012 22.9755 11.995 22.8139 11.941 22.663L11.575 21.639C11.3985 21.1472 11.2581 20.6432 11.155 20.131C10.8592 18.244 11.0662 16.3125 11.755 14.531C11.9787 13.843 12.0504 13.1147 11.9652 12.3963C11.88 11.6779 11.6399 10.9866 11.2616 10.37C10.8832 9.7534 10.3755 9.22626 9.77362 8.82495C9.17171 8.42365 8.48989 8.15774 7.77521 8.04557C7.06054 7.93341 6.33003 7.97766 5.63413 8.17528C4.93822 8.3729 4.29348 8.71917 3.74442 9.1902C3.19535 9.66123 2.75504 10.2458 2.45387 10.9036C2.1527 11.5613 1.99785 12.2766 2 13C1.9933 14.99 2.54427 16.9422 3.59043 18.635C4.6366 20.3279 6.13612 21.6939 7.919 22.578V22.578ZM5.119 10.661C5.64881 10.2306 6.31139 9.99699 6.994 9.99999C7.22941 10.0006 7.46408 10.0264 7.694 10.077C8.22087 10.2019 8.70412 10.467 9.09251 10.8443C9.48089 11.2216 9.75992 11.697 9.9 12.22C9.96392 12.4663 9.9975 12.7195 10 12.974C9.99434 12.721 9.88915 12.4805 9.70727 12.3047C9.52539 12.1288 9.28148 12.0317 9.02849 12.0346C8.77549 12.0374 8.53382 12.1399 8.35592 12.3198C8.17802 12.4997 8.07824 12.7425 8.07824 12.9955C8.07824 13.2485 8.17802 13.4913 8.35592 13.6712C8.53382 13.8511 8.77549 13.9536 9.02849 13.9564C9.28148 13.9593 9.52539 13.8622 9.70727 13.6863C9.88915 13.5105 9.99434 13.2699 10 13.017C9.99933 13.3203 9.95107 13.6216 9.857 13.91C9.05531 16.0188 8.82857 18.3028 9.2 20.528C9.234 20.698 9.27167 20.8673 9.313 21.036L8.819 20.789C7.3682 20.0707 6.14771 18.9602 5.29595 17.5834C4.44418 16.2067 3.99523 14.6189 4 13C3.99913 12.5509 4.09956 12.1073 4.29382 11.7023C4.48808 11.2974 4.77116 10.9414 5.122 10.661H5.119Z" fill="#3B8686"/>
<path d="M5 14C5.55228 14 6 13.5523 6 13C6 12.4477 5.55228 12 5 12C4.44772 12 4 12.4477 4 13C4 13.5523 4.44772 14 5 14Z" fill="#3B8686"/>
</svg>
