<?xml version="1.0" encoding="UTF-8" standalone="no"?> <svg xmlns="http://www.w3.org/2000/svg" viewBox="0 0 64 64"><title>spider-man-hero-marvel-avatar-character</title><g id="_05-spider_man" data-name="05-spider man"><path d="M47,63h9V47a9.418,9.418,0,0,0-7.018-9.108l-7.745-2.041A5.686,5.686,0,0,1,37,30.354V26H27v4.354a5.686,5.686,0,0,1-4.237,5.5l-7.745,2.041A9.418,9.418,0,0,0,8,47V63h9" style="fill:#c1272d"/><polyline points="17 49 17 63 47 63 47 49" style="fill:#c1272d"/><path d="M21,19.169v-7.3a11,11,0,0,1,11-11h0a11,11,0,0,1,11,11v7.3A10.831,10.831,0,0,1,32.169,30h-.338A10.831,10.831,0,0,1,21,19.169Z" style="fill:#c1272d"/><path d="M32,15.219l-11-5.5S23.75,26.219,32,15.219Z" style="fill:#fff"/><path d="M32,15.219l11-5.5S40.25,26.219,32,15.219Z" style="fill:#fff"/><ellipse cx="32" cy="48.5" rx="3" ry="4.5" style="fill:#3f5fa0"/><polygon points="24.483 63 17 49.103 17 63 24.483 63" style="fill:#3f5fa0"/><polygon points="9.517 63 17 49.103 17 63 9.517 63" style="fill:#3f5fa0"/><polygon points="54.483 63 47 49.103 47 63 54.483 63" style="fill:#3f5fa0"/><polygon points="39.517 63 47 49.103 47 63 39.517 63" style="fill:#3f5fa0"/><path d="M49.24,36.93l-7.75-2.04A4.708,4.708,0,0,1,38,30.35v-.9a11.819,11.819,0,0,0,6-10.28v-7.3a11.936,11.936,0,0,0-.1-1.5c.043-.219.075-.4.09-.489a1,1,0,0,0-.361-.938,11.983,11.983,0,0,0-23.25,0,1,1,0,0,0-.361.938c.015.091.047.27.09.489a11.936,11.936,0,0,0-.1,1.5v7.3a11.819,11.819,0,0,0,6,10.28v.9a4.708,4.708,0,0,1-3.49,4.54l-7.75,2.04A10.412,10.412,0,0,0,7,47V63a1,1,0,0,0,1,1H56a1,1,0,0,0,1-1V47A10.412,10.412,0,0,0,49.24,36.93ZM55,47V61.851l-3.846-7.142,3.822-8.273C54.989,46.623,55,46.811,55,47ZM9,49.9l3.811,4.871L9,61.851Zm4.847,2.948L9.014,46.672a8.38,8.38,0,0,1,.948-3.57l4.906.981L15,44.064l.845,5.07ZM27.229,33.464,31,36.481v2.6l-2.828.708L26.99,33.854C27.071,33.724,27.158,33.6,27.229,33.464ZM32,16.82a12.417,12.417,0,0,0,2.166,2.052L35.28,24H29.3l.613-5.188A12.581,12.581,0,0,0,32,16.82Zm-2.278-3.858L28.2,8.124,31,7.565V13.6ZM33,13.6V7.565l2.8.559-1.52,4.838Zm3.442,6.323A4,4,0,0,0,37.2,20a3.822,3.822,0,0,0,.914-.11,4.032,4.032,0,0,0,1.022-.425l.167.15L37,22.494Zm1.2-1.977c-1.34.328-2.866-.954-4.088-2.386l8.01-4.005C40.881,14.057,39.549,17.483,37.64,17.947Zm-.874-6.229.829-2.64,1.483,1.483ZM36.4,6.205,33,5.525v-3.6A9.909,9.909,0,0,1,37.284,3.4ZM31,5.525l-3.4.68L26.716,3.4A9.909,9.909,0,0,1,31,1.921Zm-3.766,6.193-2.312-1.157,1.483-1.483Zm3.214,3.843c-1.223,1.432-2.749,2.713-4.088,2.386-1.909-.464-3.241-3.89-3.922-6.391Zm-3.944,4.4c.1.007.2.035.3.035a4.1,4.1,0,0,0,.972-.134l-.285,2.414L25.906,20.7ZM29.062,26h6.652l.465,2.141c-.061.027-.117.062-.179.089a9.956,9.956,0,0,1-3.83.77h-.34a9.918,9.918,0,0,1-3.065-.493Zm7.948,7.854-1.182,5.935L33,39.082v-2.6l3.771-3.017C36.842,33.6,36.929,33.724,37.01,33.854ZM46.7,41H42.2l.343-3.77,4.4,1.158ZM41.122,51.41l-3.216,2.43-1.671-5.847,1.145-5.755,2.635.659-.485,5.331Zm-6.258-6.778A3.839,3.839,0,0,0,33,43.187V41.143l2.438.609ZM32,52c-.946,0-2-1.438-2-3.5S31.054,45,32,45s2,1.438,2,3.5S32.946,52,32,52Zm-2.864-7.368-.574-2.88L31,41.143v2.044A3.839,3.839,0,0,0,29.136,44.632Zm-1.371,3.361-1.659,5.8-3.158-2.526,1.522-3.043-.5-5.526,2.64-.528Zm-5.954-6.922-5.157.737-.529-3.173,5.336-1.405Zm-3.93,7.558c-.014-.025-.036-.042-.052-.066a.789.789,0,0,0-.066-.1l-.78-4.685,5.009-.717.435,4.778-2.393,4.785ZM22.033,53.1l3.478,2.782L24.219,60.4l-3.026-5.621Zm6.737-1.344A4.121,4.121,0,0,0,31,53.813v1.553l-3.085-.616ZM33,53.813a4.121,4.121,0,0,0,2.23-2.057l.855,2.994L33,55.366Zm9.031-.584.776,1.552L39.781,60.4l-1.286-4.5Zm1.935-.6-2.393-4.785.443-4.865,4.5.018-.536,5.89Zm4.028-3.787.511-5.629,4.989,1.663-3.526,7.632Zm5.943-5.927-5.246-1.748.2-2.254A8.4,8.4,0,0,1,53.937,42.913ZM40.58,36.678l-.382,4.2-2.427-.607.912-4.585A6.616,6.616,0,0,0,40.58,36.678Zm-4.489-5.232L33,33.919V30.965a11.943,11.943,0,0,0,3-.605A6.725,6.725,0,0,0,36.091,31.446ZM38,27.08l0,0-.45-2.07,3.247-4.059.858.771A9.871,9.871,0,0,1,38,27.08Zm4-7.91c0,.057-.009.112-.01.169l-1.313-1.178A10.553,10.553,0,0,0,42,16.122Zm-.354-9.893-.682.342L38.272,6.926l.7-2.212A10,10,0,0,1,41.646,9.277ZM25.033,4.714l.7,2.212L23.036,9.619l-.682-.342A10,10,0,0,1,25.033,4.714Zm-.528,14.538-2.117,2.6A9.747,9.747,0,0,1,22,19.17V16.122A8.318,8.318,0,0,0,24.505,19.252Zm-1.246,4.7,1.378-1.692,2.551,2.551-.334,2.833A9.047,9.047,0,0,1,26,27.08,9.91,9.91,0,0,1,23.259,23.95ZM31,30.965v2.954l-3.091-2.473A6.725,6.725,0,0,0,28,30.36,11.943,11.943,0,0,0,31,30.965Zm-5.683,4.724.9,4.524-2.432.487-.365-4.022A6.616,6.616,0,0,0,25.317,35.689ZM14.2,39.229,14.659,42l-3.445-.688A8.37,8.37,0,0,1,14.2,39.229ZM16,53.07V62H11.191ZM18,62V53.07L22.809,62Zm7.844,0,1.52-5.321L31,57.406V62ZM33,57.406l3.636-.727L38.156,62H33ZM46,53.07V62H41.191ZM48,62V53.07L52.809,62Z"/></g></svg>