<svg xmlns="http://www.w3.org/2000/svg" viewBox="0 0 1440 320"><path fill="#1e90ff" fill-opacity="1" d="M0,288L20,277.3C40,267,80,245,120,245.3C160,245,200,267,240,240C280,213,320,139,360,90.7C400,43,440,21,480,58.7C520,96,560,192,600,197.3C640,203,680,117,720,122.7C760,128,800,224,840,256C880,288,920,256,960,208C1000,160,1040,96,1080,96C1120,96,1160,160,1200,170.7C1240,181,1280,139,1320,106.7C1360,75,1400,53,1420,42.7L1440,32L1440,0L1420,0C1400,0,1360,0,1320,0C1280,0,1240,0,1200,0C1160,0,1120,0,1080,0C1040,0,1000,0,960,0C920,0,880,0,840,0C800,0,760,0,720,0C680,0,640,0,600,0C560,0,520,0,480,0C440,0,400,0,360,0C320,0,280,0,240,0C200,0,160,0,120,0C80,0,40,0,20,0L0,0Z"></path></svg>